<svg width="172" height="48" viewBox="0 0 172 48" fill="none" xmlns="http://www.w3.org/2000/svg">
<circle cx="22" cy="26" r="22" fill="#E62129C4"/>
<path d="M22.2733 35.288C20.8226 35.288 19.5213 35.032 18.3693 34.52C17.2173 33.9867 16.2999 33.272 15.6173 32.376C14.9559 31.48 14.5933 30.488 14.5293 29.4H19.0413C19.1266 30.0827 19.4573 30.648 20.0333 31.096C20.6306 31.544 21.3666 31.768 22.2413 31.768C23.0946 31.768 23.7559 31.5973 24.2253 31.256C24.7159 30.9147 24.9613 30.4773 24.9613 29.944C24.9613 29.368 24.6626 28.9413 24.0653 28.664C23.4893 28.3653 22.5613 28.0453 21.2812 27.704C19.9586 27.384 18.8706 27.0533 18.0173 26.712C17.1853 26.3707 16.4599 25.848 15.8413 25.144C15.2439 24.44 14.9453 23.4907 14.9453 22.296C14.9453 21.3147 15.2226 20.4187 15.7773 19.608C16.3533 18.7973 17.1639 18.1573 18.2093 17.688C19.2759 17.2187 20.5239 16.984 21.9533 16.984C24.0653 16.984 25.7506 17.5173 27.0093 18.584C28.2679 19.6293 28.9613 21.048 29.0893 22.84H24.8013C24.7373 22.136 24.4386 21.5813 23.9053 21.176C23.3933 20.7493 22.6999 20.536 21.8253 20.536C21.0146 20.536 20.3853 20.6853 19.9373 20.984C19.5106 21.2827 19.2973 21.6987 19.2973 22.232C19.2973 22.8293 19.5959 23.288 20.1933 23.608C20.7906 23.9067 21.7186 24.216 22.9773 24.536C24.2573 24.856 25.3133 25.1867 26.1453 25.528C26.9773 25.8693 27.6919 26.4027 28.2893 27.128C28.9079 27.832 29.2279 28.7707 29.2493 29.944C29.2493 30.968 28.9613 31.8853 28.3853 32.696C27.8306 33.5067 27.0199 34.1467 25.9533 34.616C24.9079 35.064 23.6813 35.288 22.2733 35.288Z" fill="white"/>
<path d="M58.568 31.14C57.5946 31.14 56.7146 30.9733 55.928 30.64C55.1546 30.3067 54.5413 29.8267 54.088 29.2C53.6346 28.5733 53.4013 27.8333 53.388 26.98H56.388C56.428 27.5533 56.628 28.0067 56.988 28.34C57.3613 28.6733 57.868 28.84 58.508 28.84C59.1613 28.84 59.6746 28.6867 60.048 28.38C60.4213 28.06 60.608 27.6467 60.608 27.14C60.608 26.7267 60.4813 26.3867 60.228 26.12C59.9746 25.8533 59.6546 25.6467 59.268 25.5C58.8946 25.34 58.3746 25.1667 57.708 24.98C56.8013 24.7133 56.0613 24.4533 55.488 24.2C54.928 23.9333 54.4413 23.54 54.028 23.02C53.628 22.4867 53.428 21.78 53.428 20.9C53.428 20.0733 53.6346 19.3533 54.048 18.74C54.4613 18.1267 55.0413 17.66 55.788 17.34C56.5346 17.0067 57.388 16.84 58.348 16.84C59.788 16.84 60.9546 17.1933 61.848 17.9C62.7546 18.5933 63.2546 19.5667 63.348 20.82H60.268C60.2413 20.34 60.0346 19.9467 59.648 19.64C59.2746 19.32 58.7746 19.16 58.148 19.16C57.6013 19.16 57.1613 19.3 56.828 19.58C56.508 19.86 56.348 20.2667 56.348 20.8C56.348 21.1733 56.468 21.4867 56.708 21.74C56.9613 21.98 57.268 22.18 57.628 22.34C58.0013 22.4867 58.5213 22.66 59.188 22.86C60.0946 23.1267 60.8346 23.3933 61.408 23.66C61.9813 23.9267 62.4746 24.3267 62.888 24.86C63.3013 25.3933 63.508 26.0933 63.508 26.96C63.508 27.7067 63.3146 28.4 62.928 29.04C62.5413 29.68 61.9746 30.1933 61.228 30.58C60.4813 30.9533 59.5946 31.14 58.568 31.14ZM67.4555 18.6C66.9621 18.6 66.5488 18.4467 66.2155 18.14C65.8955 17.82 65.7355 17.4267 65.7355 16.96C65.7355 16.4933 65.8955 16.1067 66.2155 15.8C66.5488 15.48 66.9621 15.32 67.4555 15.32C67.9488 15.32 68.3555 15.48 68.6755 15.8C69.0088 16.1067 69.1755 16.4933 69.1755 16.96C69.1755 17.4267 69.0088 17.82 68.6755 18.14C68.3555 18.4467 67.9488 18.6 67.4555 18.6ZM68.8355 19.92V31H66.0355V19.92H68.8355ZM76.0419 19.74C76.8685 19.74 77.5952 19.9067 78.2219 20.24C78.8485 20.56 79.3419 20.98 79.7019 21.5V19.92H82.5219V31.08C82.5219 32.1067 82.3152 33.02 81.9019 33.82C81.4885 34.6333 80.8685 35.2733 80.0419 35.74C79.2152 36.22 78.2152 36.46 77.0419 36.46C75.4685 36.46 74.1752 36.0933 73.1619 35.36C72.1619 34.6267 71.5952 33.6267 71.4619 32.36H74.2419C74.3885 32.8667 74.7019 33.2667 75.1819 33.56C75.6752 33.8667 76.2685 34.02 76.9619 34.02C77.7752 34.02 78.4352 33.7733 78.9419 33.28C79.4485 32.8 79.7019 32.0667 79.7019 31.08V29.36C79.3419 29.88 78.8419 30.3133 78.2019 30.66C77.5752 31.0067 76.8552 31.18 76.0419 31.18C75.1085 31.18 74.2552 30.94 73.4819 30.46C72.7085 29.98 72.0952 29.3067 71.6419 28.44C71.2019 27.56 70.9819 26.5533 70.9819 25.42C70.9819 24.3 71.2019 23.3067 71.6419 22.44C72.0952 21.5733 72.7019 20.9067 73.4619 20.44C74.2352 19.9733 75.0952 19.74 76.0419 19.74ZM79.7019 25.46C79.7019 24.78 79.5685 24.2 79.3019 23.72C79.0352 23.2267 78.6752 22.8533 78.2219 22.6C77.7685 22.3333 77.2819 22.2 76.7619 22.2C76.2419 22.2 75.7619 22.3267 75.3219 22.58C74.8819 22.8333 74.5219 23.2067 74.2419 23.7C73.9752 24.18 73.8419 24.7533 73.8419 25.42C73.8419 26.0867 73.9752 26.6733 74.2419 27.18C74.5219 27.6733 74.8819 28.0533 75.3219 28.32C75.7752 28.5867 76.2552 28.72 76.7619 28.72C77.2819 28.72 77.7685 28.5933 78.2219 28.34C78.6752 28.0733 79.0352 27.7 79.3019 27.22C79.5685 26.7267 79.7019 26.14 79.7019 25.46ZM91.4966 19.76C92.8166 19.76 93.8832 20.18 94.6966 21.02C95.5099 21.8467 95.9166 23.0067 95.9166 24.5V31H93.1166V24.88C93.1166 24 92.8966 23.3267 92.4566 22.86C92.0166 22.38 91.4166 22.14 90.6566 22.14C89.8832 22.14 89.2699 22.38 88.8166 22.86C88.3766 23.3267 88.1566 24 88.1566 24.88V31H85.3566V19.92H88.1566V21.3C88.5299 20.82 89.0032 20.4467 89.5766 20.18C90.1632 19.9 90.8032 19.76 91.4966 19.76ZM101.939 22.22V27.58C101.939 27.9533 102.026 28.2267 102.199 28.4C102.386 28.56 102.693 28.64 103.119 28.64H104.419V31H102.659C100.299 31 99.1192 29.8533 99.1192 27.56V22.22H97.7992V19.92H99.1192V17.18H101.939V19.92H104.419V22.22H101.939ZM116.833 25.22C116.833 25.62 116.806 25.98 116.753 26.3H108.653C108.72 27.1 109 27.7267 109.493 28.18C109.986 28.6333 110.593 28.86 111.313 28.86C112.353 28.86 113.093 28.4133 113.533 27.52H116.553C116.233 28.5867 115.62 29.4667 114.713 30.16C113.806 30.84 112.693 31.18 111.373 31.18C110.306 31.18 109.346 30.9467 108.493 30.48C107.653 30 106.993 29.3267 106.513 28.46C106.046 27.5933 105.813 26.5933 105.813 25.46C105.813 24.3133 106.046 23.3067 106.513 22.44C106.98 21.5733 107.633 20.9067 108.473 20.44C109.313 19.9733 110.28 19.74 111.373 19.74C112.426 19.74 113.366 19.9667 114.193 20.42C115.033 20.8733 115.68 21.52 116.133 22.36C116.6 23.1867 116.833 24.14 116.833 25.22ZM113.933 24.42C113.92 23.7 113.66 23.1267 113.153 22.7C112.646 22.26 112.026 22.04 111.293 22.04C110.6 22.04 110.013 22.2533 109.533 22.68C109.066 23.0933 108.78 23.6733 108.673 24.42H113.933ZM121.777 21.64C122.137 21.0533 122.604 20.5933 123.177 20.26C123.764 19.9267 124.43 19.76 125.177 19.76V22.7H124.437C123.557 22.7 122.89 22.9067 122.437 23.32C121.997 23.7333 121.777 24.4533 121.777 25.48V31H118.977V19.92H121.777V21.64ZM126.443 25.42C126.443 24.3 126.663 23.3067 127.103 22.44C127.556 21.5733 128.163 20.9067 128.923 20.44C129.696 19.9733 130.556 19.74 131.503 19.74C132.329 19.74 133.049 19.9067 133.663 20.24C134.289 20.5733 134.789 20.9933 135.163 21.5V19.92H137.983V31H135.163V29.38C134.803 29.9 134.303 30.3333 133.663 30.68C133.036 31.0133 132.309 31.18 131.483 31.18C130.549 31.18 129.696 30.94 128.923 30.46C128.163 29.98 127.556 29.3067 127.103 28.44C126.663 27.56 126.443 26.5533 126.443 25.42ZM135.163 25.46C135.163 24.78 135.029 24.2 134.763 23.72C134.496 23.2267 134.136 22.8533 133.683 22.6C133.229 22.3333 132.743 22.2 132.223 22.2C131.703 22.2 131.223 22.3267 130.783 22.58C130.343 22.8333 129.983 23.2067 129.703 23.7C129.436 24.18 129.303 24.7533 129.303 25.42C129.303 26.0867 129.436 26.6733 129.703 27.18C129.983 27.6733 130.343 28.0533 130.783 28.32C131.236 28.5867 131.716 28.72 132.223 28.72C132.743 28.72 133.229 28.5933 133.683 28.34C134.136 28.0733 134.496 27.7 134.763 27.22C135.029 26.7267 135.163 26.14 135.163 25.46ZM147.378 31L143.618 26.28V31H140.818V16.2H143.618V24.62L147.338 19.92H150.978L146.098 25.48L151.018 31H147.378ZM155.857 22.22V27.58C155.857 27.9533 155.944 28.2267 156.117 28.4C156.304 28.56 156.611 28.64 157.037 28.64H158.337V31H156.577C154.217 31 153.037 29.8533 153.037 27.56V22.22H151.717V19.92H153.037V17.18H155.857V19.92H158.337V22.22H155.857ZM161.871 18.6C161.378 18.6 160.964 18.4467 160.631 18.14C160.311 17.82 160.151 17.4267 160.151 16.96C160.151 16.4933 160.311 16.1067 160.631 15.8C160.964 15.48 161.378 15.32 161.871 15.32C162.364 15.32 162.771 15.48 163.091 15.8C163.424 16.1067 163.591 16.4933 163.591 16.96C163.591 17.4267 163.424 17.82 163.091 18.14C162.771 18.4467 162.364 18.6 161.871 18.6ZM163.251 19.92V31H160.451V19.92H163.251ZM171.198 22.22H169.258V31H166.418V22.22H165.158V19.92H166.418V19.36C166.418 18 166.804 17 167.578 16.36C168.351 15.72 169.518 15.42 171.078 15.46V17.82C170.398 17.8067 169.924 17.92 169.658 18.16C169.391 18.4 169.258 18.8333 169.258 19.46V19.92H171.198V22.22Z" fill="#252836"/>
<defs>
<linearGradient id="paint0_linear" x1="39.5" y1="6" x2="4" y2="46" gradientUnits="userSpaceOnUse">
<stop stop-color="#47D3A9"/>
<stop offset="1" stop-color="#258568"/>
</linearGradient>
</defs>
</svg>
