<svg width="500" height="500" viewBox="0 0 69 79" fill="none" xmlns="http://www.w3.org/2000/svg"><path d="M15.63 39.474c1.752 4.674 8.844 13.955 12.17 18.012 5.598 4.138 18.498-.973 19.229-9.736.73-8.762 7.302-19.229 8.032-28.721.73-9.493-4.566-13.99-6.815-15.578C44.108.529 28.774-3.121 18.307 6.858c-10.466 9.98-4.868 26.775-2.677 32.616Z" fill="#E62129"/><path d="M20.745 23.322c-1.208 3.816-2.683 5.942-3.27 6.528-.42 1.506-.151 6.778 4.276 15.817 4.427 9.038 13.08 8.787 16.853 7.531 2.85-1.59 9.005-6.477 10.816-13.306 2.264-8.536.251-18.83-1.258-21.34-1.51-2.51-6.037-5.272-9.558-2.51-3.522 2.76-8.3 1.255-10.565 1.255-2.264 0-5.785 1.255-7.294 6.025Z" fill="#EE6A6F"/><path d="m21.898 66.278 3.895-15.334 17.768-1.46 4.868 16.794c-1.46 1.704-5.987 5.355-12.413 6.329-6.426.974-12.09-3.813-14.118-6.329Z" fill="#EE6A6F"/><path d="M35.529 53.865c-3.505.39-7.951-1.866-9.736-2.92l-3.895 14.847 22.637-12.9-.974-3.408c-1.217 1.298-4.527 3.991-8.032 4.38Z" fill="#E14046"/><path d="M6.32 72.138c4.868-4.479 12.414-6.572 15.578-7.059.893 2.597 4.985 7.156 12.774 6.96 7.789-.194 11.937-4.526 13.316-6.96 1.136 0 4.579.438 8.473 2.19 3.895 1.753 9.899 8.358 12.414 11.44H.479c-.081-.324.973-2.093 5.841-6.571Z" fill="#E62129"/></svg>