<!-- <svg width="500" height="500" viewBox="0 0 500 500" fill="none" xmlns="http://www.w3.org/2000/svg">
<mask id="mask0_102:158" style="mask-type:alpha" maskUnits="userSpaceOnUse" x="58" y="46" width="384" height="408">
<path d="M441.822 249.989C441.822 362.649 318.133 455.461 239.532 453.978C140.344 452.107 58 362.649 58 249.989C58 137.329 143.921 46 249.911 46C355.9 46 441.822 137.329 441.822 249.989Z" fill="#44B090"/>
</mask>
<g mask="url(#mask0_102:158)">
<path d="M162.786 278.699C170.558 299.423 202.004 340.583 216.755 358.573C241.581 376.922 298.788 354.256 302.026 315.398C305.264 276.541 334.407 230.128 337.645 188.032C340.883 145.936 317.398 125.995 307.423 118.952C289.073 105.997 221.073 89.8087 174.659 134.063C128.246 178.317 153.072 252.794 162.786 278.699Z" fill="#44B090"/>
<path d="M185.468 207.072C180.114 223.994 173.57 233.421 170.968 236.018C169.109 242.699 170.298 266.079 189.93 306.159C209.562 346.239 247.933 345.126 264.665 339.559C277.307 332.508 304.598 310.835 312.629 280.552C322.668 242.699 313.745 197.051 307.052 185.918C300.359 174.785 280.281 162.538 264.665 174.785C249.049 187.031 227.855 180.351 217.816 180.351C207.777 180.351 192.161 185.918 185.468 207.072Z" fill="#3EDBAB"/>
<path d="M190.585 397.563L207.855 329.563L286.649 323.086L308.237 397.563C301.761 405.119 281.684 421.309 253.189 425.627C224.693 429.944 199.58 408.717 190.585 397.563Z" fill="#3EDBAB"/>
<path d="M251.03 342.515C235.487 344.242 215.77 334.24 207.855 329.563L190.585 395.404L290.967 338.198L286.649 323.086C281.253 328.843 266.573 340.788 251.03 342.515Z" fill="#3EC69C"/>
<path d="M121.504 423.547C143.092 403.687 176.552 394.404 190.584 392.245C194.542 403.759 212.69 423.976 247.23 423.112C281.77 422.249 300.163 403.039 306.28 392.245C311.317 392.245 326.586 394.188 343.856 401.96C361.126 409.731 387.75 439.018 398.904 452.69H95.5992C95.2394 451.251 99.9167 443.408 121.504 423.547Z" fill="#44B090"/>
</g>
<path d="M222.078 287.68L240.128 305.229L269.97 265.698" stroke="#FBFEFD" stroke-width="3"/>
<circle cx="248.685" cy="285.465" r="54.2144" stroke="#FBFEFD" stroke-width="2"/>
</svg> -->
<svg width="500" height="500" viewBox="0 0 69 79" fill="none" xmlns="http://www.w3.org/2000/svg">
<path d="M15.6299 39.4743C17.3824 44.1476 24.4735 53.4294 27.8 57.4861C33.3982 61.6239 46.2985 56.5125 47.0287 47.75C47.759 38.9876 54.3308 28.5213 55.061 19.0286C55.7912 9.53591 50.4954 5.0391 48.2458 3.45082C44.1079 0.529384 28.7736 -3.12104 18.3073 6.85845C7.84099 16.8379 13.4392 33.6327 15.6299 39.4743Z" fill="#E62129"/>
<path d="M20.7447 23.322C19.5374 27.1382 18.0617 29.2638 17.4748 29.8496C17.0555 31.356 17.3239 36.6284 21.7509 45.6666C26.1779 54.7048 34.8308 54.4537 38.6038 53.1984C41.4545 51.6084 47.6088 46.721 49.4198 39.8922C51.6837 31.3561 49.6714 21.0625 48.1622 18.5519C46.6529 16.0412 42.1253 13.2796 38.6038 16.0412C35.0823 18.8029 30.3031 17.2965 28.0393 17.2965C25.7755 17.2965 22.254 18.5519 20.7447 23.322Z" fill="#EE6A6F"/>
<path d="M21.8984 66.2784L25.7929 50.9441L43.5612 49.4837L48.4293 66.2784C46.9689 67.9823 42.4416 71.6333 36.0158 72.6069C29.5899 73.5805 23.9268 68.7936 21.8984 66.2784Z" fill="#EE6A6F"/>
<path d="M35.529 53.8649C32.024 54.2544 27.5778 51.9989 25.7929 50.9441L21.8984 65.7916L44.5348 52.8913L43.5612 49.4837C42.3442 50.7818 39.0339 53.4755 35.529 53.8649Z" fill="#E14046"/>
<path d="M6.32049 72.1379C11.1885 67.6593 18.734 65.5661 21.8982 65.0793C22.7907 67.6756 26.8832 72.2346 34.6721 72.0398C42.4609 71.8451 46.6086 67.5133 47.9879 65.0793C49.1238 65.0793 52.5669 65.5174 56.4614 67.2699C60.3558 69.0224 66.3597 75.6267 68.8749 78.7098H0.478841C0.397707 78.3853 1.45245 76.6165 6.32049 72.1379Z" fill="#E62129"/>
</svg>
