<svg width="500" height="500" viewBox="0 0 500 500" fill="none" xmlns="http://www.w3.org/2000/svg">
<rect x="97.2" y="60" width="304.8" height="381" rx="4" fill="#DFE2E2"/>
<mask id="mask0_102:264" style="mask-type:alpha" maskUnits="userSpaceOnUse" x="97" y="60" width="305" height="381">
<rect x="97.2" y="60" width="304.8" height="381" rx="4" fill="#44B090"/>
</mask>
<g mask="url(#mask0_102:264)">
<path d="M214.348 317.803C159.642 316.664 142.166 295.484 140.266 285.037C139.149 281.475 136.705 260.817 155.225 243.722C173.746 226.626 180.869 199.558 181.581 190.297C182.294 181.037 195.115 158.955 220.047 154.681C244.978 150.407 297.69 151.12 306.238 186.024C314.786 220.927 321.909 222.352 334.019 238.023C346.128 253.694 353.251 272.215 351.827 285.037C350.402 297.858 335.443 307.831 319.06 313.529C302.676 319.228 282.731 319.228 214.348 317.803Z" fill="#44B090" stroke="#2E7C65"/>
<path d="M199.923 249.662C195.649 263.173 190.424 270.698 188.346 272.772C186.862 278.106 187.812 296.772 203.486 328.771C219.159 360.77 249.794 359.881 263.152 355.437C273.245 349.807 295.033 332.504 301.445 308.327C309.46 278.106 302.336 241.662 296.993 232.774C291.649 223.885 275.62 214.107 263.152 223.885C250.684 233.662 233.764 228.329 225.749 228.329C217.734 228.329 205.267 232.774 199.923 249.662Z" fill="#3EDBAB"/>
<path d="M312.651 269.687C241.418 234.784 188.706 272.537 182.295 274.674C187.994 255.441 206.799 215.551 236.432 209.852C266.065 204.154 291.993 214.126 301.253 219.825C328.797 248.08 369.637 297.611 312.651 269.687Z" fill="#44B090"/>
<path d="M204.008 401.747L217.796 347.457L280.704 342.286L297.938 401.747C292.768 407.779 276.74 420.705 253.989 424.152C231.239 427.599 211.19 410.651 204.008 401.747Z" fill="#3EDBAB"/>
<path d="M252.266 357.798C239.857 359.176 224.116 351.191 217.796 347.457L204.008 400.023L284.151 354.351L280.704 342.286C276.395 346.882 264.675 356.419 252.266 357.798Z" fill="#3EC69C"/>
<path d="M148.854 422.494C166.089 406.638 192.803 399.227 204.006 397.503C207.166 406.695 221.655 422.836 249.23 422.146C276.806 421.457 291.491 406.121 296.374 397.503C300.396 397.503 312.586 399.054 326.374 405.259C340.161 411.463 361.418 434.845 370.323 445.761H128.172C127.885 444.612 131.619 438.35 148.854 422.494Z" fill="#44B090"/>
<path d="M150.953 300.32C175.172 276.814 203.665 253.307 261.363 255.444C307.522 257.154 334.732 276.101 348.979 293.197" stroke="#2E7C65"/>
<path d="M249.255 288.21V316.703" stroke="#2E7C65" stroke-width="2"/>
</g>
</svg>
