<svg width="500" height="500" viewBox="0 0 500 500" fill="none" xmlns="http://www.w3.org/2000/svg">
<circle cx="161.105" cy="261.184" r="137.67" fill="#44B090"/>
<rect x="121.353" y="100.396" width="355.647" height="76.4833" rx="2" fill="#F4F5F4"/>
<path d="M141.491 119.523V123.693H140.807V120.837L139.535 123.693H139.061L137.783 120.837V123.693H137.099V119.523H137.837L139.301 122.793L140.759 119.523H141.491ZM143.854 123.747C143.542 123.747 143.26 123.677 143.008 123.537C142.756 123.393 142.558 123.193 142.414 122.937C142.27 122.677 142.198 122.377 142.198 122.037C142.198 121.701 142.272 121.403 142.42 121.143C142.568 120.883 142.77 120.683 143.026 120.543C143.282 120.403 143.568 120.333 143.884 120.333C144.2 120.333 144.486 120.403 144.742 120.543C144.998 120.683 145.2 120.883 145.348 121.143C145.496 121.403 145.57 121.701 145.57 122.037C145.57 122.373 145.494 122.671 145.342 122.931C145.19 123.191 144.982 123.393 144.718 123.537C144.458 123.677 144.17 123.747 143.854 123.747ZM143.854 123.153C144.03 123.153 144.194 123.111 144.346 123.027C144.502 122.943 144.628 122.817 144.724 122.649C144.82 122.481 144.868 122.277 144.868 122.037C144.868 121.797 144.822 121.595 144.73 121.431C144.638 121.263 144.516 121.137 144.364 121.053C144.212 120.969 144.048 120.927 143.872 120.927C143.696 120.927 143.532 120.969 143.38 121.053C143.232 121.137 143.114 121.263 143.026 121.431C142.938 121.595 142.894 121.797 142.894 122.037C142.894 122.393 142.984 122.669 143.164 122.865C143.348 123.057 143.578 123.153 143.854 123.153ZM147.944 120.333C148.204 120.333 148.436 120.387 148.64 120.495C148.848 120.603 149.01 120.763 149.126 120.975C149.242 121.187 149.3 121.443 149.3 121.743V123.693H148.622V121.845C148.622 121.549 148.548 121.323 148.4 121.167C148.252 121.007 148.05 120.927 147.794 120.927C147.538 120.927 147.334 121.007 147.182 121.167C147.034 121.323 146.96 121.549 146.96 121.845V123.693H146.276V120.387H146.96V120.765C147.072 120.629 147.214 120.523 147.386 120.447C147.562 120.371 147.748 120.333 147.944 120.333ZM149.975 122.025C149.975 121.693 150.043 121.399 150.179 121.143C150.319 120.887 150.507 120.689 150.743 120.549C150.983 120.405 151.249 120.333 151.541 120.333C151.757 120.333 151.969 120.381 152.177 120.477C152.389 120.569 152.557 120.693 152.681 120.849V119.253H153.371V123.693H152.681V123.195C152.569 123.355 152.413 123.487 152.213 123.591C152.017 123.695 151.791 123.747 151.535 123.747C151.247 123.747 150.983 123.675 150.743 123.531C150.507 123.383 150.319 123.179 150.179 122.919C150.043 122.655 149.975 122.357 149.975 122.025ZM152.681 122.037C152.681 121.809 152.633 121.611 152.537 121.443C152.445 121.275 152.323 121.147 152.171 121.059C152.019 120.971 151.855 120.927 151.679 120.927C151.503 120.927 151.339 120.971 151.187 121.059C151.035 121.143 150.911 121.269 150.815 121.437C150.723 121.601 150.677 121.797 150.677 122.025C150.677 122.253 150.723 122.453 150.815 122.625C150.911 122.797 151.035 122.929 151.187 123.021C151.343 123.109 151.507 123.153 151.679 123.153C151.855 123.153 152.019 123.109 152.171 123.021C152.323 122.933 152.445 122.805 152.537 122.637C152.633 122.465 152.681 122.265 152.681 122.037ZM154.071 122.025C154.071 121.693 154.139 121.399 154.275 121.143C154.415 120.887 154.603 120.689 154.839 120.549C155.079 120.405 155.343 120.333 155.631 120.333C155.891 120.333 156.117 120.385 156.309 120.489C156.505 120.589 156.661 120.715 156.777 120.867V120.387H157.467V123.693H156.777V123.201C156.661 123.357 156.503 123.487 156.303 123.591C156.103 123.695 155.875 123.747 155.619 123.747C155.335 123.747 155.075 123.675 154.839 123.531C154.603 123.383 154.415 123.179 154.275 122.919C154.139 122.655 154.071 122.357 154.071 122.025ZM156.777 122.037C156.777 121.809 156.729 121.611 156.633 121.443C156.541 121.275 156.419 121.147 156.267 121.059C156.115 120.971 155.951 120.927 155.775 120.927C155.599 120.927 155.435 120.971 155.283 121.059C155.131 121.143 155.007 121.269 154.911 121.437C154.819 121.601 154.773 121.797 154.773 122.025C154.773 122.253 154.819 122.453 154.911 122.625C155.007 122.797 155.131 122.929 155.283 123.021C155.439 123.109 155.603 123.153 155.775 123.153C155.951 123.153 156.115 123.109 156.267 123.021C156.419 122.933 156.541 122.805 156.633 122.637C156.729 122.465 156.777 122.265 156.777 122.037ZM161.371 120.387L159.343 125.247H158.635L159.307 123.639L158.005 120.387H158.767L159.697 122.907L160.663 120.387H161.371Z" fill="#252836"/>
<path d="M316.758 121.476C316.758 120.788 316.87 120.252 317.094 119.868C317.318 119.48 317.71 119.286 318.27 119.286C318.826 119.286 319.216 119.48 319.44 119.868C319.664 120.252 319.776 120.788 319.776 121.476C319.776 122.176 319.664 122.72 319.44 123.108C319.216 123.496 318.826 123.69 318.27 123.69C317.71 123.69 317.318 123.496 317.094 123.108C316.87 122.72 316.758 122.176 316.758 121.476ZM319.236 121.476C319.236 121.128 319.212 120.834 319.164 120.594C319.12 120.35 319.026 120.154 318.882 120.006C318.742 119.858 318.538 119.784 318.27 119.784C317.998 119.784 317.79 119.858 317.646 120.006C317.506 120.154 317.412 120.35 317.364 120.594C317.32 120.834 317.298 121.128 317.298 121.476C317.298 121.836 317.32 122.138 317.364 122.382C317.412 122.626 317.506 122.822 317.646 122.97C317.79 123.118 317.998 123.192 318.27 123.192C318.538 123.192 318.742 123.118 318.882 122.97C319.026 122.822 319.12 122.626 319.164 122.382C319.212 122.138 319.236 121.836 319.236 121.476ZM321.347 121.434C321.123 121.346 320.951 121.218 320.831 121.05C320.711 120.882 320.651 120.678 320.651 120.438C320.651 120.222 320.705 120.028 320.813 119.856C320.921 119.68 321.081 119.542 321.293 119.442C321.509 119.338 321.769 119.286 322.073 119.286C322.377 119.286 322.635 119.338 322.847 119.442C323.063 119.542 323.225 119.68 323.333 119.856C323.445 120.028 323.501 120.222 323.501 120.438C323.501 120.67 323.439 120.874 323.315 121.05C323.191 121.222 323.021 121.35 322.805 121.434C323.053 121.51 323.249 121.644 323.393 121.836C323.541 122.024 323.615 122.252 323.615 122.52C323.615 122.78 323.551 123.008 323.423 123.204C323.295 123.396 323.113 123.546 322.877 123.654C322.645 123.758 322.377 123.81 322.073 123.81C321.769 123.81 321.501 123.758 321.269 123.654C321.041 123.546 320.863 123.396 320.735 123.204C320.607 123.008 320.543 122.78 320.543 122.52C320.543 122.252 320.615 122.022 320.759 121.83C320.903 121.638 321.099 121.506 321.347 121.434ZM322.973 120.504C322.973 120.26 322.893 120.072 322.733 119.94C322.573 119.808 322.353 119.742 322.073 119.742C321.797 119.742 321.579 119.808 321.419 119.94C321.259 120.072 321.179 120.262 321.179 120.51C321.179 120.734 321.261 120.914 321.425 121.05C321.593 121.186 321.809 121.254 322.073 121.254C322.341 121.254 322.557 121.186 322.721 121.05C322.889 120.91 322.973 120.728 322.973 120.504ZM322.073 121.674C321.777 121.674 321.535 121.744 321.347 121.884C321.159 122.02 321.065 122.226 321.065 122.502C321.065 122.758 321.155 122.964 321.335 123.12C321.519 123.276 321.765 123.354 322.073 123.354C322.381 123.354 322.625 123.276 322.805 123.12C322.985 122.964 323.075 122.758 323.075 122.502C323.075 122.234 322.983 122.03 322.799 121.89C322.615 121.746 322.373 121.674 322.073 121.674ZM324.635 123.726C324.531 123.726 324.443 123.69 324.371 123.618C324.299 123.546 324.263 123.458 324.263 123.354C324.263 123.25 324.299 123.162 324.371 123.09C324.443 123.018 324.531 122.982 324.635 122.982C324.735 122.982 324.819 123.018 324.887 123.09C324.959 123.162 324.995 123.25 324.995 123.354C324.995 123.458 324.959 123.546 324.887 123.618C324.819 123.69 324.735 123.726 324.635 123.726ZM324.635 121.158C324.531 121.158 324.443 121.122 324.371 121.05C324.299 120.978 324.263 120.89 324.263 120.786C324.263 120.682 324.299 120.594 324.371 120.522C324.443 120.45 324.531 120.414 324.635 120.414C324.735 120.414 324.819 120.45 324.887 120.522C324.959 120.594 324.995 120.682 324.995 120.786C324.995 120.89 324.959 120.978 324.887 121.05C324.819 121.122 324.735 121.158 324.635 121.158ZM325.678 121.476C325.678 120.788 325.79 120.252 326.014 119.868C326.238 119.48 326.63 119.286 327.19 119.286C327.746 119.286 328.136 119.48 328.36 119.868C328.584 120.252 328.696 120.788 328.696 121.476C328.696 122.176 328.584 122.72 328.36 123.108C328.136 123.496 327.746 123.69 327.19 123.69C326.63 123.69 326.238 123.496 326.014 123.108C325.79 122.72 325.678 122.176 325.678 121.476ZM328.156 121.476C328.156 121.128 328.132 120.834 328.084 120.594C328.04 120.35 327.946 120.154 327.802 120.006C327.662 119.858 327.458 119.784 327.19 119.784C326.918 119.784 326.71 119.858 326.566 120.006C326.426 120.154 326.332 120.35 326.284 120.594C326.24 120.834 326.218 121.128 326.218 121.476C326.218 121.836 326.24 122.138 326.284 122.382C326.332 122.626 326.426 122.822 326.566 122.97C326.71 123.118 326.918 123.192 327.19 123.192C327.458 123.192 327.662 123.118 327.802 122.97C327.946 122.822 328.04 122.626 328.084 122.382C328.132 122.138 328.156 121.836 328.156 121.476ZM329.476 121.476C329.476 120.788 329.588 120.252 329.812 119.868C330.036 119.48 330.428 119.286 330.988 119.286C331.544 119.286 331.934 119.48 332.158 119.868C332.382 120.252 332.494 120.788 332.494 121.476C332.494 122.176 332.382 122.72 332.158 123.108C331.934 123.496 331.544 123.69 330.988 123.69C330.428 123.69 330.036 123.496 329.812 123.108C329.588 122.72 329.476 122.176 329.476 121.476ZM331.954 121.476C331.954 121.128 331.93 120.834 331.882 120.594C331.838 120.35 331.744 120.154 331.6 120.006C331.46 119.858 331.256 119.784 330.988 119.784C330.716 119.784 330.508 119.858 330.364 120.006C330.224 120.154 330.13 120.35 330.082 120.594C330.038 120.834 330.016 121.128 330.016 121.476C330.016 121.836 330.038 122.138 330.082 122.382C330.13 122.626 330.224 122.822 330.364 122.97C330.508 123.118 330.716 123.192 330.988 123.192C331.256 123.192 331.46 123.118 331.6 122.97C331.744 122.822 331.838 122.626 331.882 122.382C331.93 122.138 331.954 121.836 331.954 121.476ZM337.273 121.26V121.722H334.879V121.26H337.273ZM339.723 119.85V119.352H340.851V123.69H340.299V119.85H339.723ZM344.237 120.384C344.149 119.94 343.875 119.718 343.415 119.718C343.059 119.718 342.793 119.856 342.617 120.132C342.441 120.404 342.355 120.854 342.359 121.482C342.451 121.274 342.603 121.112 342.815 120.996C343.031 120.876 343.271 120.816 343.535 120.816C343.947 120.816 344.275 120.944 344.519 121.2C344.767 121.456 344.891 121.81 344.891 122.262C344.891 122.534 344.837 122.778 344.729 122.994C344.625 123.21 344.465 123.382 344.249 123.51C344.037 123.638 343.779 123.702 343.475 123.702C343.063 123.702 342.741 123.61 342.509 123.426C342.277 123.242 342.115 122.988 342.023 122.664C341.931 122.34 341.885 121.94 341.885 121.464C341.885 119.996 342.397 119.262 343.421 119.262C343.813 119.262 344.121 119.368 344.345 119.58C344.569 119.792 344.701 120.06 344.741 120.384H344.237ZM343.421 121.278C343.249 121.278 343.087 121.314 342.935 121.386C342.783 121.454 342.659 121.56 342.563 121.704C342.471 121.844 342.425 122.016 342.425 122.22C342.425 122.524 342.513 122.772 342.689 122.964C342.865 123.152 343.117 123.246 343.445 123.246C343.725 123.246 343.947 123.16 344.111 122.988C344.279 122.812 344.363 122.576 344.363 122.28C344.363 121.968 344.283 121.724 344.123 121.548C343.963 121.368 343.729 121.278 343.421 121.278ZM345.921 123.726C345.817 123.726 345.729 123.69 345.657 123.618C345.585 123.546 345.549 123.458 345.549 123.354C345.549 123.25 345.585 123.162 345.657 123.09C345.729 123.018 345.817 122.982 345.921 122.982C346.021 122.982 346.105 123.018 346.173 123.09C346.245 123.162 346.281 123.25 346.281 123.354C346.281 123.458 346.245 123.546 346.173 123.618C346.105 123.69 346.021 123.726 345.921 123.726ZM345.921 121.158C345.817 121.158 345.729 121.122 345.657 121.05C345.585 120.978 345.549 120.89 345.549 120.786C345.549 120.682 345.585 120.594 345.657 120.522C345.729 120.45 345.817 120.414 345.921 120.414C346.021 120.414 346.105 120.45 346.173 120.522C346.245 120.594 346.281 120.682 346.281 120.786C346.281 120.89 346.245 120.978 346.173 121.05C346.105 121.122 346.021 121.158 345.921 121.158ZM346.965 121.476C346.965 120.788 347.077 120.252 347.301 119.868C347.525 119.48 347.917 119.286 348.477 119.286C349.033 119.286 349.423 119.48 349.647 119.868C349.871 120.252 349.983 120.788 349.983 121.476C349.983 122.176 349.871 122.72 349.647 123.108C349.423 123.496 349.033 123.69 348.477 123.69C347.917 123.69 347.525 123.496 347.301 123.108C347.077 122.72 346.965 122.176 346.965 121.476ZM349.443 121.476C349.443 121.128 349.419 120.834 349.371 120.594C349.327 120.35 349.233 120.154 349.089 120.006C348.949 119.858 348.745 119.784 348.477 119.784C348.205 119.784 347.997 119.858 347.853 120.006C347.713 120.154 347.619 120.35 347.571 120.594C347.527 120.834 347.505 121.128 347.505 121.476C347.505 121.836 347.527 122.138 347.571 122.382C347.619 122.626 347.713 122.822 347.853 122.97C347.997 123.118 348.205 123.192 348.477 123.192C348.745 123.192 348.949 123.118 349.089 122.97C349.233 122.822 349.327 122.626 349.371 122.382C349.419 122.138 349.443 121.836 349.443 121.476ZM350.762 121.476C350.762 120.788 350.874 120.252 351.098 119.868C351.322 119.48 351.714 119.286 352.274 119.286C352.83 119.286 353.22 119.48 353.444 119.868C353.668 120.252 353.78 120.788 353.78 121.476C353.78 122.176 353.668 122.72 353.444 123.108C353.22 123.496 352.83 123.69 352.274 123.69C351.714 123.69 351.322 123.496 351.098 123.108C350.874 122.72 350.762 122.176 350.762 121.476ZM353.24 121.476C353.24 121.128 353.216 120.834 353.168 120.594C353.124 120.35 353.03 120.154 352.886 120.006C352.746 119.858 352.542 119.784 352.274 119.784C352.002 119.784 351.794 119.858 351.65 120.006C351.51 120.154 351.416 120.35 351.368 120.594C351.324 120.834 351.302 121.128 351.302 121.476C351.302 121.836 351.324 122.138 351.368 122.382C351.416 122.626 351.51 122.822 351.65 122.97C351.794 123.118 352.002 123.192 352.274 123.192C352.542 123.192 352.746 123.118 352.886 122.97C353.03 122.822 353.124 122.626 353.168 122.382C353.216 122.138 353.24 121.836 353.24 121.476Z" fill="#252836" fill-opacity="0.6"/>
<rect x="121.353" y="184.529" width="322.312" height="69.3143" rx="2" fill="#F4F5F4"/>
<path d="M137.835 202.916V203.381H136.91V206.391H136.34V203.381H135.41V202.916H137.835ZM140.932 203.636V206.391H140.362V206.066C140.272 206.179 140.154 206.269 140.007 206.336C139.864 206.399 139.71 206.431 139.547 206.431C139.33 206.431 139.135 206.386 138.962 206.296C138.792 206.206 138.657 206.073 138.557 205.896C138.46 205.719 138.412 205.506 138.412 205.256V203.636H138.977V205.171C138.977 205.418 139.039 205.608 139.162 205.741C139.285 205.871 139.454 205.936 139.667 205.936C139.88 205.936 140.049 205.871 140.172 205.741C140.299 205.608 140.362 205.418 140.362 205.171V203.636H140.932ZM144.234 204.946C144.234 205.049 144.227 205.143 144.214 205.226H142.109C142.126 205.446 142.207 205.623 142.354 205.756C142.501 205.889 142.681 205.956 142.894 205.956C143.201 205.956 143.417 205.828 143.544 205.571H144.159C144.076 205.824 143.924 206.033 143.704 206.196C143.487 206.356 143.217 206.436 142.894 206.436C142.631 206.436 142.394 206.378 142.184 206.261C141.977 206.141 141.814 205.974 141.694 205.761C141.577 205.544 141.519 205.294 141.519 205.011C141.519 204.728 141.576 204.479 141.689 204.266C141.806 204.049 141.967 203.883 142.174 203.766C142.384 203.649 142.624 203.591 142.894 203.591C143.154 203.591 143.386 203.648 143.589 203.761C143.792 203.874 143.951 204.034 144.064 204.241C144.177 204.444 144.234 204.679 144.234 204.946ZM143.639 204.766C143.636 204.556 143.561 204.388 143.414 204.261C143.267 204.134 143.086 204.071 142.869 204.071C142.672 204.071 142.504 204.134 142.364 204.261C142.224 204.384 142.141 204.553 142.114 204.766H143.639ZM145.82 206.436C145.603 206.436 145.408 206.398 145.235 206.321C145.065 206.241 144.93 206.134 144.83 206.001C144.73 205.864 144.677 205.713 144.67 205.546H145.26C145.27 205.663 145.325 205.761 145.425 205.841C145.528 205.918 145.657 205.956 145.81 205.956C145.97 205.956 146.093 205.926 146.18 205.866C146.27 205.803 146.315 205.723 146.315 205.626C146.315 205.523 146.265 205.446 146.165 205.396C146.068 205.346 145.913 205.291 145.7 205.231C145.493 205.174 145.325 205.119 145.195 205.066C145.065 205.013 144.952 204.931 144.855 204.821C144.762 204.711 144.715 204.566 144.715 204.386C144.715 204.239 144.758 204.106 144.845 203.986C144.932 203.863 145.055 203.766 145.215 203.696C145.378 203.626 145.565 203.591 145.775 203.591C146.088 203.591 146.34 203.671 146.53 203.831C146.723 203.988 146.827 204.203 146.84 204.476H146.27C146.26 204.353 146.21 204.254 146.12 204.181C146.03 204.108 145.908 204.071 145.755 204.071C145.605 204.071 145.49 204.099 145.41 204.156C145.33 204.213 145.29 204.288 145.29 204.381C145.29 204.454 145.317 204.516 145.37 204.566C145.423 204.616 145.488 204.656 145.565 204.686C145.642 204.713 145.755 204.748 145.905 204.791C146.105 204.844 146.268 204.899 146.395 204.956C146.525 205.009 146.637 205.089 146.73 205.196C146.823 205.303 146.872 205.444 146.875 205.621C146.875 205.778 146.832 205.918 146.745 206.041C146.658 206.164 146.535 206.261 146.375 206.331C146.218 206.401 146.033 206.436 145.82 206.436ZM147.326 205.001C147.326 204.724 147.383 204.479 147.496 204.266C147.613 204.053 147.769 203.888 147.966 203.771C148.166 203.651 148.388 203.591 148.631 203.591C148.811 203.591 148.988 203.631 149.161 203.711C149.338 203.788 149.478 203.891 149.581 204.021V202.691H150.156V206.391H149.581V205.976C149.488 206.109 149.358 206.219 149.191 206.306C149.028 206.393 148.839 206.436 148.626 206.436C148.386 206.436 148.166 206.376 147.966 206.256C147.769 206.133 147.613 205.963 147.496 205.746C147.383 205.526 147.326 205.278 147.326 205.001ZM149.581 205.011C149.581 204.821 149.541 204.656 149.461 204.516C149.384 204.376 149.283 204.269 149.156 204.196C149.029 204.123 148.893 204.086 148.746 204.086C148.599 204.086 148.463 204.123 148.336 204.196C148.209 204.266 148.106 204.371 148.026 204.511C147.949 204.648 147.911 204.811 147.911 205.001C147.911 205.191 147.949 205.358 148.026 205.501C148.106 205.644 148.209 205.754 148.336 205.831C148.466 205.904 148.603 205.941 148.746 205.941C148.893 205.941 149.029 205.904 149.156 205.831C149.283 205.758 149.384 205.651 149.461 205.511C149.541 205.368 149.581 205.201 149.581 205.011ZM150.74 205.001C150.74 204.724 150.796 204.479 150.91 204.266C151.026 204.053 151.183 203.888 151.38 203.771C151.58 203.651 151.8 203.591 152.04 203.591C152.256 203.591 152.445 203.634 152.605 203.721C152.768 203.804 152.898 203.909 152.995 204.036V203.636H153.57V206.391H152.995V205.981C152.898 206.111 152.766 206.219 152.6 206.306C152.433 206.393 152.243 206.436 152.03 206.436C151.793 206.436 151.576 206.376 151.38 206.256C151.183 206.133 151.026 205.963 150.91 205.746C150.796 205.526 150.74 205.278 150.74 205.001ZM152.995 205.011C152.995 204.821 152.955 204.656 152.875 204.516C152.798 204.376 152.696 204.269 152.57 204.196C152.443 204.123 152.306 204.086 152.16 204.086C152.013 204.086 151.876 204.123 151.75 204.196C151.623 204.266 151.52 204.371 151.44 204.511C151.363 204.648 151.325 204.811 151.325 205.001C151.325 205.191 151.363 205.358 151.44 205.501C151.52 205.644 151.623 205.754 151.75 205.831C151.88 205.904 152.016 205.941 152.16 205.941C152.306 205.941 152.443 205.904 152.57 205.831C152.696 205.758 152.798 205.651 152.875 205.511C152.955 205.368 152.995 205.201 152.995 205.011ZM156.823 203.636L155.133 207.686H154.543L155.103 206.346L154.018 203.636H154.653L155.428 205.736L156.233 203.636H156.823Z" fill="#252836"/>
<path d="M298.415 204.547C298.415 203.974 298.508 203.527 298.695 203.207C298.882 202.884 299.208 202.722 299.675 202.722C300.138 202.722 300.463 202.884 300.65 203.207C300.837 203.527 300.93 203.974 300.93 204.547C300.93 205.13 300.837 205.584 300.65 205.907C300.463 206.23 300.138 206.392 299.675 206.392C299.208 206.392 298.882 206.23 298.695 205.907C298.508 205.584 298.415 205.13 298.415 204.547ZM300.48 204.547C300.48 204.257 300.46 204.012 300.42 203.812C300.383 203.609 300.305 203.445 300.185 203.322C300.068 203.199 299.898 203.137 299.675 203.137C299.448 203.137 299.275 203.199 299.155 203.322C299.038 203.445 298.96 203.609 298.92 203.812C298.883 204.012 298.865 204.257 298.865 204.547C298.865 204.847 298.883 205.099 298.92 205.302C298.96 205.505 299.038 205.669 299.155 205.792C299.275 205.915 299.448 205.977 299.675 205.977C299.898 205.977 300.068 205.915 300.185 205.792C300.305 205.669 300.383 205.505 300.42 205.302C300.46 205.099 300.48 204.847 300.48 204.547ZM302.165 205.422C302.198 205.612 302.275 205.759 302.395 205.862C302.518 205.965 302.683 206.017 302.89 206.017C303.166 206.017 303.37 205.909 303.5 205.692C303.633 205.475 303.696 205.11 303.69 204.597C303.62 204.747 303.503 204.865 303.34 204.952C303.176 205.035 302.995 205.077 302.795 205.077C302.571 205.077 302.371 205.032 302.195 204.942C302.021 204.849 301.885 204.714 301.785 204.537C301.685 204.36 301.635 204.147 301.635 203.897C301.635 203.54 301.738 203.254 301.945 203.037C302.151 202.817 302.445 202.707 302.825 202.707C303.291 202.707 303.618 202.859 303.805 203.162C303.995 203.465 304.09 203.917 304.09 204.517C304.09 204.937 304.051 205.284 303.975 205.557C303.901 205.83 303.775 206.039 303.595 206.182C303.418 206.325 303.175 206.397 302.865 206.397C302.525 206.397 302.26 206.305 302.07 206.122C301.88 205.939 301.771 205.705 301.745 205.422H302.165ZM302.87 204.692C303.093 204.692 303.276 204.624 303.42 204.487C303.563 204.347 303.635 204.159 303.635 203.922C303.635 203.672 303.565 203.47 303.425 203.317C303.285 203.164 303.088 203.087 302.835 203.087C302.601 203.087 302.415 203.16 302.275 203.307C302.138 203.454 302.07 203.647 302.07 203.887C302.07 204.13 302.138 204.325 302.275 204.472C302.411 204.619 302.61 204.692 302.87 204.692ZM304.974 206.422C304.887 206.422 304.814 206.392 304.754 206.332C304.694 206.272 304.664 206.199 304.664 206.112C304.664 206.025 304.694 205.952 304.754 205.892C304.814 205.832 304.887 205.802 304.974 205.802C305.057 205.802 305.127 205.832 305.184 205.892C305.244 205.952 305.274 206.025 305.274 206.112C305.274 206.199 305.244 206.272 305.184 206.332C305.127 206.392 305.057 206.422 304.974 206.422ZM304.974 204.282C304.887 204.282 304.814 204.252 304.754 204.192C304.694 204.132 304.664 204.059 304.664 203.972C304.664 203.885 304.694 203.812 304.754 203.752C304.814 203.692 304.887 203.662 304.974 203.662C305.057 203.662 305.127 203.692 305.184 203.752C305.244 203.812 305.274 203.885 305.274 203.972C305.274 204.059 305.244 204.132 305.184 204.192C305.127 204.252 305.057 204.282 304.974 204.282ZM305.843 204.547C305.843 203.974 305.937 203.527 306.123 203.207C306.31 202.884 306.637 202.722 307.103 202.722C307.567 202.722 307.892 202.884 308.078 203.207C308.265 203.527 308.358 203.974 308.358 204.547C308.358 205.13 308.265 205.584 308.078 205.907C307.892 206.23 307.567 206.392 307.103 206.392C306.637 206.392 306.31 206.23 306.123 205.907C305.937 205.584 305.843 205.13 305.843 204.547ZM307.908 204.547C307.908 204.257 307.888 204.012 307.848 203.812C307.812 203.609 307.733 203.445 307.613 203.322C307.497 203.199 307.327 203.137 307.103 203.137C306.877 203.137 306.703 203.199 306.583 203.322C306.467 203.445 306.388 203.609 306.348 203.812C306.312 204.012 306.293 204.257 306.293 204.547C306.293 204.847 306.312 205.099 306.348 205.302C306.388 205.505 306.467 205.669 306.583 205.792C306.703 205.915 306.877 205.977 307.103 205.977C307.327 205.977 307.497 205.915 307.613 205.792C307.733 205.669 307.812 205.505 307.848 205.302C307.888 205.099 307.908 204.847 307.908 204.547ZM309.008 204.547C309.008 203.974 309.101 203.527 309.288 203.207C309.475 202.884 309.801 202.722 310.268 202.722C310.731 202.722 311.056 202.884 311.243 203.207C311.43 203.527 311.523 203.974 311.523 204.547C311.523 205.13 311.43 205.584 311.243 205.907C311.056 206.23 310.731 206.392 310.268 206.392C309.801 206.392 309.475 206.23 309.288 205.907C309.101 205.584 309.008 205.13 309.008 204.547ZM311.073 204.547C311.073 204.257 311.053 204.012 311.013 203.812C310.976 203.609 310.898 203.445 310.778 203.322C310.661 203.199 310.491 203.137 310.268 203.137C310.041 203.137 309.868 203.199 309.748 203.322C309.631 203.445 309.553 203.609 309.513 203.812C309.476 204.012 309.458 204.257 309.458 204.547C309.458 204.847 309.476 205.099 309.513 205.302C309.553 205.505 309.631 205.669 309.748 205.792C309.868 205.915 310.041 205.977 310.268 205.977C310.491 205.977 310.661 205.915 310.778 205.792C310.898 205.669 310.976 205.505 311.013 205.302C311.053 205.099 311.073 204.847 311.073 204.547ZM315.506 204.367V204.752H313.511V204.367H315.506ZM317.548 203.192V202.777H318.488V206.392H318.028V203.192H317.548ZM319.184 205.587V205.242L320.939 202.812H321.484V205.192H321.984V205.587H321.484V206.392H321.034V205.587H319.184ZM321.054 203.287L319.709 205.192H321.054V203.287ZM322.684 206.422C322.597 206.422 322.524 206.392 322.464 206.332C322.404 206.272 322.374 206.199 322.374 206.112C322.374 206.025 322.404 205.952 322.464 205.892C322.524 205.832 322.597 205.802 322.684 205.802C322.767 205.802 322.837 205.832 322.894 205.892C322.954 205.952 322.984 206.025 322.984 206.112C322.984 206.199 322.954 206.272 322.894 206.332C322.837 206.392 322.767 206.422 322.684 206.422ZM322.684 204.282C322.597 204.282 322.524 204.252 322.464 204.192C322.404 204.132 322.374 204.059 322.374 203.972C322.374 203.885 322.404 203.812 322.464 203.752C322.524 203.692 322.597 203.662 322.684 203.662C322.767 203.662 322.837 203.692 322.894 203.752C322.954 203.812 322.984 203.885 322.984 203.972C322.984 204.059 322.954 204.132 322.894 204.192C322.837 204.252 322.767 204.282 322.684 204.282ZM323.553 204.547C323.553 203.974 323.647 203.527 323.833 203.207C324.02 202.884 324.347 202.722 324.813 202.722C325.277 202.722 325.602 202.884 325.788 203.207C325.975 203.527 326.068 203.974 326.068 204.547C326.068 205.13 325.975 205.584 325.788 205.907C325.602 206.23 325.277 206.392 324.813 206.392C324.347 206.392 324.02 206.23 323.833 205.907C323.647 205.584 323.553 205.13 323.553 204.547ZM325.618 204.547C325.618 204.257 325.598 204.012 325.558 203.812C325.522 203.609 325.443 203.445 325.323 203.322C325.207 203.199 325.037 203.137 324.813 203.137C324.587 203.137 324.413 203.199 324.293 203.322C324.177 203.445 324.098 203.609 324.058 203.812C324.022 204.012 324.003 204.257 324.003 204.547C324.003 204.847 324.022 205.099 324.058 205.302C324.098 205.505 324.177 205.669 324.293 205.792C324.413 205.915 324.587 205.977 324.813 205.977C325.037 205.977 325.207 205.915 325.323 205.792C325.443 205.669 325.522 205.505 325.558 205.302C325.598 205.099 325.618 204.847 325.618 204.547ZM326.718 204.547C326.718 203.974 326.811 203.527 326.998 203.207C327.185 202.884 327.511 202.722 327.978 202.722C328.441 202.722 328.766 202.884 328.953 203.207C329.14 203.527 329.233 203.974 329.233 204.547C329.233 205.13 329.14 205.584 328.953 205.907C328.766 206.23 328.441 206.392 327.978 206.392C327.511 206.392 327.185 206.23 326.998 205.907C326.811 205.584 326.718 205.13 326.718 204.547ZM328.783 204.547C328.783 204.257 328.763 204.012 328.723 203.812C328.686 203.609 328.608 203.445 328.488 203.322C328.371 203.199 328.201 203.137 327.978 203.137C327.751 203.137 327.578 203.199 327.458 203.322C327.341 203.445 327.263 203.609 327.223 203.812C327.186 204.012 327.168 204.257 327.168 204.547C327.168 204.847 327.186 205.099 327.223 205.302C327.263 205.505 327.341 205.669 327.458 205.792C327.578 205.915 327.751 205.977 327.978 205.977C328.201 205.977 328.371 205.915 328.488 205.792C328.608 205.669 328.686 205.505 328.723 205.302C328.763 205.099 328.783 204.847 328.783 204.547Z" fill="#252836" fill-opacity="0.6"/>
<rect x="121.353" y="261.376" width="288.417" height="62.0252" rx="2" fill="#F4F5F4"/>
<path d="M138.767 285.191L137.943 287.971H137.427L136.843 285.867L136.223 287.971L135.711 287.975L134.923 285.191H135.407L135.983 287.455L136.607 285.191H137.119L137.699 287.443L138.279 285.191H138.767ZM141.183 286.815C141.183 286.898 141.178 286.972 141.167 287.039H139.483C139.497 287.215 139.562 287.356 139.679 287.463C139.797 287.57 139.941 287.623 140.111 287.623C140.357 287.623 140.53 287.52 140.631 287.315H141.123C141.057 287.518 140.935 287.684 140.759 287.815C140.586 287.943 140.37 288.007 140.111 288.007C139.901 288.007 139.711 287.96 139.543 287.867C139.378 287.771 139.247 287.638 139.151 287.467C139.058 287.294 139.011 287.094 139.011 286.867C139.011 286.64 139.057 286.442 139.147 286.271C139.241 286.098 139.37 285.964 139.535 285.871C139.703 285.778 139.895 285.731 140.111 285.731C140.319 285.731 140.505 285.776 140.667 285.867C140.83 285.958 140.957 286.086 141.047 286.251C141.138 286.414 141.183 286.602 141.183 286.815ZM140.707 286.671C140.705 286.503 140.645 286.368 140.527 286.267C140.41 286.166 140.265 286.115 140.091 286.115C139.934 286.115 139.799 286.166 139.687 286.267C139.575 286.366 139.509 286.5 139.487 286.671H140.707ZM141.5 286.859C141.5 286.638 141.545 286.442 141.636 286.271C141.729 286.1 141.855 285.968 142.012 285.875C142.172 285.779 142.349 285.731 142.544 285.731C142.688 285.731 142.829 285.763 142.968 285.827C143.109 285.888 143.221 285.971 143.304 286.075V285.011H143.764V287.971H143.304V287.639C143.229 287.746 143.125 287.834 142.992 287.903C142.861 287.972 142.711 288.007 142.54 288.007C142.348 288.007 142.172 287.959 142.012 287.863C141.855 287.764 141.729 287.628 141.636 287.455C141.545 287.279 141.5 287.08 141.5 286.859ZM143.304 286.867C143.304 286.715 143.272 286.583 143.208 286.471C143.147 286.359 143.065 286.274 142.964 286.215C142.863 286.156 142.753 286.127 142.636 286.127C142.519 286.127 142.409 286.156 142.308 286.215C142.207 286.271 142.124 286.355 142.06 286.467C141.999 286.576 141.968 286.707 141.968 286.859C141.968 287.011 141.999 287.144 142.06 287.259C142.124 287.374 142.207 287.462 142.308 287.523C142.412 287.582 142.521 287.611 142.636 287.611C142.753 287.611 142.863 287.582 142.964 287.523C143.065 287.464 143.147 287.379 143.208 287.267C143.272 287.152 143.304 287.019 143.304 286.867ZM145.495 285.731C145.668 285.731 145.823 285.767 145.959 285.839C146.098 285.911 146.206 286.018 146.283 286.159C146.36 286.3 146.399 286.471 146.399 286.671V287.971H145.947V286.739C145.947 286.542 145.898 286.391 145.799 286.287C145.7 286.18 145.566 286.127 145.395 286.127C145.224 286.127 145.088 286.18 144.987 286.287C144.888 286.391 144.839 286.542 144.839 286.739V287.971H144.383V285.767H144.839V286.019C144.914 285.928 145.008 285.858 145.123 285.807C145.24 285.756 145.364 285.731 145.495 285.731ZM149.021 286.815C149.021 286.898 149.015 286.972 149.005 287.039H147.321C147.334 287.215 147.399 287.356 147.517 287.463C147.634 287.57 147.778 287.623 147.949 287.623C148.194 287.623 148.367 287.52 148.469 287.315H148.961C148.894 287.518 148.773 287.684 148.597 287.815C148.423 287.943 148.207 288.007 147.949 288.007C147.738 288.007 147.549 287.96 147.381 287.867C147.215 287.771 147.085 287.638 146.989 287.467C146.895 287.294 146.849 287.094 146.849 286.867C146.849 286.64 146.894 286.442 146.985 286.271C147.078 286.098 147.207 285.964 147.373 285.871C147.541 285.778 147.733 285.731 147.949 285.731C148.157 285.731 148.342 285.776 148.505 285.867C148.667 285.958 148.794 286.086 148.885 286.251C148.975 286.414 149.021 286.602 149.021 286.815ZM148.545 286.671C148.542 286.503 148.482 286.368 148.365 286.267C148.247 286.166 148.102 286.115 147.929 286.115C147.771 286.115 147.637 286.166 147.525 286.267C147.413 286.366 147.346 286.5 147.325 286.671H148.545ZM150.289 288.007C150.116 288.007 149.96 287.976 149.821 287.915C149.685 287.851 149.577 287.766 149.497 287.659C149.417 287.55 149.375 287.428 149.369 287.295H149.841C149.849 287.388 149.893 287.467 149.973 287.531C150.056 287.592 150.159 287.623 150.281 287.623C150.409 287.623 150.508 287.599 150.577 287.551C150.649 287.5 150.685 287.436 150.685 287.359C150.685 287.276 150.645 287.215 150.565 287.175C150.488 287.135 150.364 287.091 150.193 287.043C150.028 286.998 149.893 286.954 149.789 286.911C149.685 286.868 149.595 286.803 149.517 286.715C149.443 286.627 149.405 286.511 149.405 286.367C149.405 286.25 149.44 286.143 149.509 286.047C149.579 285.948 149.677 285.871 149.805 285.815C149.936 285.759 150.085 285.731 150.253 285.731C150.504 285.731 150.705 285.795 150.857 285.923C151.012 286.048 151.095 286.22 151.105 286.439H150.649C150.641 286.34 150.601 286.262 150.529 286.203C150.457 286.144 150.36 286.115 150.237 286.115C150.117 286.115 150.025 286.138 149.961 286.183C149.897 286.228 149.865 286.288 149.865 286.363C149.865 286.422 149.887 286.471 149.929 286.511C149.972 286.551 150.024 286.583 150.085 286.607C150.147 286.628 150.237 286.656 150.357 286.691C150.517 286.734 150.648 286.778 150.749 286.823C150.853 286.866 150.943 286.93 151.017 287.015C151.092 287.1 151.131 287.214 151.133 287.355C151.133 287.48 151.099 287.592 151.029 287.691C150.96 287.79 150.861 287.867 150.733 287.923C150.608 287.979 150.46 288.007 150.289 288.007ZM151.494 286.859C151.494 286.638 151.54 286.442 151.63 286.271C151.724 286.1 151.849 285.968 152.006 285.875C152.166 285.779 152.344 285.731 152.538 285.731C152.682 285.731 152.824 285.763 152.962 285.827C153.104 285.888 153.216 285.971 153.298 286.075V285.011H153.758V287.971H153.298V287.639C153.224 287.746 153.12 287.834 152.986 287.903C152.856 287.972 152.705 288.007 152.534 288.007C152.342 288.007 152.166 287.959 152.006 287.863C151.849 287.764 151.724 287.628 151.63 287.455C151.54 287.279 151.494 287.08 151.494 286.859ZM153.298 286.867C153.298 286.715 153.266 286.583 153.202 286.471C153.141 286.359 153.06 286.274 152.958 286.215C152.857 286.156 152.748 286.127 152.63 286.127C152.513 286.127 152.404 286.156 152.302 286.215C152.201 286.271 152.118 286.355 152.054 286.467C151.993 286.576 151.962 286.707 151.962 286.859C151.962 287.011 151.993 287.144 152.054 287.259C152.118 287.374 152.201 287.462 152.302 287.523C152.406 287.582 152.516 287.611 152.63 287.611C152.748 287.611 152.857 287.582 152.958 287.523C153.06 287.464 153.141 287.379 153.202 287.267C153.266 287.152 153.298 287.019 153.298 286.867ZM154.225 286.859C154.225 286.638 154.27 286.442 154.361 286.271C154.454 286.1 154.58 285.968 154.737 285.875C154.897 285.779 155.073 285.731 155.265 285.731C155.438 285.731 155.589 285.766 155.717 285.835C155.848 285.902 155.952 285.986 156.029 286.087V285.767H156.489V287.971H156.029V287.643C155.952 287.747 155.846 287.834 155.713 287.903C155.58 287.972 155.428 288.007 155.257 288.007C155.068 288.007 154.894 287.959 154.737 287.863C154.58 287.764 154.454 287.628 154.361 287.455C154.27 287.279 154.225 287.08 154.225 286.859ZM156.029 286.867C156.029 286.715 155.997 286.583 155.933 286.471C155.872 286.359 155.79 286.274 155.689 286.215C155.588 286.156 155.478 286.127 155.361 286.127C155.244 286.127 155.134 286.156 155.033 286.215C154.932 286.271 154.849 286.355 154.785 286.467C154.724 286.576 154.693 286.707 154.693 286.859C154.693 287.011 154.724 287.144 154.785 287.259C154.849 287.374 154.932 287.462 155.033 287.523C155.137 287.582 155.246 287.611 155.361 287.611C155.478 287.611 155.588 287.582 155.689 287.523C155.79 287.464 155.872 287.379 155.933 287.267C155.997 287.152 156.029 287.019 156.029 286.867ZM159.092 285.767L157.74 289.007H157.268L157.716 287.935L156.848 285.767H157.356L157.976 287.447L158.62 285.767H159.092Z" fill="#252836"/>
<path d="M302.274 278.073V277.741H303.026V280.633H302.658V278.073H302.274ZM303.671 279.157C303.671 278.698 303.746 278.341 303.895 278.085C304.045 277.826 304.306 277.697 304.679 277.697C305.05 277.697 305.31 277.826 305.459 278.085C305.609 278.341 305.683 278.698 305.683 279.157C305.683 279.623 305.609 279.986 305.459 280.245C305.31 280.503 305.05 280.633 304.679 280.633C304.306 280.633 304.045 280.503 303.895 280.245C303.746 279.986 303.671 279.623 303.671 279.157ZM305.323 279.157C305.323 278.925 305.307 278.729 305.275 278.569C305.246 278.406 305.183 278.275 305.087 278.177C304.994 278.078 304.858 278.029 304.679 278.029C304.498 278.029 304.359 278.078 304.263 278.177C304.17 278.275 304.107 278.406 304.075 278.569C304.046 278.729 304.031 278.925 304.031 279.157C304.031 279.397 304.046 279.598 304.075 279.761C304.107 279.923 304.17 280.054 304.263 280.153C304.359 280.251 304.498 280.301 304.679 280.301C304.858 280.301 304.994 280.251 305.087 280.153C305.183 280.054 305.246 279.923 305.275 279.761C305.307 279.598 305.323 279.397 305.323 279.157ZM306.379 280.657C306.31 280.657 306.251 280.633 306.203 280.585C306.155 280.537 306.131 280.478 306.131 280.409C306.131 280.339 306.155 280.281 306.203 280.233C306.251 280.185 306.31 280.161 306.379 280.161C306.446 280.161 306.502 280.185 306.547 280.233C306.595 280.281 306.619 280.339 306.619 280.409C306.619 280.478 306.595 280.537 306.547 280.585C306.502 280.633 306.446 280.657 306.379 280.657ZM306.379 278.945C306.31 278.945 306.251 278.921 306.203 278.873C306.155 278.825 306.131 278.766 306.131 278.697C306.131 278.627 306.155 278.569 306.203 278.521C306.251 278.473 306.31 278.449 306.379 278.449C306.446 278.449 306.502 278.473 306.547 278.521C306.595 278.569 306.619 278.627 306.619 278.697C306.619 278.766 306.595 278.825 306.547 278.873C306.502 278.921 306.446 278.945 306.379 278.945ZM307.074 279.157C307.074 278.698 307.149 278.341 307.298 278.085C307.448 277.826 307.709 277.697 308.082 277.697C308.453 277.697 308.713 277.826 308.862 278.085C309.012 278.341 309.086 278.698 309.086 279.157C309.086 279.623 309.012 279.986 308.862 280.245C308.713 280.503 308.453 280.633 308.082 280.633C307.709 280.633 307.448 280.503 307.298 280.245C307.149 279.986 307.074 279.623 307.074 279.157ZM308.726 279.157C308.726 278.925 308.71 278.729 308.678 278.569C308.649 278.406 308.586 278.275 308.49 278.177C308.397 278.078 308.261 278.029 308.082 278.029C307.901 278.029 307.762 278.078 307.666 278.177C307.573 278.275 307.51 278.406 307.478 278.569C307.449 278.729 307.434 278.925 307.434 279.157C307.434 279.397 307.449 279.598 307.478 279.761C307.51 279.923 307.573 280.054 307.666 280.153C307.762 280.251 307.901 280.301 308.082 280.301C308.261 280.301 308.397 280.251 308.49 280.153C308.586 280.054 308.649 279.923 308.678 279.761C308.71 279.598 308.726 279.397 308.726 279.157ZM309.606 279.157C309.606 278.698 309.681 278.341 309.83 278.085C309.98 277.826 310.241 277.697 310.614 277.697C310.985 277.697 311.245 277.826 311.394 278.085C311.544 278.341 311.618 278.698 311.618 279.157C311.618 279.623 311.544 279.986 311.394 280.245C311.245 280.503 310.985 280.633 310.614 280.633C310.241 280.633 309.98 280.503 309.83 280.245C309.681 279.986 309.606 279.623 309.606 279.157ZM311.258 279.157C311.258 278.925 311.242 278.729 311.21 278.569C311.181 278.406 311.118 278.275 311.022 278.177C310.929 278.078 310.793 278.029 310.614 278.029C310.433 278.029 310.294 278.078 310.198 278.177C310.105 278.275 310.042 278.406 310.01 278.569C309.981 278.729 309.966 278.925 309.966 279.157C309.966 279.397 309.981 279.598 310.01 279.761C310.042 279.923 310.105 280.054 310.198 280.153C310.294 280.251 310.433 280.301 310.614 280.301C310.793 280.301 310.929 280.251 311.022 280.153C311.118 280.054 311.181 279.923 311.21 279.761C311.242 279.598 311.258 279.397 311.258 279.157ZM314.804 279.013V279.321H313.208V279.013H314.804ZM316.438 278.073V277.741H317.19V280.633H316.822V278.073H316.438ZM319.615 278.025L318.503 280.633H318.135L319.263 278.061H317.719V277.749H319.615V278.025ZM320.215 280.657C320.145 280.657 320.087 280.633 320.039 280.585C319.991 280.537 319.967 280.478 319.967 280.409C319.967 280.339 319.991 280.281 320.039 280.233C320.087 280.185 320.145 280.161 320.215 280.161C320.281 280.161 320.337 280.185 320.383 280.233C320.431 280.281 320.455 280.339 320.455 280.409C320.455 280.478 320.431 280.537 320.383 280.585C320.337 280.633 320.281 280.657 320.215 280.657ZM320.215 278.945C320.145 278.945 320.087 278.921 320.039 278.873C319.991 278.825 319.967 278.766 319.967 278.697C319.967 278.627 319.991 278.569 320.039 278.521C320.087 278.473 320.145 278.449 320.215 278.449C320.281 278.449 320.337 278.473 320.383 278.521C320.431 278.569 320.455 278.627 320.455 278.697C320.455 278.766 320.431 278.825 320.383 278.873C320.337 278.921 320.281 278.945 320.215 278.945ZM320.91 279.157C320.91 278.698 320.985 278.341 321.134 278.085C321.284 277.826 321.545 277.697 321.918 277.697C322.289 277.697 322.549 277.826 322.698 278.085C322.848 278.341 322.922 278.698 322.922 279.157C322.922 279.623 322.848 279.986 322.698 280.245C322.549 280.503 322.289 280.633 321.918 280.633C321.545 280.633 321.284 280.503 321.134 280.245C320.985 279.986 320.91 279.623 320.91 279.157ZM322.562 279.157C322.562 278.925 322.546 278.729 322.514 278.569C322.485 278.406 322.422 278.275 322.326 278.177C322.233 278.078 322.097 278.029 321.918 278.029C321.737 278.029 321.598 278.078 321.502 278.177C321.409 278.275 321.346 278.406 321.314 278.569C321.285 278.729 321.27 278.925 321.27 279.157C321.27 279.397 321.285 279.598 321.314 279.761C321.346 279.923 321.409 280.054 321.502 280.153C321.598 280.251 321.737 280.301 321.918 280.301C322.097 280.301 322.233 280.251 322.326 280.153C322.422 280.054 322.485 279.923 322.514 279.761C322.546 279.598 322.562 279.397 322.562 279.157ZM323.442 279.157C323.442 278.698 323.517 278.341 323.666 278.085C323.815 277.826 324.077 277.697 324.45 277.697C324.821 277.697 325.081 277.826 325.23 278.085C325.379 278.341 325.454 278.698 325.454 279.157C325.454 279.623 325.379 279.986 325.23 280.245C325.081 280.503 324.821 280.633 324.45 280.633C324.077 280.633 323.815 280.503 323.666 280.245C323.517 279.986 323.442 279.623 323.442 279.157ZM325.094 279.157C325.094 278.925 325.078 278.729 325.046 278.569C325.017 278.406 324.954 278.275 324.858 278.177C324.765 278.078 324.629 278.029 324.45 278.029C324.269 278.029 324.13 278.078 324.034 278.177C323.941 278.275 323.878 278.406 323.846 278.569C323.817 278.729 323.802 278.925 323.802 279.157C323.802 279.397 323.817 279.598 323.846 279.761C323.878 279.923 323.941 280.054 324.034 280.153C324.13 280.251 324.269 280.301 324.45 280.301C324.629 280.301 324.765 280.251 324.858 280.153C324.954 280.054 325.017 279.923 325.046 279.761C325.078 279.598 325.094 279.397 325.094 279.157Z" fill="#252836" fill-opacity="0.6"/>
</svg>
