<svg width="500" height="500" viewBox="0 0 98 82" fill="none" xmlns="http://www.w3.org/2000/svg"><path fill="#E62129" d="M0 43.512h29.564V82H0z"/><mask id="a" style="mask-type:alpha" maskUnits="userSpaceOnUse" x="0" y="43" width="30" height="39"><path fill="#C4C4C4" d="M0 43.512h29.564V82H0z"/></mask><g mask="url(#a)" fill="#F4F5F5" stroke="#F4F5F5" stroke-linecap="round" stroke-linejoin="round"><ellipse cx="15.1" cy="69.473" rx="7.46" ry="7.486"/><path fill-rule="evenodd" clip-rule="evenodd" d="M2.957 81.887a3.48 3.48 0 0 1 .343-1.52c.715-1.434 2.73-2.194 4.402-2.538a26.123 26.123 0 0 1 3.658-.516c2.277-.201 4.568-.201 6.845 0 1.23.086 2.452.259 3.658.516 1.672.344 3.687 1.032 4.402 2.538a3.567 3.567 0 0 1 0 3.054c-.715 1.506-2.73 2.195-4.402 2.524a24.457 24.457 0 0 1-3.658.531 40.169 40.169 0 0 1-5.573.086c-.429 0-.843 0-1.272-.086a24.01 24.01 0 0 1-3.644-.53c-1.686-.33-3.687-1.019-4.416-2.525a3.58 3.58 0 0 1-.343-1.534Z"/></g><path fill="#E62129" d="M0 .61h29.564v38.488H0z"/><mask id="b" style="mask-type:alpha" maskUnits="userSpaceOnUse" x="0" y="0" width="30" height="40"><path fill="#C4C4C4" d="M0 .61h29.564v38.488H0z"/></mask><g mask="url(#b)" fill="#F4F5F5" stroke="#F4F5F5" stroke-linecap="round" stroke-linejoin="round"><ellipse cx="15.1" cy="26.571" rx="7.46" ry="7.486"/><path fill-rule="evenodd" clip-rule="evenodd" d="M2.957 38.985a3.48 3.48 0 0 1 .343-1.52c.715-1.434 2.73-2.194 4.402-2.538a26.123 26.123 0 0 1 3.658-.517c2.277-.2 4.568-.2 6.845 0 1.23.087 2.452.26 3.658.517 1.672.344 3.687 1.032 4.402 2.538a3.567 3.567 0 0 1 0 3.054c-.715 1.506-2.73 2.194-4.402 2.524a24.457 24.457 0 0 1-3.658.53 40.169 40.169 0 0 1-5.573.087c-.429 0-.843 0-1.272-.086a24.01 24.01 0 0 1-3.644-.53c-1.686-.33-3.687-1.019-4.416-2.525a3.58 3.58 0 0 1-.343-1.534Z"/></g><path fill="#FF9500" d="M34.204.61h29.564v38.488H34.204z"/><mask id="c" style="mask-type:alpha" maskUnits="userSpaceOnUse" x="34" y="0" width="30" height="40"><path fill="#C4C4C4" d="M34.204.61h29.564v38.488H34.204z"/></mask><g mask="url(#c)" fill="#F4F5F5" stroke="#F4F5F5" stroke-linecap="round" stroke-linejoin="round"><ellipse cx="49.304" cy="26.571" rx="7.46" ry="7.486"/><path fill-rule="evenodd" clip-rule="evenodd" d="M37.161 38.985a3.48 3.48 0 0 1 .343-1.52c.715-1.434 2.73-2.194 4.402-2.538a26.123 26.123 0 0 1 3.658-.517c2.277-.2 4.568-.2 6.845 0 1.23.087 2.453.26 3.659.517 1.672.344 3.687 1.032 4.401 2.538a3.568 3.568 0 0 1 0 3.054c-.715 1.506-2.73 2.194-4.401 2.524a24.457 24.457 0 0 1-3.659.53 40.169 40.169 0 0 1-5.573.087c-.429 0-.843 0-1.272-.086a24.01 24.01 0 0 1-3.644-.53c-1.686-.33-3.687-1.019-4.416-2.525a3.58 3.58 0 0 1-.343-1.534Z"/></g><path fill="#E62129" d="M68.436.61H98v38.488H68.436z"/><mask id="d" style="mask-type:alpha" maskUnits="userSpaceOnUse" x="68" y="0" width="30" height="40"><path fill="#C4C4C4" d="M68.436.61H98v38.488H68.436z"/></mask><g mask="url(#d)" fill="#F4F5F5" stroke="#F4F5F5" stroke-linecap="round" stroke-linejoin="round"><ellipse cx="83.537" cy="26.571" rx="7.46" ry="7.486"/><path fill-rule="evenodd" clip-rule="evenodd" d="M71.394 38.985a3.48 3.48 0 0 1 .343-1.52c.714-1.434 2.73-2.194 4.401-2.538a26.123 26.123 0 0 1 3.658-.517c2.278-.2 4.568-.2 6.846 0 1.23.087 2.452.26 3.658.517 1.672.344 3.687 1.032 4.401 2.538a3.568 3.568 0 0 1 0 3.054c-.714 1.506-2.729 2.194-4.4 2.524a24.46 24.46 0 0 1-3.66.53 40.17 40.17 0 0 1-5.573.087c-.428 0-.843 0-1.272-.086a24.012 24.012 0 0 1-3.644-.53c-1.686-.33-3.686-1.019-4.415-2.525a3.58 3.58 0 0 1-.343-1.534Z"/></g><path fill="#E62129" d="M34.204 43.512h29.564V82H34.204z"/><mask id="e" style="mask-type:alpha" maskUnits="userSpaceOnUse" x="34" y="43" width="30" height="39"><path fill="#C4C4C4" d="M34.204 43.512h29.564V82H34.204z"/></mask><g mask="url(#e)" fill="#F4F5F5" stroke="#F4F5F5" stroke-linecap="round" stroke-linejoin="round"><ellipse cx="49.304" cy="69.473" rx="7.46" ry="7.486"/><path fill-rule="evenodd" clip-rule="evenodd" d="M37.161 81.887a3.48 3.48 0 0 1 .343-1.52c.715-1.434 2.73-2.194 4.402-2.538a26.123 26.123 0 0 1 3.658-.516c2.277-.201 4.568-.201 6.845 0 1.23.086 2.453.259 3.659.516 1.672.344 3.687 1.032 4.401 2.538a3.567 3.567 0 0 1 0 3.054c-.715 1.506-2.73 2.195-4.401 2.524a24.457 24.457 0 0 1-3.659.531 40.169 40.169 0 0 1-5.573.086c-.429 0-.843 0-1.272-.086a24.01 24.01 0 0 1-3.644-.53c-1.686-.33-3.687-1.019-4.416-2.525a3.58 3.58 0 0 1-.343-1.534Z"/></g><path fill="#E62129" d="M68.436 43.512H98V82H68.436z"/><mask id="f" style="mask-type:alpha" maskUnits="userSpaceOnUse" x="68" y="43" width="30" height="39"><path fill="#C4C4C4" d="M68.436 43.512H98V82H68.436z"/></mask><g mask="url(#f)" fill="#F4F5F5" stroke="#F4F5F5" stroke-linecap="round" stroke-linejoin="round"><ellipse cx="83.537" cy="69.473" rx="7.46" ry="7.486"/><path fill-rule="evenodd" clip-rule="evenodd" d="M71.394 81.887a3.48 3.48 0 0 1 .343-1.52c.714-1.434 2.73-2.194 4.401-2.538a26.123 26.123 0 0 1 3.658-.516c2.278-.201 4.568-.201 6.846 0 1.23.086 2.452.259 3.658.516 1.672.344 3.687 1.032 4.401 2.538a3.567 3.567 0 0 1 0 3.054c-.714 1.506-2.729 2.195-4.4 2.524a24.46 24.46 0 0 1-3.66.531 40.17 40.17 0 0 1-5.573.086c-.428 0-.843 0-1.272-.086a24.012 24.012 0 0 1-3.644-.53c-1.686-.33-3.686-1.019-4.415-2.525a3.58 3.58 0 0 1-.343-1.534Z"/></g></svg>