<svg width="500" height="500" viewBox="0 0 128 95" fill="none" xmlns="http://www.w3.org/2000/svg"><rect width="124" height="94.24" rx="4" fill="#EAECEC"/><rect x="4.96" y="4.96" width="114.08" height="43.4" rx="4" fill="#DFE2E2"/><g filter="url(#a)"><rect x="5" y="55" width="114.08" height="29.76" rx="4" fill="#E62129"/></g><path d="M35.856 66.812v2.94c0 .408-.118.726-.354.954-.236.224-.552.336-.948.336-.4 0-.724-.116-.972-.348-.244-.232-.366-.556-.366-.972h.84c.004.18.046.32.126.42.084.1.204.15.36.15.152 0 .268-.048.348-.144a.6.6 0 0 0 .12-.396v-2.94h.846Zm2.486 4.242c-.32 0-.608-.07-.864-.21a1.575 1.575 0 0 1-.606-.606 1.827 1.827 0 0 1-.216-.9c0-.34.074-.64.222-.9.152-.26.358-.46.618-.6.26-.144.55-.216.87-.216.32 0 .61.072.87.216.26.14.464.34.612.6.152.26.228.56.228.9 0 .34-.078.64-.234.9-.152.26-.36.462-.624.606-.26.14-.552.21-.876.21Zm0-.732a.82.82 0 0 0 .75-.444c.08-.148.12-.328.12-.54 0-.316-.084-.558-.252-.726a.804.804 0 0 0-.606-.258.804.804 0 0 0-.606.258c-.16.168-.24.41-.24.726s.078.56.234.732c.16.168.36.252.6.252Zm2.806-3.042a.529.529 0 0 1-.372-.138.481.481 0 0 1-.144-.354c0-.14.048-.256.144-.348a.516.516 0 0 1 .372-.144c.148 0 .27.048.366.144.1.092.15.208.15.348 0 .14-.05.258-.15.354a.508.508 0 0 1-.366.138Zm.414.396V71h-.84v-3.324h.84Zm2.702-.048c.396 0 .716.126.96.378.244.248.366.596.366 1.044V71h-.84v-1.836c0-.264-.066-.466-.198-.606-.132-.144-.312-.216-.54-.216-.232 0-.416.072-.552.216-.132.14-.198.342-.198.606V71h-.84v-3.324h.84v.414c.112-.144.254-.256.426-.336a1.32 1.32 0 0 1 .576-.126Zm3.398 1.698c0-.336.066-.634.199-.894.136-.26.318-.46.546-.6.232-.14.49-.21.774-.21a1.337 1.337 0 0 1 1.098.528v-.474h.845V71h-.846v-.486a1.27 1.27 0 0 1-.45.39c-.188.1-.406.15-.654.15-.28 0-.535-.072-.767-.216a1.546 1.546 0 0 1-.546-.606 2 2 0 0 1-.198-.906Zm2.617.012c0-.204-.04-.378-.12-.522a.82.82 0 0 0-.325-.336.85.85 0 0 0-.438-.12.85.85 0 0 0-.755.45c-.08.144-.12.316-.12.516s.04.376.12.528a.921.921 0 0 0 .324.342c.135.08.28.12.431.12a.884.884 0 0 0 .438-.114.873.873 0 0 0 .324-.336c.08-.148.12-.324.12-.528Zm2.968 1.716c-.272 0-.516-.048-.732-.144a1.343 1.343 0 0 1-.516-.402 1.023 1.023 0 0 1-.204-.558h.846a.464.464 0 0 0 .186.318.67.67 0 0 0 .414.126c.16 0 .284-.032.372-.096a.29.29 0 0 0 .138-.246c0-.108-.056-.188-.168-.24a2.787 2.787 0 0 0-.522-.18 4.598 4.598 0 0 1-.612-.186 1.088 1.088 0 0 1-.408-.294c-.112-.132-.168-.31-.168-.534 0-.184.052-.352.156-.504.108-.152.26-.272.456-.36.2-.088.434-.132.702-.132.396 0 .712.1.948.3.236.196.366.462.39.798h-.804a.422.422 0 0 0-.168-.312.59.59 0 0 0-.39-.12.635.635 0 0 0-.354.084.27.27 0 0 0-.12.234c0 .112.056.198.168.258.112.056.286.114.522.174.24.06.438.122.594.186.156.064.29.164.402.3.116.132.176.308.18.528a.87.87 0 0 1-.162.516 1.044 1.044 0 0 1-.456.36 1.742 1.742 0 0 1-.69.126Zm3.913-3.774a.529.529 0 0 1-.372-.138.481.481 0 0 1-.144-.354c0-.14.048-.256.144-.348a.516.516 0 0 1 .372-.144c.148 0 .27.048.366.144.1.092.15.208.15.348 0 .14-.05.258-.15.354a.508.508 0 0 1-.366.138Zm.414.396V71h-.84v-3.324h.84Zm2.702-.048c.396 0 .716.126.96.378.244.248.366.596.366 1.044V71h-.84v-1.836c0-.264-.066-.466-.198-.606-.132-.144-.312-.216-.54-.216-.232 0-.416.072-.552.216-.132.14-.198.342-.198.606V71h-.84v-3.324h.84v.414c.112-.144.254-.256.426-.336a1.32 1.32 0 0 1 .576-.126Zm3.133.738v1.608c0 .112.026.194.078.246.056.048.148.072.276.072h.39V71h-.528c-.708 0-1.062-.344-1.062-1.032v-1.602h-.396v-.69h.396v-.822h.846v.822h.744v.69h-.744Zm4.468.9c0 .12-.008.228-.024.324h-2.43c.02.24.104.428.252.564.148.136.33.204.546.204.312 0 .534-.134.666-.402h.906a1.53 1.53 0 0 1-.552.792c-.272.204-.606.306-1.002.306-.32 0-.608-.07-.864-.21a1.546 1.546 0 0 1-.594-.606c-.14-.26-.21-.56-.21-.9 0-.344.07-.646.21-.906.14-.26.336-.46.588-.6.252-.14.542-.21.87-.21.316 0 .598.068.846.204.252.136.446.33.582.582.14.248.21.534.21.858Zm-.87-.24a.657.657 0 0 0-.234-.516.821.821 0 0 0-.558-.198.766.766 0 0 0-.528.192.825.825 0 0 0-.258.522h1.578Zm2.353-.834c.108-.176.248-.314.42-.414.176-.1.376-.15.6-.15v.882h-.222c-.264 0-.464.062-.6.186-.132.124-.198.34-.198.648V71h-.84v-3.324h.84v.516Zm2.456-.036a1.35 1.35 0 0 1 1.098-.534 1.438 1.438 0 0 1 1.314.81c.136.256.204.554.204.894 0 .34-.068.642-.204.906-.132.26-.314.462-.546.606a1.408 1.408 0 0 1-.768.216c-.244 0-.46-.05-.648-.15a1.393 1.393 0 0 1-.45-.378v2.058h-.84v-4.908h.84v.48Zm1.758 1.17c0-.2-.042-.372-.126-.516a.85.85 0 0 0-1.188-.33.874.874 0 0 0-.324.336c-.08.148-.12.322-.12.522s.04.374.12.522a.921.921 0 0 0 .324.342c.136.076.28.114.432.114a.862.862 0 0 0 .756-.462c.084-.148.126-.324.126-.528Zm2.338-1.134c.108-.176.248-.314.42-.414.176-.1.376-.15.6-.15v.882h-.222c-.264 0-.464.062-.6.186-.132.124-.198.34-.198.648V71h-.84v-3.324h.84v.516Zm4.706 1.074c0 .12-.008.228-.024.324h-2.43c.02.24.104.428.252.564.148.136.33.204.546.204.312 0 .534-.134.666-.402h.906a1.53 1.53 0 0 1-.552.792c-.272.204-.606.306-1.002.306-.32 0-.608-.07-.864-.21a1.546 1.546 0 0 1-.594-.606c-.14-.26-.21-.56-.21-.9 0-.344.07-.646.21-.906.14-.26.336-.46.588-.6.252-.14.542-.21.87-.21.316 0 .598.068.846.204.252.136.446.33.582.582.14.248.21.534.21.858Zm-.87-.24a.657.657 0 0 0-.234-.516.821.821 0 0 0-.558-.198.766.766 0 0 0-.528.192.825.825 0 0 0-.258.522h1.578Zm2.491-.66v1.608c0 .112.026.194.078.246.056.048.148.072.276.072h.39V71h-.528c-.708 0-1.062-.344-1.062-1.032v-1.602h-.396v-.69h.396v-.822h.846v.822h.744v.69h-.744Zm4.468.9c0 .12-.008.228-.024.324h-2.43c.02.24.104.428.252.564.148.136.33.204.546.204.312 0 .534-.134.666-.402h.906a1.53 1.53 0 0 1-.552.792c-.272.204-.606.306-1.002.306-.32 0-.608-.07-.864-.21a1.546 1.546 0 0 1-.594-.606c-.14-.26-.21-.56-.21-.9 0-.344.07-.646.21-.906.14-.26.336-.46.588-.6.252-.14.542-.21.87-.21.316 0 .598.068.846.204.252.136.446.33.582.582.14.248.21.534.21.858Zm-.87-.24a.657.657 0 0 0-.234-.516.821.821 0 0 0-.558-.198.766.766 0 0 0-.528.192.825.825 0 0 0-.258.522h1.578Zm2.353-.834c.109-.176.249-.314.42-.414.177-.1.377-.15.6-.15v.882h-.221c-.264 0-.465.062-.6.186-.132.124-.198.34-.198.648V71h-.84v-3.324h.84v.516Z" fill="#FBFEFD"/><defs><filter id="a" x="1" y="53" width="126.08" height="41.76" filterUnits="userSpaceOnUse" color-interpolation-filters="sRGB"><feFlood flood-opacity="0" result="BackgroundImageFix"/><feColorMatrix in="SourceAlpha" values="0 0 0 0 0 0 0 0 0 0 0 0 0 0 0 0 0 0 127 0" result="hardAlpha"/><feOffset dx="2" dy="4"/><feGaussianBlur stdDeviation="3"/><feComposite in2="hardAlpha" operator="out"/><feColorMatrix values="0 0 0 0 0.145098 0 0 0 0 0.156863 0 0 0 0 0.211765 0 0 0 0.08 0"/><feBlend in2="BackgroundImageFix" result="effect1_dropShadow_407_2238"/><feBlend in="SourceGraphic" in2="effect1_dropShadow_407_2238" result="shape"/></filter></defs></svg>