<svg width="500" height="500" viewBox="0 0 141 81" fill="none" xmlns="http://www.w3.org/2000/svg"><rect width="141" height="81" rx="4" fill="#EAECEC"/><rect x="6.14" y="30.166" width="128.72" height="19.533" rx="1.5" fill="#FBFEFD" stroke="#E62129"/><path d="M11.8 39.597c0-.918.141-1.63.424-2.136.282-.507.79-.76 1.52-.76s1.237.253 1.52.76c.282.506.424 1.218.424 2.136 0 .933-.142 1.656-.424 2.168-.283.512-.79.768-1.52.768-.736 0-1.246-.256-1.528-.768-.278-.512-.416-1.235-.416-2.168Zm3.336 0c0-.496-.035-.915-.104-1.256-.07-.342-.206-.616-.408-.824-.203-.208-.496-.312-.88-.312s-.678.104-.88.312c-.203.208-.339.482-.408.824-.07.341-.104.76-.104 1.256 0 .512.034.941.104 1.288.07.341.205.616.408.824.202.208.496.312.88.312s.677-.104.88-.312c.202-.208.338-.483.408-.824.07-.347.104-.776.104-1.288Zm2.745-.056c-.33-.107-.584-.275-.76-.504a1.355 1.355 0 0 1-.256-.832c0-.288.072-.544.216-.768.15-.23.366-.408.648-.536.283-.134.622-.2 1.016-.2.395 0 .734.066 1.016.2.283.128.496.306.64.536.15.224.224.48.224.768 0 .32-.088.597-.264.832-.17.234-.42.402-.752.504.363.09.648.264.856.52.208.256.312.568.312.936 0 .341-.085.64-.256.896a1.62 1.62 0 0 1-.712.584 2.541 2.541 0 0 1-1.064.208c-.405 0-.762-.07-1.072-.208a1.683 1.683 0 0 1-.712-.584 1.615 1.615 0 0 1-.248-.896c0-.368.104-.68.312-.936.208-.256.494-.43.856-.52Zm2.2-1.272c0-.352-.12-.624-.36-.816-.24-.192-.565-.288-.976-.288-.41 0-.736.096-.976.288-.24.186-.36.458-.36.816 0 .33.123.594.368.792.246.197.568.296.968.296s.723-.099.968-.296a.964.964 0 0 0 .368-.792Zm-1.336 1.52c-.437 0-.794.098-1.072.296-.277.197-.416.496-.416.896 0 .384.134.685.4.904.267.218.63.328 1.088.328.454 0 .814-.11 1.08-.328.267-.224.4-.526.4-.904 0-.395-.138-.691-.416-.888-.272-.203-.626-.304-1.064-.304Zm3.8 1.2c.06.346.193.613.4.8.209.186.494.28.857.28.501 0 .872-.195 1.112-.584.245-.395.357-1.046.336-1.952a1.281 1.281 0 0 1-.584.696 1.897 1.897 0 0 1-.976.248c-.56 0-1.011-.168-1.352-.504-.336-.336-.504-.803-.504-1.4 0-.358.069-.68.208-.968.138-.288.349-.515.632-.68.282-.166.629-.248 1.04-.248.757 0 1.285.248 1.584.744.298.49.448 1.197.448 2.12 0 .997-.15 1.746-.448 2.248-.294.501-.8.752-1.52.752-.528 0-.939-.142-1.232-.424-.294-.288-.467-.664-.52-1.128h.52Zm1.233-.992c.25 0 .48-.051.688-.152.213-.107.384-.262.512-.464.128-.203.192-.446.192-.728 0-.438-.126-.798-.376-1.08-.246-.283-.6-.424-1.064-.424-.411 0-.742.128-.992.384-.246.256-.368.597-.368 1.024 0 .448.122.8.368 1.056.245.256.592.384 1.04.384Z" fill="#252836" fill-opacity=".5"/><path d="M30.02 43.42h-.912V36.11h.912v7.312Z" fill="#252836"/><rect x="5.64" y="5" width="129.72" height="20.533" rx="2" fill="#FAFAFA"/><path d="M14.912 16.76H12.48L12.032 18h-.768l2.016-5.544h.84L16.128 18h-.768l-.448-1.24Zm-.208-.592-1.008-2.816-1.008 2.816h2.016Zm3.07-1.736a1.72 1.72 0 0 1 .657-.64c.288-.165.616-.248.984-.248a1.976 1.976 0 0 1 1.808 1.072c.18.336.272.728.272 1.176 0 .443-.091.837-.272 1.184a2.001 2.001 0 0 1-1.808 1.096c-.38 0-.712-.083-1-.248a1.694 1.694 0 0 1-.64-.632V18h-.728v-5.92h.728v2.352Zm2.977 1.36c0-.33-.067-.619-.2-.864a1.377 1.377 0 0 0-.544-.56 1.473 1.473 0 0 0-.744-.192 1.455 1.455 0 0 0-1.288.768c-.134.245-.2.53-.2.856 0 .33.066.621.2.872.138.245.32.435.544.568.229.128.477.192.744.192.272 0 .52-.064.744-.192.229-.133.41-.323.544-.568.133-.25.2-.544.2-.88Zm2.47-1.464c.128-.25.31-.445.544-.584.24-.139.53-.208.872-.208v.752h-.192c-.816 0-1.224.443-1.224 1.328V18h-.728v-4.384h.728v.712Zm2.024 1.464c0-.448.09-.84.272-1.176.182-.341.43-.605.744-.792.32-.187.675-.28 1.064-.28.384 0 .718.083 1 .248.283.165.494.373.632.624v-.8h.736V18h-.736v-.816c-.144.256-.36.47-.648.64a1.93 1.93 0 0 1-.992.248c-.39 0-.741-.096-1.056-.288a2.02 2.02 0 0 1-.744-.808 2.517 2.517 0 0 1-.272-1.184Zm3.712.008c0-.33-.066-.619-.2-.864a1.376 1.376 0 0 0-.544-.56 1.428 1.428 0 0 0-.744-.2c-.272 0-.52.064-.744.192a1.394 1.394 0 0 0-.536.56c-.133.245-.2.533-.2.864 0 .336.067.63.2.88.134.245.312.435.536.568.224.128.472.192.744.192s.52-.064.744-.192c.23-.133.41-.323.544-.568.134-.25.2-.541.2-.872Zm4.182-2.264c.331 0 .63.072.896.216.267.139.475.35.625.632.154.283.232.627.232 1.032V18h-.72v-2.48c0-.437-.11-.77-.328-1-.22-.235-.518-.352-.897-.352-.384 0-.69.12-.92.36-.224.24-.335.59-.335 1.048V18h-.729v-5.92h.729v2.16a1.44 1.44 0 0 1 .591-.52c.256-.123.542-.184.856-.184Zm2.71 2.256c0-.448.09-.84.272-1.176.181-.341.429-.605.744-.792.32-.187.674-.28 1.064-.28.384 0 .717.083 1 .248.282.165.493.373.632.624v-.8h.736V18h-.736v-.816c-.144.256-.36.47-.648.64a1.93 1.93 0 0 1-.992.248c-.39 0-.742-.096-1.056-.288a2.02 2.02 0 0 1-.744-.808 2.516 2.516 0 0 1-.272-1.184Zm3.712.008c0-.33-.067-.619-.2-.864a1.378 1.378 0 0 0-.544-.56 1.428 1.428 0 0 0-.744-.2c-.272 0-.52.064-.744.192a1.393 1.393 0 0 0-.536.56c-.134.245-.2.533-.2.864 0 .336.066.63.2.88.133.245.312.435.536.568.224.128.472.192.744.192s.52-.064.744-.192c.229-.133.41-.323.544-.568.133-.25.2-.541.2-.872Zm7.278-2.264c.341 0 .645.072.912.216.267.139.477.35.632.632.155.283.232.627.232 1.032V18h-.72v-2.48c0-.437-.11-.77-.328-1-.213-.235-.504-.352-.872-.352-.379 0-.68.123-.904.368-.224.24-.336.59-.336 1.048V18h-.72v-2.48c0-.437-.11-.77-.328-1-.213-.235-.504-.352-.872-.352-.379 0-.68.123-.904.368-.224.24-.336.59-.336 1.048V18h-.728v-4.384h.728v.632c.144-.23.336-.405.576-.528a1.78 1.78 0 0 1 .808-.184c.368 0 .693.083.976.248.283.165.493.408.632.728.123-.31.325-.55.608-.72a1.79 1.79 0 0 1 .944-.256Z" fill="#252836" fill-opacity=".8"/><mask id="a" style="mask-type:alpha" maskUnits="userSpaceOnUse" x="121" y="10" width="10" height="10"><path fill="#C4C4C4" d="M121 10h10v10h-10z"/></mask><g mask="url(#a)"><circle cx="126" cy="15" r="5" fill="#E62129"/><path d="m124.5 15.187 1.187 1.186L128.06 14" stroke="#FAFAFA" stroke-linecap="round" stroke-linejoin="round"/></g><rect x="5.64" y="54.199" width="129.72" height="20.533" rx="2" fill="#F7F8F7"/></svg>