<svg width="120" height="120" fill="none" xmlns="http://www.w3.org/2000/svg"><rect x="30" y="60" width="60" height="60" rx="24" fill="#FF3B30"/><mask id="a" fill="#fff"><path d="M61.59 47.446c.05-4.418 3.712-8.04 8.025-7.082a38.629 38.629 0 0 1 29.51 30.202c.859 4.334-2.848 7.91-7.266 7.86l-22.625-.263a8 8 0 0 1-7.907-8.091l.262-22.626Z"/></mask><path d="M61.59 47.446c.05-4.418 3.712-8.04 8.025-7.082a38.629 38.629 0 0 1 29.51 30.202c.859 4.334-2.848 7.91-7.266 7.86l-22.625-.263a8 8 0 0 1-7.907-8.091l.262-22.626Z" stroke="#252836" stroke-width="8" mask="url(#a)"/><mask id="b" fill="#fff"><path d="M59.14 47.792c-.025-4.418-3.666-8.061-7.984-7.127a38.62 38.62 0 0 0-27.608 23.182 38.622 38.622 0 0 0-2.074 6.85c-.884 4.33 2.802 7.927 7.22 7.901l22.627-.133a8 8 0 0 0 7.953-8.047l-.133-22.626Z"/></mask><path d="M59.14 47.792c-.025-4.418-3.666-8.061-7.984-7.127a38.62 38.62 0 0 0-27.608 23.182 38.622 38.622 0 0 0-2.074 6.85c-.884 4.33 2.802 7.927 7.22 7.901l22.627-.133a8 8 0 0 0 7.953-8.047l-.133-22.626Z" stroke="#252836" stroke-width="8" mask="url(#b)"/><mask id="c" fill="#fff"><path d="M58.766 111.301c-.08 4.417-3.766 8.016-8.072 7.029a38.633 38.633 0 0 1-29.312-30.394c-.83-4.34 2.9-7.892 7.317-7.812l22.623.41a8 8 0 0 1 7.854 8.144l-.41 22.623Z"/></mask><path d="M58.766 111.301c-.08 4.417-3.766 8.016-8.072 7.029a38.633 38.633 0 0 1-29.312-30.394c-.83-4.34 2.9-7.892 7.317-7.812l22.623.41a8 8 0 0 1 7.854 8.144l-.41 22.623Z" stroke="#252836" stroke-width="8" mask="url(#c)"/></svg>