<svg width="500" height="500" viewBox="0 0 500 500" fill="none" xmlns="http://www.w3.org/2000/svg">
<rect x="83.4692" y="257.195" width="100.476" height="130.805" fill="#44B090"/>
<mask id="mask0_102:36" style="mask-type:alpha" maskUnits="userSpaceOnUse" x="83" y="257" width="101" height="132">
<rect x="83.4692" y="257.195" width="100.476" height="130.805" fill="#C4C4C4"/>
</mask>
<g mask="url(#mask0_102:36)">
<ellipse cx="134.79" cy="345.428" rx="25.3523" ry="25.4402" fill="#F4F5F5" stroke="#F4F5F5" stroke-linecap="round" stroke-linejoin="round"/>
<path fill-rule="evenodd" clip-rule="evenodd" d="M93.5191 387.618C93.5123 385.83 93.9109 384.063 94.6848 382.452C97.1131 377.578 103.961 374.995 109.644 373.826C113.742 372.948 117.896 372.362 122.077 372.071C129.817 371.389 137.601 371.389 145.341 372.071C149.521 372.365 153.675 372.951 157.774 373.826C163.456 374.995 170.305 377.335 172.733 382.452C174.289 385.736 174.289 389.549 172.733 392.833C170.305 397.95 163.456 400.289 157.774 401.41C153.681 402.324 149.524 402.927 145.341 403.213C139.041 403.749 132.712 403.847 126.399 403.506C124.942 403.506 123.534 403.506 122.077 403.213C117.909 402.93 113.768 402.328 109.692 401.41C103.961 400.289 97.1617 397.95 94.6848 392.833C93.9149 391.203 93.5167 389.421 93.5191 387.618Z" fill="#F4F5F5" stroke="#F4F5F5" stroke-linecap="round" stroke-linejoin="round"/>
</g>
<rect x="83.4692" y="111.39" width="100.476" height="130.805" fill="#44B090"/>
<mask id="mask1_102:36" style="mask-type:alpha" maskUnits="userSpaceOnUse" x="83" y="111" width="101" height="132">
<rect x="83.4692" y="111.39" width="100.476" height="130.805" fill="#C4C4C4"/>
</mask>
<g mask="url(#mask1_102:36)">
<ellipse cx="134.79" cy="199.62" rx="25.3523" ry="25.4402" fill="#F4F5F5" stroke="#F4F5F5" stroke-linecap="round" stroke-linejoin="round"/>
<path fill-rule="evenodd" clip-rule="evenodd" d="M93.5191 241.811C93.5123 240.022 93.9109 238.256 94.6848 236.645C97.1131 231.771 103.961 229.188 109.644 228.018C113.742 227.141 117.896 226.555 122.077 226.264C129.817 225.582 137.601 225.582 145.341 226.264C149.521 226.558 153.675 227.144 157.774 228.018C163.456 229.188 170.305 231.527 172.733 236.645C174.289 239.929 174.289 243.741 172.733 247.026C170.305 252.143 163.456 254.482 157.774 255.603C153.681 256.517 149.524 257.12 145.341 257.406C139.041 257.942 132.712 258.04 126.399 257.699C124.942 257.699 123.534 257.699 122.077 257.406C117.909 257.123 113.768 256.52 109.692 255.603C103.961 254.482 97.1617 252.143 94.6848 247.026C93.9149 245.396 93.5167 243.614 93.5191 241.811Z" fill="#F4F5F5" stroke="#F4F5F5" stroke-linecap="round" stroke-linejoin="round"/>
</g>
<rect x="199.715" y="111.39" width="100.476" height="130.805" fill="#F38E00"/>
<mask id="mask2_102:36" style="mask-type:alpha" maskUnits="userSpaceOnUse" x="199" y="111" width="102" height="132">
<rect x="199.715" y="111.39" width="100.476" height="130.805" fill="#C4C4C4"/>
</mask>
<g mask="url(#mask2_102:36)">
<ellipse cx="251.035" cy="199.62" rx="25.3523" ry="25.4402" fill="#F4F5F5" stroke="#F4F5F5" stroke-linecap="round" stroke-linejoin="round"/>
<path fill-rule="evenodd" clip-rule="evenodd" d="M209.765 241.811C209.758 240.022 210.157 238.256 210.93 236.645C213.359 231.771 220.207 229.188 225.889 228.018C229.987 227.141 234.142 226.554 238.322 226.264C246.062 225.582 253.847 225.582 261.586 226.264C265.766 226.558 269.921 227.144 274.02 228.018C279.702 229.188 286.55 231.527 288.979 236.645C290.535 239.929 290.535 243.741 288.979 247.025C286.55 252.143 279.702 254.482 274.02 255.603C269.926 256.517 265.77 257.12 261.586 257.406C255.287 257.942 248.958 258.04 242.645 257.698C241.188 257.698 239.78 257.699 238.322 257.406C234.154 257.123 230.014 256.52 225.938 255.603C220.207 254.482 213.407 252.143 210.93 247.025C210.16 245.396 209.762 243.614 209.765 241.811Z" fill="#F4F5F5" stroke="#F4F5F5" stroke-linecap="round" stroke-linejoin="round"/>
</g>
<rect x="316.054" y="111.39" width="100.476" height="130.805" fill="#44B090"/>
<mask id="mask3_102:36" style="mask-type:alpha" maskUnits="userSpaceOnUse" x="316" y="111" width="101" height="132">
<rect x="316.054" y="111.39" width="100.476" height="130.805" fill="#C4C4C4"/>
</mask>
<g mask="url(#mask3_102:36)">
<ellipse cx="367.378" cy="199.62" rx="25.3523" ry="25.4402" fill="#F4F5F5" stroke="#F4F5F5" stroke-linecap="round" stroke-linejoin="round"/>
<path fill-rule="evenodd" clip-rule="evenodd" d="M326.108 241.811C326.101 240.022 326.499 238.256 327.273 236.645C329.702 231.771 336.55 229.188 342.232 228.018C346.33 227.141 350.485 226.554 354.665 226.264C362.405 225.582 370.189 225.582 377.929 226.264C382.109 226.558 386.264 227.144 390.362 228.018C396.045 229.188 402.893 231.527 405.321 236.645C406.878 239.929 406.878 243.741 405.321 247.025C402.893 252.143 396.045 254.482 390.362 255.603C386.269 256.517 382.113 257.12 377.929 257.406C371.63 257.942 365.301 258.04 358.988 257.698C357.531 257.698 356.122 257.699 354.665 257.406C350.497 257.123 346.357 256.52 342.281 255.603C336.55 254.482 329.75 252.143 327.273 247.025C326.503 245.396 326.105 243.614 326.108 241.811Z" fill="#F4F5F5" stroke="#F4F5F5" stroke-linecap="round" stroke-linejoin="round"/>
</g>
<rect x="199.715" y="257.195" width="100.476" height="130.805" fill="#44B090"/>
<mask id="mask4_102:36" style="mask-type:alpha" maskUnits="userSpaceOnUse" x="199" y="257" width="102" height="132">
<rect x="199.715" y="257.195" width="100.476" height="130.805" fill="#C4C4C4"/>
</mask>
<g mask="url(#mask4_102:36)">
<ellipse cx="251.035" cy="345.428" rx="25.3523" ry="25.4402" fill="#F4F5F5" stroke="#F4F5F5" stroke-linecap="round" stroke-linejoin="round"/>
<path fill-rule="evenodd" clip-rule="evenodd" d="M209.765 387.618C209.758 385.83 210.157 384.063 210.93 382.452C213.359 377.578 220.207 374.995 225.889 373.826C229.987 372.948 234.142 372.362 238.322 372.071C246.062 371.389 253.847 371.389 261.586 372.071C265.766 372.365 269.921 372.951 274.02 373.826C279.702 374.995 286.55 377.335 288.979 382.452C290.535 385.736 290.535 389.549 288.979 392.833C286.55 397.95 279.702 400.289 274.02 401.41C269.926 402.324 265.77 402.927 261.586 403.213C255.287 403.749 248.958 403.847 242.645 403.506C241.188 403.506 239.78 403.506 238.322 403.213C234.154 402.93 230.014 402.328 225.938 401.41C220.207 400.289 213.407 397.95 210.93 392.833C210.16 391.203 209.762 389.421 209.765 387.618Z" fill="#F4F5F5" stroke="#F4F5F5" stroke-linecap="round" stroke-linejoin="round"/>
</g>
<rect x="316.054" y="257.195" width="100.476" height="130.805" fill="#44B090"/>
<mask id="mask5_102:36" style="mask-type:alpha" maskUnits="userSpaceOnUse" x="316" y="257" width="101" height="132">
<rect x="316.054" y="257.195" width="100.476" height="130.805" fill="#C4C4C4"/>
</mask>
<g mask="url(#mask5_102:36)">
<ellipse cx="367.378" cy="345.428" rx="25.3523" ry="25.4402" fill="#F4F5F5" stroke="#F4F5F5" stroke-linecap="round" stroke-linejoin="round"/>
<path fill-rule="evenodd" clip-rule="evenodd" d="M326.108 387.618C326.101 385.83 326.499 384.063 327.273 382.452C329.702 377.578 336.55 374.995 342.232 373.826C346.33 372.948 350.485 372.362 354.665 372.071C362.405 371.389 370.189 371.389 377.929 372.071C382.109 372.365 386.264 372.951 390.362 373.826C396.045 374.995 402.893 377.335 405.321 382.452C406.878 385.736 406.878 389.549 405.321 392.833C402.893 397.95 396.045 400.289 390.362 401.41C386.269 402.324 382.113 402.927 377.929 403.213C371.63 403.749 365.301 403.847 358.988 403.506C357.531 403.506 356.122 403.506 354.665 403.213C350.497 402.93 346.357 402.328 342.281 401.41C336.55 400.289 329.75 397.95 327.273 392.833C326.503 391.203 326.105 389.421 326.108 387.618Z" fill="#F4F5F5" stroke="#F4F5F5" stroke-linecap="round" stroke-linejoin="round"/>
</g>
</svg>
