<!-- <svg width="504" height="500" viewBox="0 0 504 500" fill="none" xmlns="http://www.w3.org/2000/svg">
<circle cx="135" cy="250" r="131" fill="#44B090"/>
<g filter="url(#filter0_d_102:99)">
<path d="M134.999 173.085C134.999 166.457 140.372 161.085 146.999 161.085H483.25C489.877 161.085 495.25 166.457 495.25 173.085V274.389C495.25 281.017 489.877 286.389 483.25 286.389H134.999V173.085Z" fill="#F4F5F5"/>
</g>
<circle cx="193.736" cy="223.737" r="11.7473" fill="#BBD4FF"/>
<circle cx="248.557" cy="223.736" r="11.7473" fill="#97BDFF"/>
<circle cx="303.377" cy="223.736" r="11.7473" fill="#659DFE"/>
<circle cx="358.198" cy="223.736" r="11.7473" fill="#0C64FE"/>
<circle cx="413.019" cy="223.736" r="11.7473" fill="#0147C1"/>
<defs>
<filter id="filter0_d_102:99" x="130.999" y="159.085" width="372.251" height="137.305" filterUnits="userSpaceOnUse" color-interpolation-filters="sRGB">
<feFlood flood-opacity="0" result="BackgroundImageFix"/>
<feColorMatrix in="SourceAlpha" type="matrix" values="0 0 0 0 0 0 0 0 0 0 0 0 0 0 0 0 0 0 127 0" result="hardAlpha"/>
<feOffset dx="2" dy="4"/>
<feGaussianBlur stdDeviation="3"/>
<feComposite in2="hardAlpha" operator="out"/>
<feColorMatrix type="matrix" values="0 0 0 0 0.145098 0 0 0 0 0.156863 0 0 0 0 0.211765 0 0 0 0.12 0"/>
<feBlend mode="normal" in2="BackgroundImageFix" result="effect1_dropShadow_102:99"/>
<feBlend mode="normal" in="SourceGraphic" in2="effect1_dropShadow_102:99" result="shape"/>
</filter>
</defs>
</svg> -->
<svg width="500" height="500" viewBox="0 0 143 72" fill="none" xmlns="http://www.w3.org/2000/svg">
<circle cx="36" cy="36.0002" r="36" fill="#E62129"/>
<g filter="url(#filter0_d_407_2190)">
<path d="M36 23.5657C36 16.9382 41.3726 11.5657 48 11.5657H123C129.627 11.5657 135 16.9383 135 23.5657V34.0005C135 40.6279 129.627 46.0005 123 46.0005H36V23.5657Z" fill="#F4F5F5"/>
</g>
<circle cx="52.1413" cy="28.7831" r="3.22826" fill="#BBD4FF"/>
<circle cx="67.2065" cy="28.7827" r="3.22826" fill="#97BDFF"/>
<circle cx="82.2717" cy="28.7827" r="3.22826" fill="#659DFE"/>
<circle cx="97.3369" cy="28.7827" r="3.22826" fill="#0C64FE"/>
<circle cx="112.402" cy="28.7827" r="3.22826" fill="#0147C1"/>
<defs>
<filter id="filter0_d_407_2190" x="32" y="9.56567" width="111" height="46.4348" filterUnits="userSpaceOnUse" color-interpolation-filters="sRGB">
<feFlood flood-opacity="0" result="BackgroundImageFix"/>
<feColorMatrix in="SourceAlpha" type="matrix" values="0 0 0 0 0 0 0 0 0 0 0 0 0 0 0 0 0 0 127 0" result="hardAlpha"/>
<feOffset dx="2" dy="4"/>
<feGaussianBlur stdDeviation="3"/>
<feComposite in2="hardAlpha" operator="out"/>
<feColorMatrix type="matrix" values="0 0 0 0 0.145098 0 0 0 0 0.156863 0 0 0 0 0.211765 0 0 0 0.12 0"/>
<feBlend mode="normal" in2="BackgroundImageFix" result="effect1_dropShadow_407_2190"/>
<feBlend mode="normal" in="SourceGraphic" in2="effect1_dropShadow_407_2190" result="shape"/>
</filter>
</defs>
</svg>
