<svg width="500" height="500" viewBox="0 0 500 500" fill="none" xmlns="http://www.w3.org/2000/svg">
<rect x="23" y="119" width="454.555" height="261.128" rx="4" fill="#EAECEC"/>
<rect x="41.6829" y="215.137" width="417.191" height="65.1953" rx="1.5" fill="#FBFEFD" stroke="#44B090"/>
<path d="M59.8838 233.131C59.8838 232.213 60.0251 231.501 60.3078 230.995C60.5904 230.488 61.0971 230.235 61.8278 230.235C62.5584 230.235 63.0651 230.488 63.3478 230.995C63.6304 231.501 63.7718 232.213 63.7718 233.131C63.7718 234.064 63.6304 234.787 63.3478 235.299C63.0651 235.811 62.5584 236.067 61.8278 236.067C61.0918 236.067 60.5824 235.811 60.2998 235.299C60.0224 234.787 59.8838 234.064 59.8838 233.131ZM63.2198 233.131C63.2198 232.635 63.1851 232.216 63.1158 231.875C63.0464 231.533 62.9104 231.259 62.7078 231.051C62.5051 230.843 62.2118 230.739 61.8278 230.739C61.4438 230.739 61.1504 230.843 60.9478 231.051C60.7451 231.259 60.6091 231.533 60.5398 231.875C60.4704 232.216 60.4358 232.635 60.4358 233.131C60.4358 233.643 60.4704 234.072 60.5398 234.419C60.6091 234.76 60.7451 235.035 60.9478 235.243C61.1504 235.451 61.4438 235.555 61.8278 235.555C62.2118 235.555 62.5051 235.451 62.7078 235.243C62.9104 235.035 63.0464 234.76 63.1158 234.419C63.1851 234.072 63.2198 233.643 63.2198 233.131ZM65.9655 233.075C65.6348 232.968 65.3815 232.8 65.2055 232.571C65.0348 232.341 64.9495 232.064 64.9495 231.739C64.9495 231.451 65.0215 231.195 65.1655 230.971C65.3148 230.741 65.5308 230.563 65.8135 230.435C66.0961 230.301 66.4348 230.235 66.8295 230.235C67.2241 230.235 67.5628 230.301 67.8455 230.435C68.1281 230.563 68.3415 230.741 68.4855 230.971C68.6348 231.195 68.7095 231.451 68.7095 231.739C68.7095 232.059 68.6215 232.336 68.4455 232.571C68.2748 232.805 68.0241 232.973 67.6935 233.075C68.0561 233.165 68.3415 233.339 68.5495 233.595C68.7575 233.851 68.8615 234.163 68.8615 234.531C68.8615 234.872 68.7761 235.171 68.6055 235.427C68.4401 235.677 68.2028 235.872 67.8935 236.011C67.5895 236.149 67.2348 236.219 66.8295 236.219C66.4241 236.219 66.0668 236.149 65.7575 236.011C65.4535 235.872 65.2161 235.677 65.0455 235.427C64.8801 235.171 64.7975 234.872 64.7975 234.531C64.7975 234.163 64.9015 233.851 65.1095 233.595C65.3175 233.339 65.6028 233.165 65.9655 233.075ZM68.1655 231.803C68.1655 231.451 68.0455 231.179 67.8055 230.987C67.5655 230.795 67.2401 230.699 66.8295 230.699C66.4188 230.699 66.0935 230.795 65.8535 230.987C65.6135 231.173 65.4935 231.445 65.4935 231.803C65.4935 232.133 65.6161 232.397 65.8615 232.595C66.1068 232.792 66.4295 232.891 66.8295 232.891C67.2295 232.891 67.5521 232.792 67.7975 232.595C68.0428 232.397 68.1655 232.133 68.1655 231.803ZM66.8295 233.323C66.3921 233.323 66.0348 233.421 65.7575 233.619C65.4801 233.816 65.3415 234.115 65.3415 234.515C65.3415 234.899 65.4748 235.2 65.7415 235.419C66.0081 235.637 66.3708 235.747 66.8295 235.747C67.2828 235.747 67.6428 235.637 67.9095 235.419C68.1761 235.195 68.3095 234.893 68.3095 234.515C68.3095 234.12 68.1708 233.824 67.8935 233.627C67.6215 233.424 67.2668 233.323 66.8295 233.323ZM70.6296 234.523C70.6883 234.869 70.8216 235.136 71.0296 235.323C71.2376 235.509 71.523 235.603 71.8856 235.603C72.387 235.603 72.7576 235.408 72.9976 235.019C73.243 234.624 73.355 233.973 73.3336 233.067C73.2323 233.36 73.0376 233.592 72.7496 233.763C72.467 233.928 72.1416 234.011 71.7736 234.011C71.2136 234.011 70.763 233.843 70.4216 233.507C70.0856 233.171 69.9176 232.704 69.9176 232.107C69.9176 231.749 69.987 231.427 70.1256 231.139C70.2643 230.851 70.475 230.624 70.7576 230.459C71.0403 230.293 71.387 230.211 71.7976 230.211C72.555 230.211 73.083 230.459 73.3816 230.955C73.6803 231.445 73.8296 232.152 73.8296 233.075C73.8296 234.072 73.6803 234.821 73.3816 235.323C73.0883 235.824 72.5816 236.075 71.8616 236.075C71.3336 236.075 70.923 235.933 70.6296 235.651C70.3363 235.363 70.163 234.987 70.1096 234.523H70.6296ZM71.8616 233.531C72.1123 233.531 72.3416 233.48 72.5496 233.379C72.763 233.272 72.9336 233.117 73.0616 232.915C73.1896 232.712 73.2536 232.469 73.2536 232.187C73.2536 231.749 73.1283 231.389 72.8776 231.107C72.6323 230.824 72.2776 230.683 71.8136 230.683C71.403 230.683 71.0723 230.811 70.8216 231.067C70.5763 231.323 70.4536 231.664 70.4536 232.091C70.4536 232.539 70.5763 232.891 70.8216 233.147C71.067 233.403 71.4136 233.531 71.8616 233.531Z" fill="#252836" fill-opacity="0.5"/>
<path d="M78.1039 236.955H77.1919V229.643H78.1039V236.955Z" fill="#252836"/>
<rect x="41.1829" y="135.119" width="418.191" height="66.1953" rx="2" fill="#FAFAFA"/>
<path d="M62.3739 155.774H59.9419L59.4939 157.014H58.7259L60.7419 151.47H61.5819L63.5899 157.014H62.8219L62.3739 155.774ZM62.1659 155.182L61.1579 152.366L60.1499 155.182H62.1659ZM65.2365 153.446C65.3859 153.185 65.6045 152.971 65.8925 152.806C66.1805 152.641 66.5085 152.558 66.8765 152.558C67.2712 152.558 67.6259 152.651 67.9405 152.838C68.2552 153.025 68.5032 153.289 68.6845 153.63C68.8659 153.966 68.9565 154.358 68.9565 154.806C68.9565 155.249 68.8659 155.643 68.6845 155.99C68.5032 156.337 68.2525 156.606 67.9325 156.798C67.6179 156.99 67.2659 157.086 66.8765 157.086C66.4979 157.086 66.1645 157.003 65.8765 156.838C65.5939 156.673 65.3805 156.462 65.2365 156.206V157.014H64.5085V151.094H65.2365V153.446ZM68.2125 154.806C68.2125 154.475 68.1459 154.187 68.0125 153.942C67.8792 153.697 67.6979 153.51 67.4685 153.382C67.2445 153.254 66.9965 153.19 66.7245 153.19C66.4579 153.19 66.2099 153.257 65.9805 153.39C65.7565 153.518 65.5752 153.707 65.4365 153.958C65.3032 154.203 65.2365 154.489 65.2365 154.814C65.2365 155.145 65.3032 155.435 65.4365 155.686C65.5752 155.931 65.7565 156.121 65.9805 156.254C66.2099 156.382 66.4579 156.446 66.7245 156.446C66.9965 156.446 67.2445 156.382 67.4685 156.254C67.6979 156.121 67.8792 155.931 68.0125 155.686C68.1459 155.435 68.2125 155.142 68.2125 154.806ZM70.6828 153.342C70.8108 153.091 70.9921 152.897 71.2268 152.758C71.4668 152.619 71.7575 152.55 72.0988 152.55V153.302H71.9068C71.0908 153.302 70.6828 153.745 70.6828 154.63V157.014H69.9548V152.63H70.6828V153.342ZM72.7072 154.806C72.7072 154.358 72.7978 153.966 72.9792 153.63C73.1605 153.289 73.4085 153.025 73.7232 152.838C74.0432 152.651 74.3978 152.558 74.7872 152.558C75.1712 152.558 75.5045 152.641 75.7872 152.806C76.0698 152.971 76.2805 153.179 76.4192 153.43V152.63H77.1552V157.014H76.4192V156.198C76.2752 156.454 76.0592 156.667 75.7712 156.838C75.4885 157.003 75.1578 157.086 74.7792 157.086C74.3898 157.086 74.0378 156.99 73.7232 156.798C73.4085 156.606 73.1605 156.337 72.9792 155.99C72.7978 155.643 72.7072 155.249 72.7072 154.806ZM76.4192 154.814C76.4192 154.483 76.3525 154.195 76.2192 153.95C76.0858 153.705 75.9045 153.518 75.6752 153.39C75.4512 153.257 75.2032 153.19 74.9312 153.19C74.6592 153.19 74.4112 153.254 74.1872 153.382C73.9632 153.51 73.7845 153.697 73.6512 153.942C73.5178 154.187 73.4512 154.475 73.4512 154.806C73.4512 155.142 73.5178 155.435 73.6512 155.686C73.7845 155.931 73.9632 156.121 74.1872 156.254C74.4112 156.382 74.6592 156.446 74.9312 156.446C75.2032 156.446 75.4512 156.382 75.6752 156.254C75.9045 156.121 76.0858 155.931 76.2192 155.686C76.3525 155.435 76.4192 155.145 76.4192 154.814ZM80.6014 152.55C80.9321 152.55 81.2307 152.622 81.4974 152.766C81.7641 152.905 81.9721 153.115 82.1214 153.398C82.2761 153.681 82.3534 154.025 82.3534 154.43V157.014H81.6334V154.534C81.6334 154.097 81.5241 153.763 81.3054 153.534C81.0867 153.299 80.7881 153.182 80.4094 153.182C80.0254 153.182 79.7187 153.302 79.4894 153.542C79.2654 153.782 79.1534 154.131 79.1534 154.59V157.014H78.4254V151.094H79.1534V153.254C79.2974 153.03 79.4947 152.857 79.7454 152.734C80.0014 152.611 80.2867 152.55 80.6014 152.55ZM83.3106 154.806C83.3106 154.358 83.4013 153.966 83.5826 153.63C83.7639 153.289 84.0119 153.025 84.3266 152.838C84.6466 152.651 85.0013 152.558 85.3906 152.558C85.7746 152.558 86.1079 152.641 86.3906 152.806C86.6733 152.971 86.8839 153.179 87.0226 153.43V152.63H87.7586V157.014H87.0226V156.198C86.8786 156.454 86.6626 156.667 86.3746 156.838C86.0919 157.003 85.7613 157.086 85.3826 157.086C84.9933 157.086 84.6413 156.99 84.3266 156.798C84.0119 156.606 83.7639 156.337 83.5826 155.99C83.4013 155.643 83.3106 155.249 83.3106 154.806ZM87.0226 154.814C87.0226 154.483 86.9559 154.195 86.8226 153.95C86.6893 153.705 86.5079 153.518 86.2786 153.39C86.0546 153.257 85.8066 153.19 85.5346 153.19C85.2626 153.19 85.0146 153.254 84.7906 153.382C84.5666 153.51 84.3879 153.697 84.2546 153.942C84.1213 154.187 84.0546 154.475 84.0546 154.806C84.0546 155.142 84.1213 155.435 84.2546 155.686C84.3879 155.931 84.5666 156.121 84.7906 156.254C85.0146 156.382 85.2626 156.446 85.5346 156.446C85.8066 156.446 86.0546 156.382 86.2786 156.254C86.5079 156.121 86.6893 155.931 86.8226 155.686C86.9559 155.435 87.0226 155.145 87.0226 154.814ZM94.3009 152.55C94.6422 152.55 94.9462 152.622 95.2129 152.766C95.4795 152.905 95.6902 153.115 95.8449 153.398C95.9995 153.681 96.0769 154.025 96.0769 154.43V157.014H95.3569V154.534C95.3569 154.097 95.2475 153.763 95.0289 153.534C94.8155 153.299 94.5249 153.182 94.1569 153.182C93.7782 153.182 93.4769 153.305 93.2529 153.55C93.0289 153.79 92.9169 154.139 92.9169 154.598V157.014H92.1969V154.534C92.1969 154.097 92.0875 153.763 91.8689 153.534C91.6555 153.299 91.3649 153.182 90.9969 153.182C90.6182 153.182 90.3169 153.305 90.0929 153.55C89.8689 153.79 89.7569 154.139 89.7569 154.598V157.014H89.0289V152.63H89.7569V153.262C89.9009 153.033 90.0929 152.857 90.3329 152.734C90.5782 152.611 90.8475 152.55 91.1409 152.55C91.5089 152.55 91.8342 152.633 92.1169 152.798C92.3995 152.963 92.6102 153.206 92.7489 153.526C92.8715 153.217 93.0742 152.977 93.3569 152.806C93.6395 152.635 93.9542 152.55 94.3009 152.55Z" fill="#252836" fill-opacity="0.8"/>
<mask id="mask0_102:211" style="mask-type:alpha" maskUnits="userSpaceOnUse" x="413" y="151" width="33" height="33">
<rect x="413.08" y="151.238" width="32.238" height="32.238" fill="#C4C4C4"/>
</mask>
<g mask="url(#mask0_102:211)">
<circle cx="429.199" cy="167.357" r="16.119" fill="#44B090"/>
<path d="M424.363 167.959L428.189 171.784L435.84 164.134" stroke="#FAFAFA" stroke-linecap="round" stroke-linejoin="round"/>
</g>
<rect x="41.1829" y="293.727" width="418.191" height="66.1953" rx="2" fill="#F7F8F7"/>
</svg>
