<svg width="500" height="500" viewBox="0 0 500 500" fill="none" xmlns="http://www.w3.org/2000/svg">
<rect x="24.1052" y="78" width="452.316" height="343.76" rx="4" fill="#EAECEC"/>
<rect x="42.1978" y="96.0925" width="416.131" height="158.311" rx="4" fill="#DFE2E2"/>
<g filter="url(#filter0_d_102:187)">
<rect x="42.3438" y="278.626" width="416.131" height="108.556" rx="4" fill="#44B090"/>
</g>
<path d="M147.335 314.267V317.207C147.335 317.615 147.217 317.933 146.981 318.161C146.745 318.385 146.429 318.497 146.033 318.497C145.633 318.497 145.309 318.381 145.061 318.149C144.817 317.917 144.695 317.593 144.695 317.177H145.535C145.539 317.357 145.581 317.497 145.661 317.597C145.745 317.697 145.865 317.747 146.021 317.747C146.173 317.747 146.289 317.699 146.369 317.603C146.449 317.507 146.489 317.375 146.489 317.207V314.267H147.335ZM149.821 318.509C149.501 318.509 149.213 318.439 148.957 318.299C148.701 318.155 148.499 317.953 148.351 317.693C148.207 317.433 148.135 317.133 148.135 316.793C148.135 316.453 148.209 316.153 148.357 315.893C148.509 315.633 148.715 315.433 148.975 315.293C149.235 315.149 149.525 315.077 149.845 315.077C150.165 315.077 150.455 315.149 150.715 315.293C150.975 315.433 151.179 315.633 151.327 315.893C151.479 316.153 151.555 316.453 151.555 316.793C151.555 317.133 151.477 317.433 151.321 317.693C151.169 317.953 150.961 318.155 150.697 318.299C150.437 318.439 150.145 318.509 149.821 318.509ZM149.821 317.777C149.973 317.777 150.115 317.741 150.247 317.669C150.383 317.593 150.491 317.481 150.571 317.333C150.651 317.185 150.691 317.005 150.691 316.793C150.691 316.477 150.607 316.235 150.439 316.067C150.275 315.895 150.073 315.809 149.833 315.809C149.593 315.809 149.391 315.895 149.227 316.067C149.067 316.235 148.987 316.477 148.987 316.793C148.987 317.109 149.065 317.353 149.221 317.525C149.381 317.693 149.581 317.777 149.821 317.777ZM152.628 314.735C152.48 314.735 152.356 314.689 152.256 314.597C152.16 314.501 152.112 314.383 152.112 314.243C152.112 314.103 152.16 313.987 152.256 313.895C152.356 313.799 152.48 313.751 152.628 313.751C152.776 313.751 152.898 313.799 152.994 313.895C153.094 313.987 153.144 314.103 153.144 314.243C153.144 314.383 153.094 314.501 152.994 314.597C152.898 314.689 152.776 314.735 152.628 314.735ZM153.042 315.131V318.455H152.202V315.131H153.042ZM155.743 315.083C156.139 315.083 156.459 315.209 156.703 315.461C156.947 315.709 157.069 316.057 157.069 316.505V318.455H156.229V316.619C156.229 316.355 156.163 316.153 156.031 316.013C155.899 315.869 155.719 315.797 155.491 315.797C155.259 315.797 155.075 315.869 154.939 316.013C154.807 316.153 154.741 316.355 154.741 316.619V318.455H153.901V315.131H154.741V315.545C154.853 315.401 154.995 315.289 155.167 315.209C155.343 315.125 155.535 315.083 155.743 315.083ZM159.142 316.781C159.142 316.445 159.208 316.147 159.34 315.887C159.476 315.627 159.658 315.427 159.886 315.287C160.118 315.147 160.376 315.077 160.66 315.077C160.908 315.077 161.124 315.127 161.308 315.227C161.496 315.327 161.646 315.453 161.758 315.605V315.131H162.604V318.455H161.758V317.969C161.65 318.125 161.5 318.255 161.308 318.359C161.12 318.459 160.902 318.509 160.654 318.509C160.374 318.509 160.118 318.437 159.886 318.293C159.658 318.149 159.476 317.947 159.34 317.687C159.208 317.423 159.142 317.121 159.142 316.781ZM161.758 316.793C161.758 316.589 161.718 316.415 161.638 316.271C161.558 316.123 161.45 316.011 161.314 315.935C161.178 315.855 161.032 315.815 160.876 315.815C160.72 315.815 160.576 315.853 160.444 315.929C160.312 316.005 160.204 316.117 160.12 316.265C160.04 316.409 160 316.581 160 316.781C160 316.981 160.04 317.157 160.12 317.309C160.204 317.457 160.312 317.571 160.444 317.651C160.58 317.731 160.724 317.771 160.876 317.771C161.032 317.771 161.178 317.733 161.314 317.657C161.45 317.577 161.558 317.465 161.638 317.321C161.718 317.173 161.758 316.997 161.758 316.793ZM164.726 318.509C164.454 318.509 164.21 318.461 163.994 318.365C163.778 318.265 163.606 318.131 163.478 317.963C163.354 317.795 163.286 317.609 163.274 317.405H164.12C164.136 317.533 164.198 317.639 164.306 317.723C164.418 317.807 164.556 317.849 164.72 317.849C164.88 317.849 165.004 317.817 165.092 317.753C165.184 317.689 165.23 317.607 165.23 317.507C165.23 317.399 165.174 317.319 165.062 317.267C164.954 317.211 164.78 317.151 164.54 317.087C164.292 317.027 164.088 316.965 163.928 316.901C163.772 316.837 163.636 316.739 163.52 316.607C163.408 316.475 163.352 316.297 163.352 316.073C163.352 315.889 163.404 315.721 163.508 315.569C163.616 315.417 163.768 315.297 163.964 315.209C164.164 315.121 164.398 315.077 164.666 315.077C165.062 315.077 165.378 315.177 165.614 315.377C165.85 315.573 165.98 315.839 166.004 316.175H165.2C165.188 316.043 165.132 315.939 165.032 315.863C164.936 315.783 164.806 315.743 164.642 315.743C164.49 315.743 164.372 315.771 164.288 315.827C164.208 315.883 164.168 315.961 164.168 316.061C164.168 316.173 164.224 316.259 164.336 316.319C164.448 316.375 164.622 316.433 164.858 316.493C165.098 316.553 165.296 316.615 165.452 316.679C165.608 316.743 165.742 316.843 165.854 316.979C165.97 317.111 166.03 317.287 166.034 317.507C166.034 317.699 165.98 317.871 165.872 318.023C165.768 318.175 165.616 318.295 165.416 318.383C165.22 318.467 164.99 318.509 164.726 318.509ZM168.64 314.735C168.492 314.735 168.368 314.689 168.268 314.597C168.172 314.501 168.124 314.383 168.124 314.243C168.124 314.103 168.172 313.987 168.268 313.895C168.368 313.799 168.492 313.751 168.64 313.751C168.788 313.751 168.91 313.799 169.006 313.895C169.106 313.987 169.156 314.103 169.156 314.243C169.156 314.383 169.106 314.501 169.006 314.597C168.91 314.689 168.788 314.735 168.64 314.735ZM169.054 315.131V318.455H168.214V315.131H169.054ZM171.755 315.083C172.151 315.083 172.471 315.209 172.715 315.461C172.959 315.709 173.081 316.057 173.081 316.505V318.455H172.241V316.619C172.241 316.355 172.175 316.153 172.043 316.013C171.911 315.869 171.731 315.797 171.503 315.797C171.271 315.797 171.087 315.869 170.951 316.013C170.819 316.153 170.753 316.355 170.753 316.619V318.455H169.913V315.131H170.753V315.545C170.865 315.401 171.007 315.289 171.179 315.209C171.355 315.125 171.547 315.083 171.755 315.083ZM174.888 315.821V317.429C174.888 317.541 174.914 317.623 174.966 317.675C175.022 317.723 175.114 317.747 175.242 317.747H175.632V318.455H175.104C174.396 318.455 174.042 318.111 174.042 317.423V315.821H173.646V315.131H174.042V314.309H174.888V315.131H175.632V315.821H174.888ZM179.356 316.721C179.356 316.841 179.348 316.949 179.332 317.045H176.902C176.922 317.285 177.006 317.473 177.154 317.609C177.302 317.745 177.484 317.813 177.7 317.813C178.012 317.813 178.234 317.679 178.366 317.411H179.272C179.176 317.731 178.992 317.995 178.72 318.203C178.448 318.407 178.114 318.509 177.718 318.509C177.398 318.509 177.11 318.439 176.854 318.299C176.602 318.155 176.404 317.953 176.26 317.693C176.12 317.433 176.05 317.133 176.05 316.793C176.05 316.449 176.12 316.147 176.26 315.887C176.4 315.627 176.596 315.427 176.848 315.287C177.1 315.147 177.39 315.077 177.718 315.077C178.034 315.077 178.316 315.145 178.564 315.281C178.816 315.417 179.01 315.611 179.146 315.863C179.286 316.111 179.356 316.397 179.356 316.721ZM178.486 316.481C178.482 316.265 178.404 316.093 178.252 315.965C178.1 315.833 177.914 315.767 177.694 315.767C177.486 315.767 177.31 315.831 177.166 315.959C177.026 316.083 176.94 316.257 176.908 316.481H178.486ZM180.84 315.647C180.948 315.471 181.088 315.333 181.26 315.233C181.436 315.133 181.636 315.083 181.86 315.083V315.965H181.638C181.374 315.965 181.174 316.027 181.038 316.151C180.906 316.275 180.84 316.491 180.84 316.799V318.455H180V315.131H180.84V315.647ZM183.295 315.611C183.403 315.459 183.551 315.333 183.739 315.233C183.931 315.129 184.149 315.077 184.393 315.077C184.677 315.077 184.933 315.147 185.161 315.287C185.393 315.427 185.575 315.627 185.707 315.887C185.843 316.143 185.911 316.441 185.911 316.781C185.911 317.121 185.843 317.423 185.707 317.687C185.575 317.947 185.393 318.149 185.161 318.293C184.933 318.437 184.677 318.509 184.393 318.509C184.149 318.509 183.933 318.459 183.745 318.359C183.561 318.259 183.411 318.133 183.295 317.981V320.039H182.455V315.131H183.295V315.611ZM185.053 316.781C185.053 316.581 185.011 316.409 184.927 316.265C184.847 316.117 184.739 316.005 184.603 315.929C184.471 315.853 184.327 315.815 184.171 315.815C184.019 315.815 183.875 315.855 183.739 315.935C183.607 316.011 183.499 316.123 183.415 316.271C183.335 316.419 183.295 316.593 183.295 316.793C183.295 316.993 183.335 317.167 183.415 317.315C183.499 317.463 183.607 317.577 183.739 317.657C183.875 317.733 184.019 317.771 184.171 317.771C184.327 317.771 184.471 317.731 184.603 317.651C184.739 317.571 184.847 317.457 184.927 317.309C185.011 317.161 185.053 316.985 185.053 316.781ZM187.392 315.647C187.5 315.471 187.64 315.333 187.812 315.233C187.988 315.133 188.188 315.083 188.412 315.083V315.965H188.19C187.926 315.965 187.726 316.027 187.59 316.151C187.458 316.275 187.392 316.491 187.392 316.799V318.455H186.552V315.131H187.392V315.647ZM192.098 316.721C192.098 316.841 192.09 316.949 192.074 317.045H189.644C189.664 317.285 189.748 317.473 189.896 317.609C190.044 317.745 190.226 317.813 190.442 317.813C190.754 317.813 190.976 317.679 191.108 317.411H192.014C191.918 317.731 191.734 317.995 191.462 318.203C191.19 318.407 190.856 318.509 190.46 318.509C190.14 318.509 189.852 318.439 189.596 318.299C189.344 318.155 189.146 317.953 189.002 317.693C188.862 317.433 188.792 317.133 188.792 316.793C188.792 316.449 188.862 316.147 189.002 315.887C189.142 315.627 189.338 315.427 189.59 315.287C189.842 315.147 190.132 315.077 190.46 315.077C190.776 315.077 191.058 315.145 191.306 315.281C191.558 315.417 191.752 315.611 191.888 315.863C192.028 316.111 192.098 316.397 192.098 316.721ZM191.228 316.481C191.224 316.265 191.146 316.093 190.994 315.965C190.842 315.833 190.656 315.767 190.436 315.767C190.228 315.767 190.052 315.831 189.908 315.959C189.768 316.083 189.682 316.257 189.65 316.481H191.228ZM193.719 315.821V317.429C193.719 317.541 193.745 317.623 193.797 317.675C193.853 317.723 193.945 317.747 194.073 317.747H194.463V318.455H193.935C193.227 318.455 192.873 318.111 192.873 317.423V315.821H192.477V315.131H192.873V314.309H193.719V315.131H194.463V315.821H193.719ZM198.187 316.721C198.187 316.841 198.179 316.949 198.163 317.045H195.733C195.753 317.285 195.837 317.473 195.985 317.609C196.133 317.745 196.315 317.813 196.531 317.813C196.843 317.813 197.065 317.679 197.197 317.411H198.103C198.007 317.731 197.823 317.995 197.551 318.203C197.279 318.407 196.945 318.509 196.549 318.509C196.229 318.509 195.941 318.439 195.685 318.299C195.433 318.155 195.235 317.953 195.091 317.693C194.951 317.433 194.881 317.133 194.881 316.793C194.881 316.449 194.951 316.147 195.091 315.887C195.231 315.627 195.427 315.427 195.679 315.287C195.931 315.147 196.221 315.077 196.549 315.077C196.865 315.077 197.147 315.145 197.395 315.281C197.647 315.417 197.841 315.611 197.977 315.863C198.117 316.111 198.187 316.397 198.187 316.721ZM197.317 316.481C197.313 316.265 197.235 316.093 197.083 315.965C196.931 315.833 196.745 315.767 196.525 315.767C196.317 315.767 196.141 315.831 195.997 315.959C195.857 316.083 195.771 316.257 195.739 316.481H197.317ZM199.67 315.647C199.778 315.471 199.918 315.333 200.09 315.233C200.266 315.133 200.466 315.083 200.69 315.083V315.965H200.468C200.204 315.965 200.004 316.027 199.868 316.151C199.736 316.275 199.67 316.491 199.67 316.799V318.455H198.83V315.131H199.67V315.647Z" fill="#FBFEFD"/>
<defs>
<filter id="filter0_d_102:187" x="38.3438" y="276.626" width="428.131" height="120.556" filterUnits="userSpaceOnUse" color-interpolation-filters="sRGB">
<feFlood flood-opacity="0" result="BackgroundImageFix"/>
<feColorMatrix in="SourceAlpha" type="matrix" values="0 0 0 0 0 0 0 0 0 0 0 0 0 0 0 0 0 0 127 0" result="hardAlpha"/>
<feOffset dx="2" dy="4"/>
<feGaussianBlur stdDeviation="3"/>
<feComposite in2="hardAlpha" operator="out"/>
<feColorMatrix type="matrix" values="0 0 0 0 0.145098 0 0 0 0 0.156863 0 0 0 0 0.211765 0 0 0 0.08 0"/>
<feBlend mode="normal" in2="BackgroundImageFix" result="effect1_dropShadow_102:187"/>
<feBlend mode="normal" in="SourceGraphic" in2="effect1_dropShadow_102:187" result="shape"/>
</filter>
</defs>
</svg>
