<svg width="127" height="120" fill="none" xmlns="http://www.w3.org/2000/svg"><rect x="37" y="60" width="60" height="60" rx="24" fill="#FF3B30"/><path d="M46.832 66.689c-.77 4.242-1.56 8.58-2.117 11.64l2.117-11.64Zm0 0 8.545.395m-8.545-.395c.79-4.35 1.562-8.6 2.045-11.27m16.408 20.167c.012-.139.135-1.12.536-3.935.402-2.815-2.393-4.014-3.84-4.262l-6.604-.305m9.908 8.502-10.224-.622c-.917.099-2.807.962-3.028 3.63-.221 2.669-.657 6.238-.848 7.688m14.1-10.696 4.377.326c1.16.353 3.325 1.882 2.717 5.177-.61 3.295-3.53 3.78-4.914 3.61l-6.678-.398-.847 7.688m-1.8 11.572c-7.28-1.229-12.502-6.026-14.203-8.27l-6.09-7.486-1.523-1.87c-.519-.486-1.398-2.362-.761-5.99.636-3.63 3.47-19.932 4.808-27.63.277-1.65 1.547-4.991 4.412-5.145 3.581-.193 4.965 3.346 4.568 5.614-.065.365-.233 1.304-.474 2.634m6.5 11.666-3.25-5.833-3.25-5.833" stroke="#252836" stroke-width="4" stroke-linecap="round" stroke-linejoin="round"/><path d="M47.05 47.658c.75-5.275 4.692-4.855 6.203-3.882l9.627 13.161c2.162.444 7.442 2.42 11.27 6.77 3.827 4.351 5.155 10.32 5.34 12.761.656 2.577 2.159 7.964 2.92 8.9.761.935 3.979 5.185 5.493 7.194M36.244 72.985 21.409 54.448c-1.046-1.124-3.292-4.203.956-7.1 3.205-2.185 5.456.815 6.543 2.152l5.02 5.937 4.216 5.453M24.378 27.365l9.977 9.046M38.449 18.232l3.358 13.989M54.47 16.729 50.85 31.64" stroke="#252836" stroke-width="4" stroke-linecap="round" stroke-linejoin="round"/></svg>