<svg width="500" height="500" viewBox="0 0 121 80" fill="none" xmlns="http://www.w3.org/2000/svg"><circle cx="36.556" cy="42.695" r="36.556" fill="#E62129"/><rect x="26" y=".001" width="94.435" height="20.309" rx="2" fill="#F4F5F4"/><path d="M34.904 7.893v4.17h-.684V9.207l-1.272 2.856h-.474l-1.278-2.856v2.856h-.684v-4.17h.738l1.464 3.27 1.458-3.27h.732Zm2.363 4.224c-.312 0-.594-.07-.846-.21a1.557 1.557 0 0 1-.594-.6 1.827 1.827 0 0 1-.216-.9c0-.336.074-.634.222-.894.148-.26.35-.46.606-.6.256-.14.542-.21.858-.21.316 0 .602.07.858.21.256.14.458.34.606.6.148.26.222.558.222.894 0 .336-.076.634-.228.894-.152.26-.36.462-.624.606-.26.14-.548.21-.864.21Zm0-.594a1 1 0 0 0 .492-.126.954.954 0 0 0 .378-.378c.096-.168.144-.372.144-.612s-.046-.442-.138-.606a.927.927 0 0 0-.366-.378 1 1 0 0 0-.492-.126 1 1 0 0 0-.492.126.902.902 0 0 0-.354.378 1.269 1.269 0 0 0-.132.606c0 .356.09.632.27.828a.916.916 0 0 0 .69.288Zm4.09-2.82c.26 0 .492.054.696.162.208.108.37.268.486.48.116.212.174.468.174.768v1.95h-.678v-1.848c0-.296-.074-.522-.222-.678-.148-.16-.35-.24-.606-.24s-.46.08-.612.24c-.148.156-.222.382-.222.678v1.848h-.684V8.757h.684v.378c.112-.136.254-.242.426-.318.176-.076.362-.114.558-.114Zm2.03 1.692c0-.332.068-.626.204-.882a1.524 1.524 0 0 1 1.998-.666c.212.092.38.216.504.372V7.623h.69v4.44h-.69v-.498c-.112.16-.268.292-.468.396a1.425 1.425 0 0 1-.678.156 1.51 1.51 0 0 1-.792-.216 1.603 1.603 0 0 1-.564-.612 1.924 1.924 0 0 1-.204-.894Zm2.706.012c0-.228-.048-.426-.144-.594a.97.97 0 0 0-1.35-.384.966.966 0 0 0-.372.378c-.092.164-.138.36-.138.588 0 .228.046.428.138.6.096.172.22.304.372.396a.987.987 0 0 0 .984 0 .97.97 0 0 0 .366-.384 1.21 1.21 0 0 0 .144-.6Zm1.39-.012c0-.332.069-.626.205-.882a1.524 1.524 0 0 1 1.356-.81c.26 0 .486.052.678.156.196.1.352.226.468.378v-.48h.69v3.306h-.69v-.492a1.358 1.358 0 0 1-.474.39 1.46 1.46 0 0 1-.684.156c-.284 0-.544-.072-.78-.216a1.603 1.603 0 0 1-.564-.612 1.924 1.924 0 0 1-.204-.894Zm2.707.012c0-.228-.048-.426-.144-.594a.97.97 0 0 0-1.35-.384.966.966 0 0 0-.372.378c-.092.164-.138.36-.138.588 0 .228.046.428.138.6.096.172.22.304.372.396a.987.987 0 0 0 .984 0 .97.97 0 0 0 .366-.384 1.21 1.21 0 0 0 .144-.6Zm4.594-1.65-2.028 4.86h-.708l.672-1.608-1.302-3.252h.762l.93 2.52.966-2.52h.708Z" fill="#252836"/><path d="M78.16 9.848c0-.688.111-1.224.335-1.608.224-.388.616-.582 1.176-.582.556 0 .946.194 1.17.582.224.384.336.92.336 1.608 0 .7-.112 1.244-.336 1.632-.224.388-.614.582-1.17.582-.56 0-.952-.194-1.176-.582-.224-.388-.336-.932-.336-1.632Zm2.477 0c0-.348-.024-.642-.072-.882a1.099 1.099 0 0 0-.282-.588c-.14-.148-.344-.222-.612-.222-.272 0-.48.074-.624.222a1.16 1.16 0 0 0-.282.588c-.044.24-.066.534-.066.882 0 .36.022.662.066.906.048.244.142.44.282.588.144.148.352.222.624.222.268 0 .472-.074.612-.222.144-.148.238-.344.282-.588.048-.244.072-.546.072-.906Zm2.112-.042a1.114 1.114 0 0 1-.516-.384 1.025 1.025 0 0 1-.18-.612c0-.216.054-.41.162-.582a1.09 1.09 0 0 1 .48-.414c.216-.104.476-.156.78-.156.304 0 .562.052.774.156a1.085 1.085 0 0 1 .654.996c0 .232-.062.436-.186.612-.124.172-.294.3-.51.384.248.076.444.21.588.402.148.188.222.416.222.684 0 .26-.064.488-.192.684-.128.192-.31.342-.546.45-.232.104-.5.156-.804.156-.304 0-.572-.052-.804-.156a1.287 1.287 0 0 1-.534-.45 1.223 1.223 0 0 1-.192-.684c0-.268.072-.498.216-.69.144-.192.34-.324.588-.396Zm1.626-.93c0-.244-.08-.432-.24-.564-.16-.132-.38-.198-.66-.198-.276 0-.494.066-.654.198-.16.132-.24.322-.24.57 0 .224.082.404.246.54.168.136.384.204.648.204.268 0 .484-.068.648-.204a.677.677 0 0 0 .252-.546Zm-.9 1.17c-.296 0-.538.07-.726.21-.188.136-.282.342-.282.618 0 .256.09.462.27.618.184.156.43.234.738.234s.552-.078.732-.234a.778.778 0 0 0 .27-.618c0-.268-.092-.472-.276-.612-.184-.144-.426-.216-.726-.216Zm2.561 2.052a.36.36 0 0 1-.264-.108.36.36 0 0 1-.108-.264.36.36 0 0 1 .108-.264.36.36 0 0 1 .264-.108c.1 0 .184.036.252.108a.36.36 0 0 1 .108.264.36.36 0 0 1-.108.264.333.333 0 0 1-.252.108Zm0-2.568a.36.36 0 0 1-.264-.108.36.36 0 0 1-.108-.264.36.36 0 0 1 .108-.264.36.36 0 0 1 .264-.108c.1 0 .184.036.252.108a.36.36 0 0 1 .108.264.36.36 0 0 1-.108.264.333.333 0 0 1-.252.108Zm1.043.318c0-.688.112-1.224.336-1.608.224-.388.616-.582 1.176-.582.556 0 .946.194 1.17.582.224.384.336.92.336 1.608 0 .7-.112 1.244-.336 1.632-.224.388-.614.582-1.17.582-.56 0-.952-.194-1.176-.582-.224-.388-.336-.932-.336-1.632Zm2.478 0c0-.348-.024-.642-.072-.882a1.099 1.099 0 0 0-.282-.588c-.14-.148-.344-.222-.612-.222-.272 0-.48.074-.624.222a1.16 1.16 0 0 0-.282.588c-.044.24-.066.534-.066.882 0 .36.022.662.066.906.048.244.142.44.282.588.144.148.352.222.624.222.268 0 .472-.074.612-.222.144-.148.238-.344.282-.588.048-.244.072-.546.072-.906Zm1.32 0c0-.688.112-1.224.336-1.608.224-.388.616-.582 1.176-.582.556 0 .946.194 1.17.582.224.384.336.92.336 1.608 0 .7-.112 1.244-.336 1.632-.224.388-.614.582-1.17.582-.56 0-.952-.194-1.176-.582-.224-.388-.336-.932-.336-1.632Zm2.478 0c0-.348-.024-.642-.072-.882a1.099 1.099 0 0 0-.282-.588c-.14-.148-.344-.222-.612-.222-.272 0-.48.074-.624.222a1.16 1.16 0 0 0-.282.588c-.044.24-.066.534-.066.882 0 .36.022.662.066.906.048.244.142.44.282.588.144.148.352.222.624.222.268 0 .472-.074.612-.222.144-.148.238-.344.282-.588.048-.244.072-.546.072-.906Zm5.32-.216v.462H96.28v-.462h2.394Zm2.449-1.41v-.498h1.128v4.338h-.552v-3.84h-.576Zm4.514.534c-.088-.444-.362-.666-.822-.666-.356 0-.622.138-.798.414-.176.272-.262.722-.258 1.35.092-.208.244-.37.456-.486.216-.12.456-.18.72-.18.412 0 .74.128.984.384.248.256.372.61.372 1.062 0 .272-.054.516-.162.732a1.193 1.193 0 0 1-.48.516c-.212.128-.47.192-.774.192-.412 0-.734-.092-.966-.276a1.443 1.443 0 0 1-.486-.762c-.092-.324-.138-.724-.138-1.2 0-1.468.512-2.202 1.536-2.202.392 0 .7.106.924.318.224.212.356.48.396.804h-.504Zm-.816.894c-.172 0-.334.036-.486.108a.866.866 0 0 0-.372.318.92.92 0 0 0-.138.516c0 .304.088.552.264.744.176.188.428.282.756.282.28 0 .502-.086.666-.258.168-.176.252-.412.252-.708 0-.312-.08-.556-.24-.732-.16-.18-.394-.27-.702-.27Zm2.501 2.448a.36.36 0 0 1-.264-.108.36.36 0 0 1-.108-.264.36.36 0 0 1 .108-.264.36.36 0 0 1 .264-.108c.1 0 .184.036.252.108a.36.36 0 0 1 .108.264.36.36 0 0 1-.108.264.333.333 0 0 1-.252.108Zm0-2.568a.36.36 0 0 1-.264-.108.36.36 0 0 1-.108-.264.36.36 0 0 1 .108-.264.36.36 0 0 1 .264-.108c.1 0 .184.036.252.108a.36.36 0 0 1 .108.264.36.36 0 0 1-.108.264.333.333 0 0 1-.252.108Zm1.043.318c0-.688.112-1.224.336-1.608.224-.388.616-.582 1.176-.582.556 0 .946.194 1.17.582.224.384.336.92.336 1.608 0 .7-.112 1.244-.336 1.632-.224.388-.614.582-1.17.582-.56 0-.952-.194-1.176-.582-.224-.388-.336-.932-.336-1.632Zm2.478 0c0-.348-.024-.642-.072-.882a1.099 1.099 0 0 0-.282-.588c-.14-.148-.344-.222-.612-.222-.272 0-.48.074-.624.222a1.16 1.16 0 0 0-.282.588c-.044.24-.066.534-.066.882 0 .36.022.662.066.906.048.244.142.44.282.588.144.148.352.222.624.222.268 0 .472-.074.612-.222.144-.148.238-.344.282-.588.048-.244.072-.546.072-.906Zm1.32 0c0-.688.112-1.224.336-1.608.224-.388.616-.582 1.176-.582.556 0 .946.194 1.17.582.224.384.336.92.336 1.608 0 .7-.112 1.244-.336 1.632-.224.388-.614.582-1.17.582-.56 0-.952-.194-1.176-.582-.224-.388-.336-.932-.336-1.632Zm2.478 0c0-.348-.024-.642-.072-.882a1.099 1.099 0 0 0-.282-.588c-.14-.148-.344-.222-.612-.222-.272 0-.48.074-.624.222a1.16 1.16 0 0 0-.282.588c-.044.24-.066.534-.066.882 0 .36.022.662.066.906.048.244.142.44.282.588.144.148.352.222.624.222.268 0 .472-.074.612-.222.144-.148.238-.344.282-.588.048-.244.072-.546.072-.906Z" fill="#252836" fill-opacity=".6"/><rect x="26" y="22.34" width="85.584" height="18.405" rx="2" fill="#F4F5F4"/><path d="M32.3 30.546v.465h-.924v3.01h-.57v-3.01h-.93v-.465H32.3Zm3.098.72v2.755h-.57v-.325a.942.942 0 0 1-.355.27 1.126 1.126 0 0 1-.46.095 1.25 1.25 0 0 1-.585-.135.995.995 0 0 1-.405-.4 1.316 1.316 0 0 1-.145-.64v-1.62h.565v1.535c0 .247.062.437.185.57.123.13.292.195.505.195.213 0 .382-.065.505-.195.127-.133.19-.323.19-.57v-1.535h.57Zm3.302 1.31c0 .104-.006.197-.02.28h-2.105c.017.22.099.397.245.53.147.134.327.2.54.2.307 0 .524-.128.65-.385h.615a1.25 1.25 0 0 1-.455.625c-.216.16-.486.24-.81.24-.263 0-.5-.058-.71-.175a1.309 1.309 0 0 1-.49-.5 1.558 1.558 0 0 1-.175-.75c0-.283.057-.531.17-.745a1.23 1.23 0 0 1 .485-.5c.21-.116.45-.175.72-.175.26 0 .492.057.695.17.204.114.362.274.475.48.114.204.17.439.17.705Zm-.595-.18a.648.648 0 0 0-.225-.505.804.804 0 0 0-.545-.19.726.726 0 0 0-.505.19.774.774 0 0 0-.25.505h1.525Zm2.181 1.67a1.43 1.43 0 0 1-.585-.115 1.057 1.057 0 0 1-.405-.32.81.81 0 0 1-.16-.455h.59c.01.117.065.215.165.295a.628.628 0 0 0 .385.115c.16 0 .283-.03.37-.09.09-.063.135-.143.135-.24 0-.103-.05-.18-.15-.23a2.67 2.67 0 0 0-.465-.165 4.524 4.524 0 0 1-.505-.165.906.906 0 0 1-.34-.245.65.65 0 0 1-.14-.435c0-.146.044-.28.13-.4a.86.86 0 0 1 .37-.29c.163-.07.35-.105.56-.105.313 0 .565.08.755.24a.842.842 0 0 1 .31.645h-.57a.406.406 0 0 0-.15-.295.561.561 0 0 0-.365-.11.592.592 0 0 0-.345.085.263.263 0 0 0-.12.225c0 .074.027.135.08.185.053.05.119.09.195.12a7.1 7.1 0 0 0 .34.105c.2.054.363.109.49.165.13.054.242.134.335.24a.642.642 0 0 1 .145.425.713.713 0 0 1-.13.42.86.86 0 0 1-.37.29c-.157.07-.342.105-.555.105Zm1.506-1.435c0-.276.057-.521.17-.735a1.27 1.27 0 0 1 1.665-.555c.177.077.317.18.42.31v-1.33h.575v3.7h-.575v-.415a1.064 1.064 0 0 1-.39.33c-.163.087-.352.13-.565.13-.24 0-.46-.06-.66-.18a1.335 1.335 0 0 1-.47-.51 1.602 1.602 0 0 1-.17-.745Zm2.255.01a.98.98 0 0 0-.12-.495.808.808 0 0 0-1.125-.32.805.805 0 0 0-.31.315.986.986 0 0 0-.115.49c0 .19.038.357.115.5.08.144.183.254.31.33a.823.823 0 0 0 .82 0 .808.808 0 0 0 .305-.32c.08-.143.12-.31.12-.5Zm1.159-.01c0-.276.056-.521.17-.735a1.27 1.27 0 0 1 1.13-.675c.216 0 .405.044.565.13.163.084.293.189.39.315v-.4h.575v2.755h-.575v-.41c-.097.13-.229.239-.395.325-.167.087-.357.13-.57.13-.237 0-.454-.06-.65-.18a1.336 1.336 0 0 1-.47-.51 1.603 1.603 0 0 1-.17-.745Zm2.255.01a.98.98 0 0 0-.12-.495.807.807 0 0 0-1.125-.32.806.806 0 0 0-.31.315.987.987 0 0 0-.115.49c0 .19.038.357.115.5.08.144.183.254.31.33a.823.823 0 0 0 .82 0 .807.807 0 0 0 .305-.32c.08-.143.12-.31.12-.5Zm3.828-1.375-1.69 4.05h-.59l.56-1.34-1.085-2.71h.635l.775 2.1.805-2.1h.59Z" fill="#252836"/><path d="M73.243 32.176c0-.573.094-1.02.28-1.34.187-.323.514-.484.98-.484.463 0 .788.161.975.485.187.32.28.766.28 1.34 0 .583-.093 1.036-.28 1.36-.186.323-.511.485-.975.485-.466 0-.793-.162-.98-.486-.186-.323-.28-.776-.28-1.36Zm2.065 0c0-.29-.02-.535-.06-.735a.916.916 0 0 0-.235-.49c-.117-.123-.287-.184-.51-.184-.227 0-.4.061-.52.184a.966.966 0 0 0-.235.49c-.037.2-.055.446-.055.735 0 .3.019.552.055.755.04.204.118.367.235.49.12.124.293.185.52.185.224 0 .394-.061.51-.184a.916.916 0 0 0 .235-.49c.04-.204.06-.456.06-.756Zm1.685.875c.033.19.11.337.23.44.123.104.288.156.495.156.276 0 .48-.109.61-.325.133-.217.197-.582.19-1.096a.767.767 0 0 1-.35.355 1.182 1.182 0 0 1-.545.125c-.224 0-.424-.045-.6-.135a1.02 1.02 0 0 1-.41-.404 1.28 1.28 0 0 1-.15-.64c0-.357.103-.644.31-.86.207-.22.5-.33.88-.33.466 0 .793.151.98.454.19.304.285.756.285 1.356 0 .42-.039.766-.115 1.04-.073.273-.2.481-.38.625-.177.143-.42.215-.73.215-.34 0-.605-.092-.795-.276a1.079 1.079 0 0 1-.325-.7h.42Zm.705-.73a.764.764 0 0 0 .55-.204c.143-.14.215-.329.215-.565 0-.25-.07-.452-.21-.605-.14-.154-.337-.23-.59-.23a.738.738 0 0 0-.56.22c-.137.146-.205.34-.205.58 0 .243.068.438.205.585.137.146.335.22.595.22Zm2.104 1.73a.3.3 0 0 1-.22-.09.3.3 0 0 1-.09-.22.3.3 0 0 1 .09-.22.3.3 0 0 1 .22-.09c.084 0 .154.03.21.09a.3.3 0 0 1 .09.22.3.3 0 0 1-.09.22.277.277 0 0 1-.21.09Zm0-2.14a.3.3 0 0 1-.22-.09.3.3 0 0 1-.09-.22.3.3 0 0 1 .09-.22.3.3 0 0 1 .22-.09c.084 0 .154.03.21.09a.3.3 0 0 1 .09.22.3.3 0 0 1-.09.22.277.277 0 0 1-.21.09Zm.87.265c0-.573.093-1.02.28-1.34.186-.323.513-.484.98-.484.463 0 .788.161.975.485.186.32.28.766.28 1.34 0 .583-.094 1.036-.28 1.36-.187.323-.512.485-.975.485-.467 0-.794-.162-.98-.486-.187-.323-.28-.776-.28-1.36Zm2.065 0c0-.29-.02-.535-.06-.735a.916.916 0 0 0-.235-.49c-.117-.123-.287-.184-.51-.184-.227 0-.4.061-.52.184a.966.966 0 0 0-.235.49c-.037.2-.055.446-.055.735 0 .3.018.552.055.755.04.204.118.367.235.49.12.124.293.185.52.185.223 0 .393-.061.51-.184a.916.916 0 0 0 .235-.49c.04-.204.06-.456.06-.756Zm1.1 0c0-.573.093-1.02.28-1.34.186-.323.513-.484.98-.484.463 0 .788.161.974.485.187.32.28.766.28 1.34 0 .583-.093 1.036-.28 1.36-.186.323-.511.485-.975.485-.466 0-.793-.162-.98-.486-.186-.323-.28-.776-.28-1.36Zm2.064 0c0-.29-.02-.535-.06-.735a.915.915 0 0 0-.235-.49c-.116-.123-.286-.184-.51-.184-.226 0-.4.061-.52.184a.966.966 0 0 0-.235.49c-.036.2-.055.446-.055.735 0 .3.019.552.055.755.04.204.119.367.235.49.12.124.294.185.52.185.224 0 .394-.061.51-.184a.915.915 0 0 0 .235-.49c.04-.204.06-.456.06-.756Zm4.433-.18v.386h-1.995v-.385h1.995Zm2.042-1.174v-.415h.94v3.615h-.46v-3.2h-.48Zm1.636 2.395v-.346l1.755-2.43h.546v2.38h.5v.396h-.5v.805h-.45v-.805h-1.85Zm1.87-2.3-1.345 1.904h1.345v-1.904Zm1.63 3.134a.3.3 0 0 1-.22-.09.3.3 0 0 1-.09-.22.3.3 0 0 1 .09-.22.3.3 0 0 1 .22-.09c.083 0 .153.03.21.09a.3.3 0 0 1 .09.22.3.3 0 0 1-.09.22.277.277 0 0 1-.21.09Zm0-2.14a.3.3 0 0 1-.22-.09.3.3 0 0 1-.09-.22.3.3 0 0 1 .09-.22.3.3 0 0 1 .22-.09c.083 0 .153.03.21.09a.3.3 0 0 1 .09.22.3.3 0 0 1-.09.22.277.277 0 0 1-.21.09Zm.87.265c0-.573.093-1.02.28-1.34.186-.323.513-.484.98-.484.463 0 .788.161.974.485.187.32.28.766.28 1.34 0 .583-.093 1.036-.28 1.36-.186.323-.511.485-.975.485-.466 0-.793-.162-.98-.486-.186-.323-.28-.776-.28-1.36Zm2.064 0c0-.29-.02-.535-.06-.735a.91.91 0 0 0-.235-.49c-.116-.123-.286-.184-.51-.184-.226 0-.4.061-.52.184a.966.966 0 0 0-.235.49c-.036.2-.055.446-.055.735 0 .3.019.552.055.755.04.204.119.367.235.49.12.124.294.185.52.185.224 0 .394-.061.51-.184a.91.91 0 0 0 .235-.49c.04-.204.06-.456.06-.756Zm1.1 0c0-.573.093-1.02.28-1.34.187-.323.513-.484.98-.484.463 0 .788.161.975.485.187.32.28.766.28 1.34 0 .583-.093 1.036-.28 1.36-.187.323-.512.485-.975.485-.467 0-.793-.162-.98-.486-.187-.323-.28-.776-.28-1.36Zm2.065 0c0-.29-.02-.535-.06-.735a.918.918 0 0 0-.235-.49c-.117-.123-.287-.184-.51-.184-.227 0-.4.061-.52.184a.963.963 0 0 0-.235.49c-.037.2-.055.446-.055.735 0 .3.018.552.055.755.04.204.118.367.235.49.12.124.293.185.52.185.223 0 .393-.061.51-.184a.918.918 0 0 0 .235-.49c.04-.204.06-.456.06-.756Z" fill="#252836" fill-opacity=".6"/><rect x="26" y="42.746" width="76.584" height="16.47" rx="2" fill="#F4F5F4"/><path d="m33.503 49.966-.824 2.78h-.516l-.584-2.104-.62 2.104-.512.004-.788-2.784h.484l.576 2.264.624-2.264h.512l.58 2.252.58-2.252h.488Zm2.416 1.624c0 .082-.005.157-.015.224h-1.685a.611.611 0 0 0 .197.424c.117.106.26.16.431.16.246 0 .42-.103.52-.308h.492a1 1 0 0 1-.364.5c-.173.128-.389.192-.648.192-.21 0-.4-.047-.568-.14a1.046 1.046 0 0 1-.392-.4 1.245 1.245 0 0 1-.14-.6c0-.227.046-.426.136-.596a.983.983 0 0 1 .389-.4c.168-.094.36-.14.575-.14.209 0 .394.045.556.136.163.09.29.218.38.384.091.162.136.35.136.564Zm-.475-.144a.52.52 0 0 0-.18-.404.644.644 0 0 0-.437-.152.581.581 0 0 0-.404.152.619.619 0 0 0-.2.404h1.22Zm.792.188c0-.222.046-.418.136-.588a1.015 1.015 0 0 1 1.332-.444.852.852 0 0 1 .336.248v-1.064h.46v2.96h-.46v-.332a.85.85 0 0 1-.312.264.95.95 0 0 1-.452.104c-.192 0-.368-.048-.528-.144a1.07 1.07 0 0 1-.376-.408 1.282 1.282 0 0 1-.136-.596Zm1.804.008a.785.785 0 0 0-.096-.396.646.646 0 0 0-.9-.256.644.644 0 0 0-.248.252.79.79 0 0 0-.092.392c0 .152.03.285.092.4a.697.697 0 0 0 .248.264.658.658 0 0 0 .656 0 .646.646 0 0 0 .244-.256.807.807 0 0 0 .096-.4Zm2.191-1.136c.173 0 .328.036.464.108a.765.765 0 0 1 .324.32c.078.14.116.312.116.512v1.3h-.452v-1.232c0-.198-.05-.348-.148-.452a.523.523 0 0 0-.404-.16.536.536 0 0 0-.408.16c-.099.104-.148.254-.148.452v1.232h-.456v-2.204h.456v.252a.759.759 0 0 1 .284-.212.928.928 0 0 1 .372-.076Zm3.526 1.084c0 .082-.005.157-.016.224h-1.684a.612.612 0 0 0 .196.424c.117.106.261.16.432.16.245 0 .418-.103.52-.308h.492a1 1 0 0 1-.364.5 1.06 1.06 0 0 1-.648.192c-.21 0-.4-.047-.568-.14a1.046 1.046 0 0 1-.392-.4 1.246 1.246 0 0 1-.14-.6c0-.227.045-.426.136-.596a.984.984 0 0 1 .388-.4c.168-.094.36-.14.576-.14.208 0 .393.045.556.136.163.09.29.218.38.384.09.162.136.35.136.564Zm-.476-.144a.52.52 0 0 0-.18-.404.644.644 0 0 0-.436-.152.581.581 0 0 0-.404.152.619.619 0 0 0-.2.404h1.22Zm1.745 1.336c-.174 0-.33-.031-.469-.092a.845.845 0 0 1-.324-.256.648.648 0 0 1-.127-.364h.471a.33.33 0 0 0 .133.236.503.503 0 0 0 .307.092.516.516 0 0 0 .296-.072c.072-.051.108-.115.108-.192 0-.083-.04-.144-.12-.184a2.132 2.132 0 0 0-.372-.132c-.165-.046-.3-.09-.404-.132a.726.726 0 0 1-.271-.196.52.52 0 0 1-.112-.348c0-.118.034-.224.103-.32a.688.688 0 0 1 .297-.232c.13-.056.28-.084.447-.084.251 0 .453.064.605.192a.673.673 0 0 1 .248.516h-.456a.325.325 0 0 0-.12-.236.448.448 0 0 0-.292-.088.474.474 0 0 0-.276.068.21.21 0 0 0-.096.18c0 .058.02.108.064.148.042.04.094.072.156.096.06.02.151.049.271.084.16.042.291.086.392.132a.71.71 0 0 1 .269.192.513.513 0 0 1 .116.34.57.57 0 0 1-.104.336.687.687 0 0 1-.297.232 1.081 1.081 0 0 1-.444.084Zm1.204-1.148c0-.222.046-.418.136-.588a1.015 1.015 0 0 1 1.332-.444.852.852 0 0 1 .336.248v-1.064h.46v2.96h-.46v-.332a.85.85 0 0 1-.312.264.95.95 0 0 1-.452.104c-.192 0-.368-.048-.528-.144a1.068 1.068 0 0 1-.376-.408 1.282 1.282 0 0 1-.136-.596Zm1.804.008a.785.785 0 0 0-.096-.396.647.647 0 0 0-.9-.256.644.644 0 0 0-.248.252.788.788 0 0 0-.092.392c0 .152.03.285.092.4a.697.697 0 0 0 .248.264.658.658 0 0 0 .656 0 .647.647 0 0 0 .244-.256.807.807 0 0 0 .096-.4Zm.927-.008c0-.222.046-.418.136-.588a1.015 1.015 0 0 1 .904-.54c.174 0 .324.034.452.104.13.066.235.15.312.252v-.32h.46v2.204h-.46v-.328a.905.905 0 0 1-.316.26.974.974 0 0 1-.456.104.98.98 0 0 1-.52-.144 1.07 1.07 0 0 1-.376-.408 1.282 1.282 0 0 1-.136-.596Zm1.804.008a.785.785 0 0 0-.096-.396.646.646 0 0 0-.9-.256.644.644 0 0 0-.248.252.79.79 0 0 0-.092.392c0 .152.03.285.092.4a.697.697 0 0 0 .248.264.658.658 0 0 0 .656 0 .646.646 0 0 0 .244-.256.807.807 0 0 0 .096-.4Zm3.063-1.1-1.352 3.24h-.472l.448-1.072-.868-2.168h.508l.62 1.68.644-1.68h.472Z" fill="#252836"/><path d="M74.152 50.44v-.331h.752V53h-.368v-2.56h-.384Zm1.397 1.085c0-.46.075-.816.224-1.072.15-.26.41-.389.784-.389.37 0 .63.13.78.389.15.255.224.613.224 1.072 0 .466-.075.829-.224 1.087-.15.26-.41.389-.78.389-.373 0-.635-.13-.784-.389-.15-.258-.224-.62-.224-1.087Zm1.652 0c0-.233-.016-.428-.048-.588a.732.732 0 0 0-.188-.392c-.093-.1-.23-.148-.408-.148-.181 0-.32.049-.416.148a.773.773 0 0 0-.188.392 3.33 3.33 0 0 0-.044.588c0 .24.015.44.044.604a.773.773 0 0 0 .188.392c.096.098.235.148.416.148.179 0 .315-.05.408-.148a.732.732 0 0 0 .188-.392c.032-.163.048-.364.048-.604Zm1.056 1.5a.24.24 0 0 1-.176-.072.24.24 0 0 1-.072-.177.24.24 0 0 1 .072-.176.24.24 0 0 1 .176-.072c.066 0 .122.025.168.072a.24.24 0 0 1 .072.176.24.24 0 0 1-.072.176.222.222 0 0 1-.168.073Zm0-1.712a.24.24 0 0 1-.176-.073.24.24 0 0 1-.072-.175.24.24 0 0 1 .072-.176.24.24 0 0 1 .176-.073c.066 0 .122.024.168.072a.24.24 0 0 1 .072.177.24.24 0 0 1-.072.175.222.222 0 0 1-.168.072Zm.695.212c0-.46.075-.816.224-1.072.15-.26.411-.389.784-.389.371 0 .631.13.78.389.15.255.224.613.224 1.072 0 .466-.074.829-.224 1.087-.149.26-.409.389-.78.389-.373 0-.634-.13-.784-.389-.149-.258-.224-.62-.224-1.087Zm1.652 0c0-.233-.016-.428-.048-.588a.732.732 0 0 0-.188-.392c-.093-.1-.229-.148-.408-.148-.18 0-.32.049-.416.148a.773.773 0 0 0-.188.392 3.33 3.33 0 0 0-.044.588c0 .24.015.44.044.604a.773.773 0 0 0 .188.392c.096.098.235.148.416.148.18 0 .315-.05.408-.148a.732.732 0 0 0 .188-.392c.032-.163.048-.364.048-.604Zm.88 0c0-.46.075-.816.224-1.072.15-.26.41-.389.784-.389.37 0 .63.13.78.389.15.255.224.613.224 1.072 0 .466-.075.829-.224 1.087-.15.26-.41.389-.78.389-.373 0-.635-.13-.784-.389-.15-.258-.224-.62-.224-1.087Zm1.652 0c0-.233-.016-.428-.048-.588a.732.732 0 0 0-.188-.392c-.093-.1-.23-.148-.408-.148-.181 0-.32.049-.416.148a.773.773 0 0 0-.188.392 3.33 3.33 0 0 0-.044.588c0 .24.015.44.044.604a.773.773 0 0 0 .188.392c.096.098.235.148.416.148.179 0 .315-.05.408-.148a.732.732 0 0 0 .188-.392c.032-.163.048-.364.048-.604Zm3.546-.145v.308h-1.596v-.308h1.596Zm1.634-.94v-.331h.752V53H88.7v-2.56h-.384Zm3.177-.047L90.381 53h-.368l1.128-2.572h-1.544v-.313h1.896v.276Zm.6 2.632a.24.24 0 0 1-.176-.072.24.24 0 0 1-.072-.177.24.24 0 0 1 .072-.176.24.24 0 0 1 .176-.072c.066 0 .122.025.168.072a.24.24 0 0 1 .072.176.24.24 0 0 1-.072.176.222.222 0 0 1-.168.073Zm0-1.712a.24.24 0 0 1-.176-.073.24.24 0 0 1-.072-.175.24.24 0 0 1 .072-.176.24.24 0 0 1 .176-.073c.066 0 .122.024.168.072a.24.24 0 0 1 .072.177.24.24 0 0 1-.072.175.222.222 0 0 1-.168.072Zm.695.212c0-.46.075-.816.224-1.072.15-.26.41-.389.784-.389.37 0 .63.13.78.389.15.255.224.613.224 1.072 0 .466-.075.829-.224 1.087-.15.26-.41.389-.78.389-.373 0-.635-.13-.784-.389-.15-.258-.224-.62-.224-1.087Zm1.652 0c0-.233-.016-.428-.048-.588a.733.733 0 0 0-.188-.392c-.093-.1-.23-.148-.408-.148-.181 0-.32.049-.416.148a.772.772 0 0 0-.188.392c-.03.16-.044.355-.044.588 0 .24.015.44.044.604a.772.772 0 0 0 .188.392c.096.098.235.148.416.148.179 0 .315-.05.408-.148a.733.733 0 0 0 .188-.392c.032-.163.048-.364.048-.604Zm.88 0c0-.46.075-.816.224-1.072.15-.26.41-.389.784-.389.37 0 .63.13.78.389.15.255.224.613.224 1.072 0 .466-.075.829-.224 1.087-.15.26-.41.389-.78.389-.373 0-.635-.13-.784-.389-.15-.258-.224-.62-.224-1.087Zm1.652 0c0-.233-.016-.428-.048-.588a.732.732 0 0 0-.188-.392c-.093-.1-.23-.148-.408-.148-.181 0-.32.049-.416.148a.773.773 0 0 0-.188.392 3.33 3.33 0 0 0-.044.588c0 .24.015.44.044.604a.773.773 0 0 0 .188.392c.096.098.235.148.416.148.179 0 .315-.05.408-.148a.732.732 0 0 0 .188-.392c.032-.163.048-.364.048-.604Z" fill="#252836" fill-opacity=".6"/></svg>