<svg width="500" height="500" viewBox="0 0 500 500" fill="none" xmlns="http://www.w3.org/2000/svg">
<mask id="mask0_102:158" style="mask-type:alpha" maskUnits="userSpaceOnUse" x="58" y="46" width="384" height="408">
<path d="M441.822 249.989C441.822 362.649 318.133 455.461 239.532 453.978C140.344 452.107 58 362.649 58 249.989C58 137.329 143.921 46 249.911 46C355.9 46 441.822 137.329 441.822 249.989Z" fill="#44B090"/>
</mask>
<g mask="url(#mask0_102:158)">
<path d="M162.786 278.699C170.558 299.423 202.004 340.583 216.755 358.573C241.581 376.922 298.788 354.256 302.026 315.398C305.264 276.541 334.407 230.128 337.645 188.032C340.883 145.936 317.398 125.995 307.423 118.952C289.073 105.997 221.073 89.8087 174.659 134.063C128.246 178.317 153.072 252.794 162.786 278.699Z" fill="#44B090"/>
<path d="M185.468 207.072C180.114 223.994 173.57 233.421 170.968 236.018C169.109 242.699 170.298 266.079 189.93 306.159C209.562 346.239 247.933 345.126 264.665 339.559C277.307 332.508 304.598 310.835 312.629 280.552C322.668 242.699 313.745 197.051 307.052 185.918C300.359 174.785 280.281 162.538 264.665 174.785C249.049 187.031 227.855 180.351 217.816 180.351C207.777 180.351 192.161 185.918 185.468 207.072Z" fill="#3EDBAB"/>
<path d="M190.585 397.563L207.855 329.563L286.649 323.086L308.237 397.563C301.761 405.119 281.684 421.309 253.189 425.627C224.693 429.944 199.58 408.717 190.585 397.563Z" fill="#3EDBAB"/>
<path d="M251.03 342.515C235.487 344.242 215.77 334.24 207.855 329.563L190.585 395.404L290.967 338.198L286.649 323.086C281.253 328.843 266.573 340.788 251.03 342.515Z" fill="#3EC69C"/>
<path d="M121.504 423.547C143.092 403.687 176.552 394.404 190.584 392.245C194.542 403.759 212.69 423.976 247.23 423.112C281.77 422.249 300.163 403.039 306.28 392.245C311.317 392.245 326.586 394.188 343.856 401.96C361.126 409.731 387.75 439.018 398.904 452.69H95.5992C95.2394 451.251 99.9167 443.408 121.504 423.547Z" fill="#44B090"/>
</g>
<path d="M222.078 287.68L240.128 305.229L269.97 265.698" stroke="#FBFEFD" stroke-width="3"/>
<circle cx="248.685" cy="285.465" r="54.2144" stroke="#FBFEFD" stroke-width="2"/>
</svg>
