<svg width="500" height="500" viewBox="0 0 72 89" fill="none" xmlns="http://www.w3.org/2000/svg"><rect width="71.2" height="89" rx="4" fill="#DFE2E2"/><mask id="a" style="mask-type:alpha" maskUnits="userSpaceOnUse" x="0" y="0" width="72" height="90"><rect width="71.2" height="89" rx="4" fill="#44B090"/></mask><g mask="url(#a)"><path d="M27.365 60.222c-12.779-.266-16.861-5.213-17.305-7.654-.26-.832-.832-5.657 3.495-9.65 4.326-3.994 5.99-10.317 6.156-12.48.167-2.164 3.162-7.322 8.986-8.32 5.823-.999 18.137-.832 20.133 7.321 1.997 8.154 3.661 8.486 6.49 12.147 2.829 3.66 4.492 7.987 4.16 10.982-.333 2.995-3.827 5.325-7.654 6.656-3.828 1.331-8.487 1.331-24.46.998Z" fill="#E62129" stroke="#D3141C"/><path d="M23.996 44.305c-.999 3.156-2.219 4.914-2.704 5.398-.347 1.246-.125 5.606 3.536 13.081s10.817 7.268 13.938 6.23c2.358-1.316 7.447-5.358 8.945-11.005 1.872-7.06.208-15.573-1.04-17.65-1.248-2.076-4.993-4.36-7.905-2.076-2.913 2.284-6.865 1.038-8.737 1.038-1.873 0-4.785 1.039-6.033 4.984Z" fill="#EE6A6F"/><path d="M50.328 48.983c-16.64-8.154-28.953.665-30.45 1.165 1.331-4.493 5.724-13.811 12.646-15.143 6.922-1.33 12.979.999 15.142 2.33 6.434 6.6 15.974 18.17 2.662 11.648Z" fill="#E62129"/><path d="m24.95 79.831 3.22-12.682 14.696-1.207 4.026 13.89c-1.208 1.408-4.952 4.428-10.267 5.233-5.314.805-9.998-3.154-11.675-5.234Z" fill="#EE6A6F"/><path d="M36.223 69.565c-2.899.322-6.576-1.543-8.052-2.416L24.95 79.43l18.72-10.67-.804-2.817c-1.007 1.073-3.745 3.3-6.643 3.623Z" fill="#EA4F55"/><path d="M12.066 84.678c4.026-3.704 10.266-5.435 12.883-5.838.738 2.147 4.123 5.917 10.565 5.756 6.441-.16 9.871-3.743 11.012-5.756.94 0 3.787.362 7.008 1.812 3.22 1.449 8.186 6.91 10.266 9.46H7.235c-.067-.268.805-1.73 4.831-5.434Z" fill="#E62129"/><path d="M12.556 56.139c5.658-5.492 12.314-10.983 25.792-10.483 10.782.399 17.138 4.825 20.466 8.819" stroke="#D3141C"/><path d="M35.52 53.31v6.655" stroke="#DB171F" stroke-width="1.5"/></g></svg>