<svg width="500" height="500" viewBox="0 0 121 80" fill="none" xmlns="http://www.w3.org/2000/svg">
<circle cx="36.5556" cy="42.6949" r="36.5556" fill="#E62129"/>
<rect x="26.0001" y="0.000671387" width="94.4352" height="20.3086" rx="2" fill="#F4F5F4"/>
<path d="M34.9038 7.89256V12.0626H34.2198V9.20656L32.9478 12.0626H32.4738L31.1958 9.20656V12.0626H30.5118V7.89256H31.2498L32.7138 11.1626L34.1718 7.89256H34.9038ZM37.2668 12.1166C36.9548 12.1166 36.6728 12.0466 36.4208 11.9066C36.1688 11.7626 35.9708 11.5626 35.8268 11.3066C35.6828 11.0466 35.6108 10.7466 35.6108 10.4066C35.6108 10.0706 35.6848 9.77256 35.8328 9.51256C35.9808 9.25256 36.1828 9.05256 36.4388 8.91256C36.6948 8.77256 36.9808 8.70256 37.2968 8.70256C37.6128 8.70256 37.8988 8.77256 38.1548 8.91256C38.4108 9.05256 38.6128 9.25256 38.7608 9.51256C38.9088 9.77256 38.9828 10.0706 38.9828 10.4066C38.9828 10.7426 38.9068 11.0406 38.7548 11.3006C38.6028 11.5606 38.3948 11.7626 38.1308 11.9066C37.8708 12.0466 37.5828 12.1166 37.2668 12.1166ZM37.2668 11.5226C37.4428 11.5226 37.6068 11.4806 37.7588 11.3966C37.9148 11.3126 38.0408 11.1866 38.1368 11.0186C38.2328 10.8506 38.2808 10.6466 38.2808 10.4066C38.2808 10.1666 38.2348 9.96456 38.1428 9.80056C38.0508 9.63256 37.9288 9.50656 37.7768 9.42256C37.6248 9.33856 37.4608 9.29656 37.2848 9.29656C37.1088 9.29656 36.9448 9.33856 36.7928 9.42256C36.6448 9.50656 36.5268 9.63256 36.4388 9.80056C36.3508 9.96456 36.3068 10.1666 36.3068 10.4066C36.3068 10.7626 36.3968 11.0386 36.5768 11.2346C36.7608 11.4266 36.9908 11.5226 37.2668 11.5226ZM41.3569 8.70256C41.6169 8.70256 41.8489 8.75656 42.0529 8.86456C42.2609 8.97256 42.4229 9.13256 42.5389 9.34456C42.6549 9.55656 42.7129 9.81256 42.7129 10.1126V12.0626H42.0349V10.2146C42.0349 9.91856 41.9609 9.69256 41.8129 9.53656C41.6649 9.37656 41.4629 9.29656 41.2069 9.29656C40.9509 9.29656 40.7469 9.37656 40.5949 9.53656C40.4469 9.69256 40.3729 9.91856 40.3729 10.2146V12.0626H39.6889V8.75656H40.3729V9.13456C40.4849 8.99856 40.6269 8.89256 40.7989 8.81656C40.9749 8.74056 41.1609 8.70256 41.3569 8.70256ZM43.3874 10.3946C43.3874 10.0626 43.4554 9.76856 43.5914 9.51256C43.7314 9.25656 43.9194 9.05856 44.1554 8.91856C44.3954 8.77456 44.6614 8.70256 44.9534 8.70256C45.1694 8.70256 45.3814 8.75056 45.5894 8.84656C45.8014 8.93856 45.9694 9.06256 46.0934 9.21856V7.62256H46.7834V12.0626H46.0934V11.5646C45.9814 11.7246 45.8254 11.8566 45.6254 11.9606C45.4294 12.0646 45.2034 12.1166 44.9474 12.1166C44.6594 12.1166 44.3954 12.0446 44.1554 11.9006C43.9194 11.7526 43.7314 11.5486 43.5914 11.2886C43.4554 11.0246 43.3874 10.7266 43.3874 10.3946ZM46.0934 10.4066C46.0934 10.1786 46.0454 9.98056 45.9494 9.81256C45.8574 9.64456 45.7354 9.51656 45.5834 9.42856C45.4314 9.34056 45.2674 9.29656 45.0914 9.29656C44.9154 9.29656 44.7514 9.34056 44.5994 9.42856C44.4474 9.51256 44.3234 9.63856 44.2274 9.80656C44.1354 9.97056 44.0894 10.1666 44.0894 10.3946C44.0894 10.6226 44.1354 10.8226 44.2274 10.9946C44.3234 11.1666 44.4474 11.2986 44.5994 11.3906C44.7554 11.4786 44.9194 11.5226 45.0914 11.5226C45.2674 11.5226 45.4314 11.4786 45.5834 11.3906C45.7354 11.3026 45.8574 11.1746 45.9494 11.0066C46.0454 10.8346 46.0934 10.6346 46.0934 10.4066ZM47.4838 10.3946C47.4838 10.0626 47.5518 9.76856 47.6878 9.51256C47.8278 9.25656 48.0158 9.05856 48.2518 8.91856C48.4918 8.77456 48.7558 8.70256 49.0438 8.70256C49.3038 8.70256 49.5298 8.75456 49.7218 8.85856C49.9178 8.95856 50.0738 9.08456 50.1898 9.23656V8.75656H50.8798V12.0626H50.1898V11.5706C50.0738 11.7266 49.9158 11.8566 49.7158 11.9606C49.5158 12.0646 49.2878 12.1166 49.0318 12.1166C48.7478 12.1166 48.4878 12.0446 48.2518 11.9006C48.0158 11.7526 47.8278 11.5486 47.6878 11.2886C47.5518 11.0246 47.4838 10.7266 47.4838 10.3946ZM50.1898 10.4066C50.1898 10.1786 50.1418 9.98056 50.0458 9.81256C49.9538 9.64456 49.8318 9.51656 49.6798 9.42856C49.5278 9.34056 49.3638 9.29656 49.1878 9.29656C49.0118 9.29656 48.8478 9.34056 48.6958 9.42856C48.5438 9.51256 48.4198 9.63856 48.3238 9.80656C48.2318 9.97056 48.1858 10.1666 48.1858 10.3946C48.1858 10.6226 48.2318 10.8226 48.3238 10.9946C48.4198 11.1666 48.5438 11.2986 48.6958 11.3906C48.8518 11.4786 49.0158 11.5226 49.1878 11.5226C49.3638 11.5226 49.5278 11.4786 49.6798 11.3906C49.8318 11.3026 49.9538 11.1746 50.0458 11.0066C50.1418 10.8346 50.1898 10.6346 50.1898 10.4066ZM54.7842 8.75656L52.7562 13.6166H52.0482L52.7202 12.0086L51.4182 8.75656H52.1802L53.1102 11.2766L54.0762 8.75656H54.7842Z" fill="#252836"/>
<path d="M78.1594 9.84761C78.1594 9.15961 78.2714 8.62361 78.4954 8.23961C78.7194 7.85161 79.1114 7.65761 79.6714 7.65761C80.2274 7.65761 80.6174 7.85161 80.8414 8.23961C81.0654 8.62361 81.1774 9.15961 81.1774 9.84761C81.1774 10.5476 81.0654 11.0916 80.8414 11.4796C80.6174 11.8676 80.2274 12.0616 79.6714 12.0616C79.1114 12.0616 78.7194 11.8676 78.4954 11.4796C78.2714 11.0916 78.1594 10.5476 78.1594 9.84761ZM80.6374 9.84761C80.6374 9.49961 80.6134 9.20561 80.5654 8.96561C80.5214 8.72161 80.4274 8.52561 80.2834 8.37761C80.1434 8.22961 79.9394 8.15561 79.6714 8.15561C79.3994 8.15561 79.1914 8.22961 79.0474 8.37761C78.9074 8.52561 78.8134 8.72161 78.7654 8.96561C78.7214 9.20561 78.6994 9.49961 78.6994 9.84761C78.6994 10.2076 78.7214 10.5096 78.7654 10.7536C78.8134 10.9976 78.9074 11.1936 79.0474 11.3416C79.1914 11.4896 79.3994 11.5636 79.6714 11.5636C79.9394 11.5636 80.1434 11.4896 80.2834 11.3416C80.4274 11.1936 80.5214 10.9976 80.5654 10.7536C80.6134 10.5096 80.6374 10.2076 80.6374 9.84761ZM82.7489 9.80561C82.5249 9.71761 82.3529 9.58961 82.2329 9.42161C82.1129 9.25361 82.0529 9.04961 82.0529 8.80961C82.0529 8.59361 82.1069 8.39961 82.2149 8.22761C82.3229 8.05161 82.4829 7.91361 82.6949 7.81361C82.9109 7.70961 83.1709 7.65761 83.4749 7.65761C83.7789 7.65761 84.0369 7.70961 84.2489 7.81361C84.4649 7.91361 84.6269 8.05161 84.7349 8.22761C84.8469 8.39961 84.9029 8.59361 84.9029 8.80961C84.9029 9.04161 84.8409 9.24561 84.7169 9.42161C84.5929 9.59361 84.4229 9.72161 84.2069 9.80561C84.4549 9.88161 84.6509 10.0156 84.7949 10.2076C84.9429 10.3956 85.0169 10.6236 85.0169 10.8916C85.0169 11.1516 84.9529 11.3796 84.8249 11.5756C84.6969 11.7676 84.5149 11.9176 84.2789 12.0256C84.0469 12.1296 83.7789 12.1816 83.4749 12.1816C83.1709 12.1816 82.9029 12.1296 82.6709 12.0256C82.4429 11.9176 82.2649 11.7676 82.1369 11.5756C82.0089 11.3796 81.9449 11.1516 81.9449 10.8916C81.9449 10.6236 82.0169 10.3936 82.1609 10.2016C82.3049 10.0096 82.5009 9.87761 82.7489 9.80561ZM84.3749 8.87561C84.3749 8.63161 84.2949 8.44361 84.1349 8.31161C83.9749 8.17961 83.7549 8.11361 83.4749 8.11361C83.1989 8.11361 82.9809 8.17961 82.8209 8.31161C82.6609 8.44361 82.5809 8.63361 82.5809 8.88161C82.5809 9.10561 82.6629 9.28561 82.8269 9.42161C82.9949 9.55761 83.2109 9.62561 83.4749 9.62561C83.7429 9.62561 83.9589 9.55761 84.1229 9.42161C84.2909 9.28161 84.3749 9.09961 84.3749 8.87561ZM83.4749 10.0456C83.1789 10.0456 82.9369 10.1156 82.7489 10.2556C82.5609 10.3916 82.4669 10.5976 82.4669 10.8736C82.4669 11.1296 82.5569 11.3356 82.7369 11.4916C82.9209 11.6476 83.1669 11.7256 83.4749 11.7256C83.7829 11.7256 84.0269 11.6476 84.2069 11.4916C84.3869 11.3356 84.4769 11.1296 84.4769 10.8736C84.4769 10.6056 84.3849 10.4016 84.2009 10.2616C84.0169 10.1176 83.7749 10.0456 83.4749 10.0456ZM86.0361 12.0976C85.9321 12.0976 85.8441 12.0616 85.7721 11.9896C85.7001 11.9176 85.6641 11.8296 85.6641 11.7256C85.6641 11.6216 85.7001 11.5336 85.7721 11.4616C85.8441 11.3896 85.9321 11.3536 86.0361 11.3536C86.1361 11.3536 86.2201 11.3896 86.2881 11.4616C86.3601 11.5336 86.3961 11.6216 86.3961 11.7256C86.3961 11.8296 86.3601 11.9176 86.2881 11.9896C86.2201 12.0616 86.1361 12.0976 86.0361 12.0976ZM86.0361 9.52961C85.9321 9.52961 85.8441 9.49361 85.7721 9.42161C85.7001 9.34961 85.6641 9.26161 85.6641 9.15761C85.6641 9.05361 85.7001 8.96561 85.7721 8.89362C85.8441 8.82161 85.9321 8.78561 86.0361 8.78561C86.1361 8.78561 86.2201 8.82161 86.2881 8.89362C86.3601 8.96561 86.3961 9.05361 86.3961 9.15761C86.3961 9.26161 86.3601 9.34961 86.2881 9.42161C86.2201 9.49361 86.1361 9.52961 86.0361 9.52961ZM87.0794 9.84761C87.0794 9.15961 87.1914 8.62361 87.4154 8.23961C87.6394 7.85161 88.0314 7.65761 88.5914 7.65761C89.1474 7.65761 89.5374 7.85161 89.7614 8.23961C89.9854 8.62361 90.0974 9.15961 90.0974 9.84761C90.0974 10.5476 89.9854 11.0916 89.7614 11.4796C89.5374 11.8676 89.1474 12.0616 88.5914 12.0616C88.0314 12.0616 87.6394 11.8676 87.4154 11.4796C87.1914 11.0916 87.0794 10.5476 87.0794 9.84761ZM89.5574 9.84761C89.5574 9.49961 89.5334 9.20561 89.4854 8.96561C89.4414 8.72161 89.3474 8.52561 89.2034 8.37761C89.0634 8.22961 88.8594 8.15561 88.5914 8.15561C88.3194 8.15561 88.1114 8.22961 87.9674 8.37761C87.8274 8.52561 87.7334 8.72161 87.6854 8.96561C87.6414 9.20561 87.6194 9.49961 87.6194 9.84761C87.6194 10.2076 87.6414 10.5096 87.6854 10.7536C87.7334 10.9976 87.8274 11.1936 87.9674 11.3416C88.1114 11.4896 88.3194 11.5636 88.5914 11.5636C88.8594 11.5636 89.0634 11.4896 89.2034 11.3416C89.3474 11.1936 89.4414 10.9976 89.4854 10.7536C89.5334 10.5096 89.5574 10.2076 89.5574 9.84761ZM90.877 9.84761C90.877 9.15961 90.989 8.62361 91.213 8.23961C91.437 7.85161 91.829 7.65761 92.389 7.65761C92.945 7.65761 93.335 7.85161 93.559 8.23961C93.783 8.62361 93.895 9.15961 93.895 9.84761C93.895 10.5476 93.783 11.0916 93.559 11.4796C93.335 11.8676 92.945 12.0616 92.389 12.0616C91.829 12.0616 91.437 11.8676 91.213 11.4796C90.989 11.0916 90.877 10.5476 90.877 9.84761ZM93.355 9.84761C93.355 9.49961 93.331 9.20561 93.283 8.96561C93.239 8.72161 93.145 8.52561 93.001 8.37761C92.861 8.22961 92.657 8.15561 92.389 8.15561C92.117 8.15561 91.909 8.22961 91.765 8.37761C91.625 8.52561 91.531 8.72161 91.483 8.96561C91.439 9.20561 91.417 9.49961 91.417 9.84761C91.417 10.2076 91.439 10.5096 91.483 10.7536C91.531 10.9976 91.625 11.1936 91.765 11.3416C91.909 11.4896 92.117 11.5636 92.389 11.5636C92.657 11.5636 92.861 11.4896 93.001 11.3416C93.145 11.1936 93.239 10.9976 93.283 10.7536C93.331 10.5096 93.355 10.2076 93.355 9.84761ZM98.6742 9.63161V10.0936H96.2802V9.63161H98.6742ZM101.124 8.22161V7.72361H102.252V12.0616H101.7V8.22161H101.124ZM105.638 8.75561C105.55 8.31161 105.276 8.08961 104.816 8.08961C104.46 8.08961 104.194 8.22761 104.018 8.50361C103.842 8.77561 103.756 9.22561 103.76 9.85361C103.852 9.64561 104.004 9.48361 104.216 9.36761C104.432 9.24761 104.672 9.18761 104.936 9.18761C105.348 9.18761 105.676 9.31561 105.92 9.57161C106.168 9.82761 106.292 10.1816 106.292 10.6336C106.292 10.9056 106.238 11.1496 106.13 11.3656C106.026 11.5816 105.866 11.7536 105.65 11.8816C105.438 12.0096 105.18 12.0736 104.876 12.0736C104.464 12.0736 104.142 11.9816 103.91 11.7976C103.678 11.6136 103.516 11.3596 103.424 11.0356C103.332 10.7116 103.286 10.3116 103.286 9.83561C103.286 8.36761 103.798 7.63361 104.822 7.63361C105.214 7.63361 105.522 7.73961 105.746 7.95161C105.97 8.16361 106.102 8.43161 106.142 8.75561H105.638ZM104.822 9.64961C104.65 9.64961 104.488 9.68561 104.336 9.75761C104.184 9.82561 104.06 9.93161 103.964 10.0756C103.872 10.2156 103.826 10.3876 103.826 10.5916C103.826 10.8956 103.914 11.1436 104.09 11.3356C104.266 11.5236 104.518 11.6176 104.846 11.6176C105.126 11.6176 105.348 11.5316 105.512 11.3596C105.68 11.1836 105.764 10.9476 105.764 10.6516C105.764 10.3396 105.684 10.0956 105.524 9.91961C105.364 9.73961 105.13 9.64961 104.822 9.64961ZM107.323 12.0976C107.219 12.0976 107.131 12.0616 107.059 11.9896C106.987 11.9176 106.951 11.8296 106.951 11.7256C106.951 11.6216 106.987 11.5336 107.059 11.4616C107.131 11.3896 107.219 11.3536 107.323 11.3536C107.423 11.3536 107.507 11.3896 107.575 11.4616C107.647 11.5336 107.683 11.6216 107.683 11.7256C107.683 11.8296 107.647 11.9176 107.575 11.9896C107.507 12.0616 107.423 12.0976 107.323 12.0976ZM107.323 9.52961C107.219 9.52961 107.131 9.49361 107.059 9.42161C106.987 9.34961 106.951 9.26161 106.951 9.15761C106.951 9.05361 106.987 8.96561 107.059 8.89362C107.131 8.82161 107.219 8.78561 107.323 8.78561C107.423 8.78561 107.507 8.82161 107.575 8.89362C107.647 8.96561 107.683 9.05361 107.683 9.15761C107.683 9.26161 107.647 9.34961 107.575 9.42161C107.507 9.49361 107.423 9.52961 107.323 9.52961ZM108.366 9.84761C108.366 9.15961 108.478 8.62361 108.702 8.23961C108.926 7.85161 109.318 7.65761 109.878 7.65761C110.434 7.65761 110.824 7.85161 111.048 8.23961C111.272 8.62361 111.384 9.15961 111.384 9.84761C111.384 10.5476 111.272 11.0916 111.048 11.4796C110.824 11.8676 110.434 12.0616 109.878 12.0616C109.318 12.0616 108.926 11.8676 108.702 11.4796C108.478 11.0916 108.366 10.5476 108.366 9.84761ZM110.844 9.84761C110.844 9.49961 110.82 9.20561 110.772 8.96561C110.728 8.72161 110.634 8.52561 110.49 8.37761C110.35 8.22961 110.146 8.15561 109.878 8.15561C109.606 8.15561 109.398 8.22961 109.254 8.37761C109.114 8.52561 109.02 8.72161 108.972 8.96561C108.928 9.20561 108.906 9.49961 108.906 9.84761C108.906 10.2076 108.928 10.5096 108.972 10.7536C109.02 10.9976 109.114 11.1936 109.254 11.3416C109.398 11.4896 109.606 11.5636 109.878 11.5636C110.146 11.5636 110.35 11.4896 110.49 11.3416C110.634 11.1936 110.728 10.9976 110.772 10.7536C110.82 10.5096 110.844 10.2076 110.844 9.84761ZM112.164 9.84761C112.164 9.15961 112.276 8.62361 112.5 8.23961C112.724 7.85161 113.116 7.65761 113.676 7.65761C114.232 7.65761 114.622 7.85161 114.846 8.23961C115.07 8.62361 115.182 9.15961 115.182 9.84761C115.182 10.5476 115.07 11.0916 114.846 11.4796C114.622 11.8676 114.232 12.0616 113.676 12.0616C113.116 12.0616 112.724 11.8676 112.5 11.4796C112.276 11.0916 112.164 10.5476 112.164 9.84761ZM114.642 9.84761C114.642 9.49961 114.618 9.20561 114.57 8.96561C114.526 8.72161 114.432 8.52561 114.288 8.37761C114.148 8.22961 113.944 8.15561 113.676 8.15561C113.404 8.15561 113.196 8.22961 113.052 8.37761C112.912 8.52561 112.818 8.72161 112.77 8.96561C112.726 9.20561 112.704 9.49961 112.704 9.84761C112.704 10.2076 112.726 10.5096 112.77 10.7536C112.818 10.9976 112.912 11.1936 113.052 11.3416C113.196 11.4896 113.404 11.5636 113.676 11.5636C113.944 11.5636 114.148 11.4896 114.288 11.3416C114.432 11.1936 114.526 10.9976 114.57 10.7536C114.618 10.5096 114.642 10.2076 114.642 9.84761Z" fill="#252836" fill-opacity="0.6"/>
<rect x="26.0001" y="22.3405" width="85.5835" height="18.4051" rx="2" fill="#F4F5F4"/>
<path d="M32.3009 30.5464V31.0114H31.3759V34.0214H30.8059V31.0114H29.8759V30.5464H32.3009ZM35.3982 31.2664V34.0214H34.8282V33.6964C34.7382 33.8097 34.6198 33.8997 34.4732 33.9664C34.3298 34.0297 34.1765 34.0614 34.0132 34.0614C33.7965 34.0614 33.6015 34.0164 33.4282 33.9264C33.2582 33.8364 33.1232 33.7031 33.0232 33.5264C32.9265 33.3497 32.8782 33.1364 32.8782 32.8864V31.2664H33.4432V32.8014C33.4432 33.0481 33.5048 33.2381 33.6282 33.3714C33.7515 33.5014 33.9198 33.5664 34.1332 33.5664C34.3465 33.5664 34.5148 33.5014 34.6382 33.3714C34.7648 33.2381 34.8282 33.0481 34.8282 32.8014V31.2664H35.3982ZM38.7002 32.5764C38.7002 32.6797 38.6936 32.7731 38.6802 32.8564H36.5752C36.5919 33.0764 36.6736 33.2531 36.8202 33.3864C36.9669 33.5197 37.1469 33.5864 37.3602 33.5864C37.6669 33.5864 37.8836 33.4581 38.0102 33.2014H38.6252C38.5419 33.4547 38.3902 33.6631 38.1702 33.8264C37.9536 33.9864 37.6836 34.0664 37.3602 34.0664C37.0969 34.0664 36.8602 34.0081 36.6502 33.8914C36.4436 33.7714 36.2802 33.6047 36.1602 33.3914C36.0436 33.1747 35.9852 32.9247 35.9852 32.6414C35.9852 32.3581 36.0419 32.1097 36.1552 31.8964C36.2719 31.6797 36.4336 31.5131 36.6402 31.3964C36.8502 31.2797 37.0902 31.2214 37.3602 31.2214C37.6202 31.2214 37.8519 31.2781 38.0552 31.3914C38.2586 31.5047 38.4169 31.6647 38.5302 31.8714C38.6436 32.0747 38.7002 32.3097 38.7002 32.5764ZM38.1052 32.3964C38.1019 32.1864 38.0269 32.0181 37.8802 31.8914C37.7336 31.7647 37.5519 31.7014 37.3352 31.7014C37.1386 31.7014 36.9702 31.7647 36.8302 31.8914C36.6902 32.0147 36.6069 32.1831 36.5802 32.3964H38.1052ZM40.2862 34.0664C40.0695 34.0664 39.8745 34.0281 39.7012 33.9514C39.5312 33.8714 39.3962 33.7647 39.2962 33.6314C39.1962 33.4947 39.1428 33.3431 39.1362 33.1764H39.7262C39.7362 33.2931 39.7912 33.3914 39.8912 33.4714C39.9945 33.5481 40.1228 33.5864 40.2762 33.5864C40.4362 33.5864 40.5595 33.5564 40.6462 33.4964C40.7362 33.4331 40.7812 33.3531 40.7812 33.2564C40.7812 33.1531 40.7312 33.0764 40.6312 33.0264C40.5345 32.9764 40.3795 32.9214 40.1662 32.8614C39.9595 32.8047 39.7912 32.7497 39.6612 32.6964C39.5312 32.6431 39.4178 32.5614 39.3212 32.4514C39.2278 32.3414 39.1812 32.1964 39.1812 32.0164C39.1812 31.8697 39.2245 31.7364 39.3112 31.6164C39.3978 31.4931 39.5212 31.3964 39.6812 31.3264C39.8445 31.2564 40.0312 31.2214 40.2412 31.2214C40.5545 31.2214 40.8062 31.3014 40.9962 31.4614C41.1895 31.6181 41.2928 31.8331 41.3062 32.1064H40.7362C40.7262 31.9831 40.6762 31.8847 40.5862 31.8114C40.4962 31.7381 40.3745 31.7014 40.2212 31.7014C40.0712 31.7014 39.9562 31.7297 39.8762 31.7864C39.7962 31.8431 39.7562 31.9181 39.7562 32.0114C39.7562 32.0847 39.7828 32.1464 39.8362 32.1964C39.8895 32.2464 39.9545 32.2864 40.0312 32.3164C40.1078 32.3431 40.2212 32.3781 40.3712 32.4214C40.5712 32.4747 40.7345 32.5297 40.8612 32.5864C40.9912 32.6397 41.1028 32.7197 41.1962 32.8264C41.2895 32.9331 41.3378 33.0747 41.3412 33.2514C41.3412 33.4081 41.2978 33.5481 41.2112 33.6714C41.1245 33.7947 41.0012 33.8914 40.8412 33.9614C40.6845 34.0314 40.4995 34.0664 40.2862 34.0664ZM41.7921 32.6314C41.7921 32.3547 41.8487 32.1097 41.9621 31.8964C42.0787 31.6831 42.2354 31.5181 42.4321 31.4014C42.6321 31.2814 42.8537 31.2214 43.0971 31.2214C43.2771 31.2214 43.4537 31.2614 43.6271 31.3414C43.8037 31.4181 43.9437 31.5214 44.0471 31.6514V30.3214H44.6221V34.0214H44.0471V33.6064C43.9537 33.7397 43.8237 33.8497 43.6571 33.9364C43.4937 34.0231 43.3054 34.0664 43.0921 34.0664C42.8521 34.0664 42.6321 34.0064 42.4321 33.8864C42.2354 33.7631 42.0787 33.5931 41.9621 33.3764C41.8487 33.1564 41.7921 32.9081 41.7921 32.6314ZM44.0471 32.6414C44.0471 32.4514 44.0071 32.2864 43.9271 32.1464C43.8504 32.0064 43.7487 31.8997 43.6221 31.8264C43.4954 31.7531 43.3587 31.7164 43.2121 31.7164C43.0654 31.7164 42.9287 31.7531 42.8021 31.8264C42.6754 31.8964 42.5721 32.0014 42.4921 32.1414C42.4154 32.2781 42.3771 32.4414 42.3771 32.6314C42.3771 32.8214 42.4154 32.9881 42.4921 33.1314C42.5721 33.2747 42.6754 33.3847 42.8021 33.4614C42.9321 33.5347 43.0687 33.5714 43.2121 33.5714C43.3587 33.5714 43.4954 33.5347 43.6221 33.4614C43.7487 33.3881 43.8504 33.2814 43.9271 33.1414C44.0071 32.9981 44.0471 32.8314 44.0471 32.6414ZM45.2057 32.6314C45.2057 32.3547 45.2624 32.1097 45.3757 31.8964C45.4924 31.6831 45.6491 31.5181 45.8457 31.4014C46.0457 31.2814 46.2657 31.2214 46.5057 31.2214C46.7224 31.2214 46.9107 31.2647 47.0707 31.3514C47.2341 31.4347 47.3641 31.5397 47.4607 31.6664V31.2664H48.0357V34.0214H47.4607V33.6114C47.3641 33.7414 47.2324 33.8497 47.0657 33.9364C46.8991 34.0231 46.7091 34.0664 46.4957 34.0664C46.2591 34.0664 46.0424 34.0064 45.8457 33.8864C45.6491 33.7631 45.4924 33.5931 45.3757 33.3764C45.2624 33.1564 45.2057 32.9081 45.2057 32.6314ZM47.4607 32.6414C47.4607 32.4514 47.4207 32.2864 47.3407 32.1464C47.2641 32.0064 47.1624 31.8997 47.0357 31.8264C46.9091 31.7531 46.7724 31.7164 46.6257 31.7164C46.4791 31.7164 46.3424 31.7531 46.2157 31.8264C46.0891 31.8964 45.9857 32.0014 45.9057 32.1414C45.8291 32.2781 45.7907 32.4414 45.7907 32.6314C45.7907 32.8214 45.8291 32.9881 45.9057 33.1314C45.9857 33.2747 46.0891 33.3847 46.2157 33.4614C46.3457 33.5347 46.4824 33.5714 46.6257 33.5714C46.7724 33.5714 46.9091 33.5347 47.0357 33.4614C47.1624 33.3881 47.2641 33.2814 47.3407 33.1414C47.4207 32.9981 47.4607 32.8314 47.4607 32.6414ZM51.2894 31.2664L49.5994 35.3164H49.0094L49.5694 33.9764L48.4844 31.2664H49.1194L49.8944 33.3664L50.6994 31.2664H51.2894Z" fill="#252836"/>
<path d="M73.2432 32.1765C73.2432 31.6032 73.3365 31.1565 73.5232 30.8365C73.7098 30.5132 74.0365 30.3515 74.5032 30.3515C74.9665 30.3515 75.2915 30.5132 75.4782 30.8365C75.6648 31.1565 75.7582 31.6032 75.7582 32.1765C75.7582 32.7598 75.6648 33.2132 75.4782 33.5365C75.2915 33.8598 74.9665 34.0215 74.5032 34.0215C74.0365 34.0215 73.7098 33.8598 73.5232 33.5365C73.3365 33.2132 73.2432 32.7598 73.2432 32.1765ZM75.3082 32.1765C75.3082 31.8865 75.2882 31.6415 75.2482 31.4415C75.2115 31.2382 75.1332 31.0748 75.0132 30.9515C74.8965 30.8282 74.7265 30.7665 74.5032 30.7665C74.2765 30.7665 74.1032 30.8282 73.9832 30.9515C73.8665 31.0748 73.7882 31.2382 73.7482 31.4415C73.7115 31.6415 73.6932 31.8865 73.6932 32.1765C73.6932 32.4765 73.7115 32.7282 73.7482 32.9315C73.7882 33.1348 73.8665 33.2982 73.9832 33.4215C74.1032 33.5448 74.2765 33.6065 74.5032 33.6065C74.7265 33.6065 74.8965 33.5448 75.0132 33.4215C75.1332 33.2982 75.2115 33.1348 75.2482 32.9315C75.2882 32.7282 75.3082 32.4765 75.3082 32.1765ZM76.9928 33.0515C77.0261 33.2415 77.1028 33.3882 77.2228 33.4915C77.3461 33.5948 77.5111 33.6465 77.7178 33.6465C77.9945 33.6465 78.1978 33.5382 78.3278 33.3215C78.4611 33.1048 78.5245 32.7398 78.5178 32.2265C78.4478 32.3765 78.3311 32.4948 78.1678 32.5815C78.0045 32.6648 77.8228 32.7065 77.6228 32.7065C77.3995 32.7065 77.1995 32.6615 77.0228 32.5715C76.8495 32.4782 76.7128 32.3432 76.6128 32.1665C76.5128 31.9898 76.4628 31.7765 76.4628 31.5265C76.4628 31.1698 76.5661 30.8832 76.7728 30.6665C76.9795 30.4465 77.2728 30.3365 77.6528 30.3365C78.1195 30.3365 78.4461 30.4882 78.6328 30.7915C78.8228 31.0948 78.9178 31.5465 78.9178 32.1465C78.9178 32.5665 78.8795 32.9132 78.8028 33.1865C78.7295 33.4598 78.6028 33.6682 78.4228 33.8115C78.2461 33.9548 78.0028 34.0265 77.6928 34.0265C77.3528 34.0265 77.0878 33.9348 76.8978 33.7515C76.7078 33.5682 76.5995 33.3348 76.5728 33.0515H76.9928ZM77.6978 32.3215C77.9211 32.3215 78.1045 32.2532 78.2478 32.1165C78.3911 31.9765 78.4628 31.7882 78.4628 31.5515C78.4628 31.3015 78.3928 31.0998 78.2528 30.9465C78.1128 30.7932 77.9161 30.7165 77.6628 30.7165C77.4295 30.7165 77.2428 30.7898 77.1028 30.9365C76.9661 31.0832 76.8978 31.2765 76.8978 31.5165C76.8978 31.7598 76.9661 31.9548 77.1028 32.1015C77.2395 32.2482 77.4378 32.3215 77.6978 32.3215ZM79.8022 34.0515C79.7156 34.0515 79.6422 34.0215 79.5822 33.9615C79.5222 33.9015 79.4922 33.8282 79.4922 33.7415C79.4922 33.6548 79.5222 33.5815 79.5822 33.5215C79.6422 33.4615 79.7156 33.4315 79.8022 33.4315C79.8856 33.4315 79.9556 33.4615 80.0122 33.5215C80.0722 33.5815 80.1022 33.6548 80.1022 33.7415C80.1022 33.8282 80.0722 33.9015 80.0122 33.9615C79.9556 34.0215 79.8856 34.0515 79.8022 34.0515ZM79.8022 31.9115C79.7156 31.9115 79.6422 31.8815 79.5822 31.8215C79.5222 31.7615 79.4922 31.6882 79.4922 31.6015C79.4922 31.5148 79.5222 31.4415 79.5822 31.3815C79.6422 31.3215 79.7156 31.2915 79.8022 31.2915C79.8856 31.2915 79.9556 31.3215 80.0122 31.3815C80.0722 31.4415 80.1022 31.5148 80.1022 31.6015C80.1022 31.6882 80.0722 31.7615 80.0122 31.8215C79.9556 31.8815 79.8856 31.9115 79.8022 31.9115ZM80.6717 32.1765C80.6717 31.6032 80.765 31.1565 80.9517 30.8365C81.1383 30.5132 81.465 30.3515 81.9317 30.3515C82.395 30.3515 82.72 30.5132 82.9067 30.8365C83.0933 31.1565 83.1867 31.6032 83.1867 32.1765C83.1867 32.7598 83.0933 33.2132 82.9067 33.5365C82.72 33.8598 82.395 34.0215 81.9317 34.0215C81.465 34.0215 81.1383 33.8598 80.9517 33.5365C80.765 33.2132 80.6717 32.7598 80.6717 32.1765ZM82.7367 32.1765C82.7367 31.8865 82.7167 31.6415 82.6767 31.4415C82.64 31.2382 82.5617 31.0748 82.4417 30.9515C82.325 30.8282 82.155 30.7665 81.9317 30.7665C81.705 30.7665 81.5317 30.8282 81.4117 30.9515C81.295 31.0748 81.2167 31.2382 81.1767 31.4415C81.14 31.6415 81.1217 31.8865 81.1217 32.1765C81.1217 32.4765 81.14 32.7282 81.1767 32.9315C81.2167 33.1348 81.295 33.2982 81.4117 33.4215C81.5317 33.5448 81.705 33.6065 81.9317 33.6065C82.155 33.6065 82.325 33.5448 82.4417 33.4215C82.5617 33.2982 82.64 33.1348 82.6767 32.9315C82.7167 32.7282 82.7367 32.4765 82.7367 32.1765ZM83.8363 32.1765C83.8363 31.6032 83.9297 31.1565 84.1163 30.8365C84.303 30.5132 84.6297 30.3515 85.0963 30.3515C85.5597 30.3515 85.8847 30.5132 86.0713 30.8365C86.258 31.1565 86.3513 31.6032 86.3513 32.1765C86.3513 32.7598 86.258 33.2132 86.0713 33.5365C85.8847 33.8598 85.5597 34.0215 85.0963 34.0215C84.6297 34.0215 84.303 33.8598 84.1163 33.5365C83.9297 33.2132 83.8363 32.7598 83.8363 32.1765ZM85.9013 32.1765C85.9013 31.8865 85.8813 31.6415 85.8413 31.4415C85.8047 31.2382 85.7263 31.0748 85.6063 30.9515C85.4897 30.8282 85.3197 30.7665 85.0963 30.7665C84.8697 30.7665 84.6963 30.8282 84.5763 30.9515C84.4597 31.0748 84.3813 31.2382 84.3413 31.4415C84.3047 31.6415 84.2863 31.8865 84.2863 32.1765C84.2863 32.4765 84.3047 32.7282 84.3413 32.9315C84.3813 33.1348 84.4597 33.2982 84.5763 33.4215C84.6963 33.5448 84.8697 33.6065 85.0963 33.6065C85.3197 33.6065 85.4897 33.5448 85.6063 33.4215C85.7263 33.2982 85.8047 33.1348 85.8413 32.9315C85.8813 32.7282 85.9013 32.4765 85.9013 32.1765ZM90.334 31.9965V32.3815H88.339V31.9965H90.334ZM92.3759 30.8215V30.4065H93.3159V34.0215H92.8559V30.8215H92.3759ZM94.0125 33.2165V32.8715L95.7675 30.4415H96.3125V32.8215H96.8125V33.2165H96.3125V34.0215H95.8625V33.2165H94.0125ZM95.8825 30.9165L94.5375 32.8215H95.8825V30.9165ZM97.512 34.0515C97.4253 34.0515 97.352 34.0215 97.292 33.9615C97.232 33.9015 97.202 33.8282 97.202 33.7415C97.202 33.6548 97.232 33.5815 97.292 33.5215C97.352 33.4615 97.4253 33.4315 97.512 33.4315C97.5953 33.4315 97.6653 33.4615 97.722 33.5215C97.782 33.5815 97.812 33.6548 97.812 33.7415C97.812 33.8282 97.782 33.9015 97.722 33.9615C97.6653 34.0215 97.5953 34.0515 97.512 34.0515ZM97.512 31.9115C97.4253 31.9115 97.352 31.8815 97.292 31.8215C97.232 31.7615 97.202 31.6882 97.202 31.6015C97.202 31.5148 97.232 31.4415 97.292 31.3815C97.352 31.3215 97.4253 31.2915 97.512 31.2915C97.5953 31.2915 97.6653 31.3215 97.722 31.3815C97.782 31.4415 97.812 31.5148 97.812 31.6015C97.812 31.6882 97.782 31.7615 97.722 31.8215C97.6653 31.8815 97.5953 31.9115 97.512 31.9115ZM98.3814 32.1765C98.3814 31.6032 98.4748 31.1565 98.6614 30.8365C98.8481 30.5132 99.1748 30.3515 99.6414 30.3515C100.105 30.3515 100.43 30.5132 100.616 30.8365C100.803 31.1565 100.896 31.6032 100.896 32.1765C100.896 32.7598 100.803 33.2132 100.616 33.5365C100.43 33.8598 100.105 34.0215 99.6414 34.0215C99.1748 34.0215 98.8481 33.8598 98.6614 33.5365C98.4748 33.2132 98.3814 32.7598 98.3814 32.1765ZM100.446 32.1765C100.446 31.8865 100.426 31.6415 100.386 31.4415C100.35 31.2382 100.271 31.0748 100.151 30.9515C100.035 30.8282 99.8648 30.7665 99.6414 30.7665C99.4148 30.7665 99.2414 30.8282 99.1214 30.9515C99.0048 31.0748 98.9264 31.2382 98.8864 31.4415C98.8498 31.6415 98.8314 31.8865 98.8314 32.1765C98.8314 32.4765 98.8498 32.7282 98.8864 32.9315C98.9264 33.1348 99.0048 33.2982 99.1214 33.4215C99.2414 33.5448 99.4148 33.6065 99.6414 33.6065C99.8648 33.6065 100.035 33.5448 100.151 33.4215C100.271 33.2982 100.35 33.1348 100.386 32.9315C100.426 32.7282 100.446 32.4765 100.446 32.1765ZM101.546 32.1765C101.546 31.6032 101.639 31.1565 101.826 30.8365C102.013 30.5132 102.339 30.3515 102.806 30.3515C103.269 30.3515 103.594 30.5132 103.781 30.8365C103.968 31.1565 104.061 31.6032 104.061 32.1765C104.061 32.7598 103.968 33.2132 103.781 33.5365C103.594 33.8598 103.269 34.0215 102.806 34.0215C102.339 34.0215 102.013 33.8598 101.826 33.5365C101.639 33.2132 101.546 32.7598 101.546 32.1765ZM103.611 32.1765C103.611 31.8865 103.591 31.6415 103.551 31.4415C103.514 31.2382 103.436 31.0748 103.316 30.9515C103.199 30.8282 103.029 30.7665 102.806 30.7665C102.579 30.7665 102.406 30.8282 102.286 30.9515C102.169 31.0748 102.091 31.2382 102.051 31.4415C102.014 31.6415 101.996 31.8865 101.996 32.1765C101.996 32.4765 102.014 32.7282 102.051 32.9315C102.091 33.1348 102.169 33.2982 102.286 33.4215C102.406 33.5448 102.579 33.6065 102.806 33.6065C103.029 33.6065 103.199 33.5448 103.316 33.4215C103.436 33.2982 103.514 33.1348 103.551 32.9315C103.591 32.7282 103.611 32.4765 103.611 32.1765Z" fill="#252836" fill-opacity="0.6"/>
<rect x="26.0001" y="42.7458" width="76.5835" height="16.4696" rx="2" fill="#F4F5F4"/>
<path d="M33.5034 49.9656L32.6794 52.7456H32.1634L31.5794 50.6416L30.9594 52.7456L30.4474 52.7496L29.6594 49.9656H30.1434L30.7194 52.2296L31.3434 49.9656H31.8554L32.4354 52.2176L33.0154 49.9656H33.5034ZM35.9195 51.5896C35.9195 51.6723 35.9141 51.7469 35.9035 51.8136H34.2195C34.2328 51.9896 34.2981 52.1309 34.4155 52.2376C34.5328 52.3443 34.6768 52.3976 34.8475 52.3976C35.0928 52.3976 35.2661 52.2949 35.3675 52.0896H35.8595C35.7928 52.2923 35.6715 52.4589 35.4955 52.5896C35.3221 52.7176 35.1061 52.7816 34.8475 52.7816C34.6368 52.7816 34.4475 52.7349 34.2795 52.6416C34.1141 52.5456 33.9835 52.4123 33.8875 52.2416C33.7941 52.0683 33.7475 51.8683 33.7475 51.6416C33.7475 51.4149 33.7928 51.2163 33.8835 51.0456C33.9768 50.8723 34.1061 50.7389 34.2715 50.6456C34.4395 50.5523 34.6315 50.5056 34.8475 50.5056C35.0555 50.5056 35.2408 50.5509 35.4035 50.6416C35.5661 50.7323 35.6928 50.8603 35.7835 51.0256C35.8741 51.1883 35.9195 51.3763 35.9195 51.5896ZM35.4435 51.4456C35.4408 51.2776 35.3808 51.1429 35.2635 51.0416C35.1461 50.9403 35.0008 50.8896 34.8275 50.8896C34.6701 50.8896 34.5355 50.9403 34.4235 51.0416C34.3115 51.1403 34.2448 51.2749 34.2235 51.4456H35.4435ZM36.2362 51.6336C36.2362 51.4123 36.2815 51.2163 36.3722 51.0456C36.4655 50.8749 36.5909 50.7429 36.7482 50.6496C36.9082 50.5536 37.0855 50.5056 37.2802 50.5056C37.4242 50.5056 37.5655 50.5376 37.7042 50.6016C37.8455 50.6629 37.9575 50.7456 38.0402 50.8496V49.7856H38.5002V52.7456H38.0402V52.4136C37.9655 52.5203 37.8615 52.6083 37.7282 52.6776C37.5975 52.7469 37.4469 52.7816 37.2762 52.7816C37.0842 52.7816 36.9082 52.7336 36.7482 52.6376C36.5909 52.5389 36.4655 52.4029 36.3722 52.2296C36.2815 52.0536 36.2362 51.8549 36.2362 51.6336ZM38.0402 51.6416C38.0402 51.4896 38.0082 51.3576 37.9442 51.2456C37.8829 51.1336 37.8015 51.0483 37.7002 50.9896C37.5989 50.9309 37.4895 50.9016 37.3722 50.9016C37.2549 50.9016 37.1455 50.9309 37.0442 50.9896C36.9429 51.0456 36.8602 51.1296 36.7962 51.2416C36.7349 51.3509 36.7042 51.4816 36.7042 51.6336C36.7042 51.7856 36.7349 51.9189 36.7962 52.0336C36.8602 52.1483 36.9429 52.2363 37.0442 52.2976C37.1482 52.3563 37.2575 52.3856 37.3722 52.3856C37.4895 52.3856 37.5989 52.3563 37.7002 52.2976C37.8015 52.2389 37.8829 52.1536 37.9442 52.0416C38.0082 51.9269 38.0402 51.7936 38.0402 51.6416ZM40.2311 50.5056C40.4045 50.5056 40.5591 50.5416 40.6951 50.6136C40.8338 50.6856 40.9418 50.7923 41.0191 50.9336C41.0965 51.0749 41.1351 51.2456 41.1351 51.4456V52.7456H40.6831V51.5136C40.6831 51.3163 40.6338 51.1656 40.5351 51.0616C40.4365 50.9549 40.3018 50.9016 40.1311 50.9016C39.9605 50.9016 39.8245 50.9549 39.7231 51.0616C39.6245 51.1656 39.5751 51.3163 39.5751 51.5136V52.7456H39.1191V50.5416H39.5751V50.7936C39.6498 50.7029 39.7445 50.6323 39.8591 50.5816C39.9765 50.5309 40.1005 50.5056 40.2311 50.5056ZM43.7568 51.5896C43.7568 51.6723 43.7515 51.7469 43.7408 51.8136H42.0568C42.0701 51.9896 42.1355 52.1309 42.2528 52.2376C42.3701 52.3443 42.5141 52.3976 42.6848 52.3976C42.9301 52.3976 43.1035 52.2949 43.2048 52.0896H43.6968C43.6301 52.2923 43.5088 52.4589 43.3328 52.5896C43.1595 52.7176 42.9435 52.7816 42.6848 52.7816C42.4741 52.7816 42.2848 52.7349 42.1168 52.6416C41.9515 52.5456 41.8208 52.4123 41.7248 52.2416C41.6315 52.0683 41.5848 51.8683 41.5848 51.6416C41.5848 51.4149 41.6301 51.2163 41.7208 51.0456C41.8141 50.8723 41.9435 50.7389 42.1088 50.6456C42.2768 50.5523 42.4688 50.5056 42.6848 50.5056C42.8928 50.5056 43.0781 50.5509 43.2408 50.6416C43.4035 50.7323 43.5301 50.8603 43.6208 51.0256C43.7115 51.1883 43.7568 51.3763 43.7568 51.5896ZM43.2808 51.4456C43.2781 51.2776 43.2181 51.1429 43.1008 51.0416C42.9835 50.9403 42.8381 50.8896 42.6648 50.8896C42.5075 50.8896 42.3728 50.9403 42.2608 51.0416C42.1488 51.1403 42.0821 51.2749 42.0608 51.4456H43.2808ZM45.0255 52.7816C44.8522 52.7816 44.6962 52.7509 44.5575 52.6896C44.4215 52.6256 44.3135 52.5403 44.2335 52.4336C44.1535 52.3243 44.1109 52.2029 44.1055 52.0696H44.5775C44.5855 52.1629 44.6295 52.2416 44.7095 52.3056C44.7922 52.3669 44.8949 52.3976 45.0175 52.3976C45.1455 52.3976 45.2442 52.3736 45.3135 52.3256C45.3855 52.2749 45.4215 52.2109 45.4215 52.1336C45.4215 52.0509 45.3815 51.9896 45.3015 51.9496C45.2242 51.9096 45.1002 51.8656 44.9295 51.8176C44.7642 51.7723 44.6295 51.7283 44.5255 51.6856C44.4215 51.6429 44.3309 51.5776 44.2535 51.4896C44.1789 51.4016 44.1415 51.2856 44.1415 51.1416C44.1415 51.0243 44.1762 50.9176 44.2455 50.8216C44.3149 50.7229 44.4135 50.6456 44.5415 50.5896C44.6722 50.5336 44.8215 50.5056 44.9895 50.5056C45.2402 50.5056 45.4415 50.5696 45.5935 50.6976C45.7482 50.8229 45.8309 50.9949 45.8415 51.2136H45.3855C45.3775 51.1149 45.3375 51.0363 45.2655 50.9776C45.1935 50.9189 45.0962 50.8896 44.9735 50.8896C44.8535 50.8896 44.7615 50.9123 44.6975 50.9576C44.6335 51.0029 44.6015 51.0629 44.6015 51.1376C44.6015 51.1963 44.6229 51.2456 44.6655 51.2856C44.7082 51.3256 44.7602 51.3576 44.8215 51.3816C44.8829 51.4029 44.9735 51.4309 45.0935 51.4656C45.2535 51.5083 45.3842 51.5523 45.4855 51.5976C45.5895 51.6403 45.6789 51.7043 45.7535 51.7896C45.8282 51.8749 45.8669 51.9883 45.8695 52.1296C45.8695 52.2549 45.8349 52.3669 45.7655 52.4656C45.6962 52.5643 45.5975 52.6416 45.4695 52.6976C45.3442 52.7536 45.1962 52.7816 45.0255 52.7816ZM46.2303 51.6336C46.2303 51.4123 46.2756 51.2163 46.3663 51.0456C46.4596 50.8749 46.5849 50.7429 46.7423 50.6496C46.9023 50.5536 47.0796 50.5056 47.2743 50.5056C47.4183 50.5056 47.5596 50.5376 47.6983 50.6016C47.8396 50.6629 47.9516 50.7456 48.0343 50.8496V49.7856H48.4943V52.7456H48.0343V52.4136C47.9596 52.5203 47.8556 52.6083 47.7223 52.6776C47.5916 52.7469 47.4409 52.7816 47.2703 52.7816C47.0783 52.7816 46.9023 52.7336 46.7423 52.6376C46.5849 52.5389 46.4596 52.4029 46.3663 52.2296C46.2756 52.0536 46.2303 51.8549 46.2303 51.6336ZM48.0343 51.6416C48.0343 51.4896 48.0023 51.3576 47.9383 51.2456C47.8769 51.1336 47.7956 51.0483 47.6943 50.9896C47.5929 50.9309 47.4836 50.9016 47.3663 50.9016C47.2489 50.9016 47.1396 50.9309 47.0383 50.9896C46.9369 51.0456 46.8543 51.1296 46.7903 51.2416C46.7289 51.3509 46.6983 51.4816 46.6983 51.6336C46.6983 51.7856 46.7289 51.9189 46.7903 52.0336C46.8543 52.1483 46.9369 52.2363 47.0383 52.2976C47.1423 52.3563 47.2516 52.3856 47.3663 52.3856C47.4836 52.3856 47.5929 52.3563 47.6943 52.2976C47.7956 52.2389 47.8769 52.1536 47.9383 52.0416C48.0023 51.9269 48.0343 51.7936 48.0343 51.6416ZM48.9612 51.6336C48.9612 51.4123 49.0065 51.2163 49.0972 51.0456C49.1905 50.8749 49.3159 50.7429 49.4732 50.6496C49.6332 50.5536 49.8092 50.5056 50.0012 50.5056C50.1745 50.5056 50.3252 50.5403 50.4532 50.6096C50.5839 50.6763 50.6879 50.7603 50.7652 50.8616V50.5416H51.2252V52.7456H50.7652V52.4176C50.6879 52.5216 50.5825 52.6083 50.4492 52.6776C50.3159 52.7469 50.1639 52.7816 49.9932 52.7816C49.8039 52.7816 49.6305 52.7336 49.4732 52.6376C49.3159 52.5389 49.1905 52.4029 49.0972 52.2296C49.0065 52.0536 48.9612 51.8549 48.9612 51.6336ZM50.7652 51.6416C50.7652 51.4896 50.7332 51.3576 50.6692 51.2456C50.6079 51.1336 50.5265 51.0483 50.4252 50.9896C50.3239 50.9309 50.2145 50.9016 50.0972 50.9016C49.9799 50.9016 49.8705 50.9309 49.7692 50.9896C49.6679 51.0456 49.5852 51.1296 49.5212 51.2416C49.4599 51.3509 49.4292 51.4816 49.4292 51.6336C49.4292 51.7856 49.4599 51.9189 49.5212 52.0336C49.5852 52.1483 49.6679 52.2363 49.7692 52.2976C49.8732 52.3563 49.9825 52.3856 50.0972 52.3856C50.2145 52.3856 50.3239 52.3563 50.4252 52.2976C50.5265 52.2389 50.6079 52.1536 50.6692 52.0416C50.7332 51.9269 50.7652 51.7936 50.7652 51.6416ZM53.8281 50.5416L52.4761 53.7816H52.0041L52.4521 52.7096L51.5841 50.5416H52.0921L52.7121 52.2216L53.3561 50.5416H53.8281Z" fill="#252836"/>
<path d="M74.1519 50.4405V50.1085H74.9039V53.0005H74.5359V50.4405H74.1519ZM75.5491 51.5245C75.5491 51.0658 75.6238 50.7085 75.7731 50.4525C75.9224 50.1938 76.1838 50.0645 76.5571 50.0645C76.9278 50.0645 77.1878 50.1938 77.3371 50.4525C77.4864 50.7085 77.5611 51.0658 77.5611 51.5245C77.5611 51.9912 77.4864 52.3538 77.3371 52.6125C77.1878 52.8712 76.9278 53.0005 76.5571 53.0005C76.1838 53.0005 75.9224 52.8712 75.7731 52.6125C75.6238 52.3538 75.5491 51.9912 75.5491 51.5245ZM77.2011 51.5245C77.2011 51.2925 77.1851 51.0965 77.1531 50.9365C77.1238 50.7738 77.0611 50.6432 76.9651 50.5445C76.8718 50.4458 76.7358 50.3965 76.5571 50.3965C76.3758 50.3965 76.2371 50.4458 76.1411 50.5445C76.0478 50.6432 75.9851 50.7738 75.9531 50.9365C75.9238 51.0965 75.9091 51.2925 75.9091 51.5245C75.9091 51.7645 75.9238 51.9658 75.9531 52.1285C75.9851 52.2912 76.0478 52.4218 76.1411 52.5205C76.2371 52.6192 76.3758 52.6685 76.5571 52.6685C76.7358 52.6685 76.8718 52.6192 76.9651 52.5205C77.0611 52.4218 77.1238 52.2912 77.1531 52.1285C77.1851 51.9658 77.2011 51.7645 77.2011 51.5245ZM78.2568 53.0245C78.1875 53.0245 78.1288 53.0005 78.0808 52.9525C78.0328 52.9045 78.0088 52.8458 78.0088 52.7765C78.0088 52.7072 78.0328 52.6485 78.0808 52.6005C78.1288 52.5525 78.1875 52.5285 78.2568 52.5285C78.3235 52.5285 78.3795 52.5525 78.4248 52.6005C78.4728 52.6485 78.4968 52.7072 78.4968 52.7765C78.4968 52.8458 78.4728 52.9045 78.4248 52.9525C78.3795 53.0005 78.3235 53.0245 78.2568 53.0245ZM78.2568 51.3125C78.1875 51.3125 78.1288 51.2885 78.0808 51.2405C78.0328 51.1925 78.0088 51.1338 78.0088 51.0645C78.0088 50.9952 78.0328 50.9365 78.0808 50.8885C78.1288 50.8405 78.1875 50.8165 78.2568 50.8165C78.3235 50.8165 78.3795 50.8405 78.4248 50.8885C78.4728 50.9365 78.4968 50.9952 78.4968 51.0645C78.4968 51.1338 78.4728 51.1925 78.4248 51.2405C78.3795 51.2885 78.3235 51.3125 78.2568 51.3125ZM78.9524 51.5245C78.9524 51.0658 79.0271 50.7085 79.1764 50.4525C79.3257 50.1938 79.5871 50.0645 79.9604 50.0645C80.3311 50.0645 80.5911 50.1938 80.7404 50.4525C80.8897 50.7085 80.9644 51.0658 80.9644 51.5245C80.9644 51.9912 80.8897 52.3538 80.7404 52.6125C80.5911 52.8712 80.3311 53.0005 79.9604 53.0005C79.5871 53.0005 79.3257 52.8712 79.1764 52.6125C79.0271 52.3538 78.9524 51.9912 78.9524 51.5245ZM80.6044 51.5245C80.6044 51.2925 80.5884 51.0965 80.5564 50.9365C80.5271 50.7738 80.4644 50.6432 80.3684 50.5445C80.2751 50.4458 80.1391 50.3965 79.9604 50.3965C79.7791 50.3965 79.6404 50.4458 79.5444 50.5445C79.4511 50.6432 79.3884 50.7738 79.3564 50.9365C79.3271 51.0965 79.3124 51.2925 79.3124 51.5245C79.3124 51.7645 79.3271 51.9658 79.3564 52.1285C79.3884 52.2912 79.4511 52.4218 79.5444 52.5205C79.6404 52.6192 79.7791 52.6685 79.9604 52.6685C80.1391 52.6685 80.2751 52.6192 80.3684 52.5205C80.4644 52.4218 80.5271 52.2912 80.5564 52.1285C80.5884 51.9658 80.6044 51.7645 80.6044 51.5245ZM81.4841 51.5245C81.4841 51.0658 81.5588 50.7085 81.7081 50.4525C81.8574 50.1938 82.1188 50.0645 82.4921 50.0645C82.8628 50.0645 83.1228 50.1938 83.2721 50.4525C83.4214 50.7085 83.4961 51.0658 83.4961 51.5245C83.4961 51.9912 83.4214 52.3538 83.2721 52.6125C83.1228 52.8712 82.8628 53.0005 82.4921 53.0005C82.1188 53.0005 81.8574 52.8712 81.7081 52.6125C81.5588 52.3538 81.4841 51.9912 81.4841 51.5245ZM83.1361 51.5245C83.1361 51.2925 83.1201 51.0965 83.0881 50.9365C83.0588 50.7738 82.9961 50.6432 82.9001 50.5445C82.8068 50.4458 82.6708 50.3965 82.4921 50.3965C82.3108 50.3965 82.1721 50.4458 82.0761 50.5445C81.9828 50.6432 81.9201 50.7738 81.8881 50.9365C81.8588 51.0965 81.8441 51.2925 81.8441 51.5245C81.8441 51.7645 81.8588 51.9658 81.8881 52.1285C81.9201 52.2912 81.9828 52.4218 82.0761 52.5205C82.1721 52.6192 82.3108 52.6685 82.4921 52.6685C82.6708 52.6685 82.8068 52.6192 82.9001 52.5205C82.9961 52.4218 83.0588 52.2912 83.0881 52.1285C83.1201 51.9658 83.1361 51.7645 83.1361 51.5245ZM86.6822 51.3805V51.6885H85.0862V51.3805H86.6822ZM88.3158 50.4405V50.1085H89.0678V53.0005H88.6998V50.4405H88.3158ZM91.493 50.3925L90.381 53.0005H90.013L91.141 50.4285H89.597V50.1165H91.493V50.3925ZM92.0926 53.0245C92.0233 53.0245 91.9646 53.0005 91.9166 52.9525C91.8686 52.9045 91.8446 52.8458 91.8446 52.7765C91.8446 52.7072 91.8686 52.6485 91.9166 52.6005C91.9646 52.5525 92.0233 52.5285 92.0926 52.5285C92.1593 52.5285 92.2153 52.5525 92.2606 52.6005C92.3086 52.6485 92.3326 52.7072 92.3326 52.7765C92.3326 52.8458 92.3086 52.9045 92.2606 52.9525C92.2153 53.0005 92.1593 53.0245 92.0926 53.0245ZM92.0926 51.3125C92.0233 51.3125 91.9646 51.2885 91.9166 51.2405C91.8686 51.1925 91.8446 51.1338 91.8446 51.0645C91.8446 50.9952 91.8686 50.9365 91.9166 50.8885C91.9646 50.8405 92.0233 50.8165 92.0926 50.8165C92.1593 50.8165 92.2153 50.8405 92.2606 50.8885C92.3086 50.9365 92.3326 50.9952 92.3326 51.0645C92.3326 51.1338 92.3086 51.1925 92.2606 51.2405C92.2153 51.2885 92.1593 51.3125 92.0926 51.3125ZM92.7882 51.5245C92.7882 51.0658 92.8628 50.7085 93.0122 50.4525C93.1615 50.1938 93.4228 50.0645 93.7962 50.0645C94.1668 50.0645 94.4268 50.1938 94.5762 50.4525C94.7255 50.7085 94.8002 51.0658 94.8002 51.5245C94.8002 51.9912 94.7255 52.3538 94.5762 52.6125C94.4268 52.8712 94.1668 53.0005 93.7962 53.0005C93.4228 53.0005 93.1615 52.8712 93.0122 52.6125C92.8628 52.3538 92.7882 51.9912 92.7882 51.5245ZM94.4402 51.5245C94.4402 51.2925 94.4242 51.0965 94.3922 50.9365C94.3628 50.7738 94.3002 50.6432 94.2042 50.5445C94.1108 50.4458 93.9748 50.3965 93.7962 50.3965C93.6148 50.3965 93.4762 50.4458 93.3802 50.5445C93.2868 50.6432 93.2242 50.7738 93.1922 50.9365C93.1628 51.0965 93.1482 51.2925 93.1482 51.5245C93.1482 51.7645 93.1628 51.9658 93.1922 52.1285C93.2242 52.2912 93.2868 52.4218 93.3802 52.5205C93.4762 52.6192 93.6148 52.6685 93.7962 52.6685C93.9748 52.6685 94.1108 52.6192 94.2042 52.5205C94.3002 52.4218 94.3628 52.2912 94.3922 52.1285C94.4242 51.9658 94.4402 51.7645 94.4402 51.5245ZM95.3199 51.5245C95.3199 51.0658 95.3946 50.7085 95.5439 50.4525C95.6932 50.1938 95.9546 50.0645 96.3279 50.0645C96.6986 50.0645 96.9586 50.1938 97.1079 50.4525C97.2572 50.7085 97.3319 51.0658 97.3319 51.5245C97.3319 51.9912 97.2572 52.3538 97.1079 52.6125C96.9586 52.8712 96.6986 53.0005 96.3279 53.0005C95.9546 53.0005 95.6932 52.8712 95.5439 52.6125C95.3946 52.3538 95.3199 51.9912 95.3199 51.5245ZM96.9719 51.5245C96.9719 51.2925 96.9559 51.0965 96.9239 50.9365C96.8946 50.7738 96.8319 50.6432 96.7359 50.5445C96.6426 50.4458 96.5066 50.3965 96.3279 50.3965C96.1466 50.3965 96.0079 50.4458 95.9119 50.5445C95.8186 50.6432 95.7559 50.7738 95.7239 50.9365C95.6946 51.0965 95.6799 51.2925 95.6799 51.5245C95.6799 51.7645 95.6946 51.9658 95.7239 52.1285C95.7559 52.2912 95.8186 52.4218 95.9119 52.5205C96.0079 52.6192 96.1466 52.6685 96.3279 52.6685C96.5066 52.6685 96.6426 52.6192 96.7359 52.5205C96.8319 52.4218 96.8946 52.2912 96.9239 52.1285C96.9559 51.9658 96.9719 51.7645 96.9719 51.5245Z" fill="#252836" fill-opacity="0.6"/>
</svg>
