<!-- <svg width="500" height="500" viewBox="0 0 500 500" fill="none" xmlns="http://www.w3.org/2000/svg">
<rect x="83.4692" y="257.195" width="100.476" height="130.805" fill="#44B090"/>
<mask id="mask0_102:36" style="mask-type:alpha" maskUnits="userSpaceOnUse" x="83" y="257" width="101" height="132">
<rect x="83.4692" y="257.195" width="100.476" height="130.805" fill="#C4C4C4"/>
</mask>
<g mask="url(#mask0_102:36)">
<ellipse cx="134.79" cy="345.428" rx="25.3523" ry="25.4402" fill="#F4F5F5" stroke="#F4F5F5" stroke-linecap="round" stroke-linejoin="round"/>
<path fill-rule="evenodd" clip-rule="evenodd" d="M93.5191 387.618C93.5123 385.83 93.9109 384.063 94.6848 382.452C97.1131 377.578 103.961 374.995 109.644 373.826C113.742 372.948 117.896 372.362 122.077 372.071C129.817 371.389 137.601 371.389 145.341 372.071C149.521 372.365 153.675 372.951 157.774 373.826C163.456 374.995 170.305 377.335 172.733 382.452C174.289 385.736 174.289 389.549 172.733 392.833C170.305 397.95 163.456 400.289 157.774 401.41C153.681 402.324 149.524 402.927 145.341 403.213C139.041 403.749 132.712 403.847 126.399 403.506C124.942 403.506 123.534 403.506 122.077 403.213C117.909 402.93 113.768 402.328 109.692 401.41C103.961 400.289 97.1617 397.95 94.6848 392.833C93.9149 391.203 93.5167 389.421 93.5191 387.618Z" fill="#F4F5F5" stroke="#F4F5F5" stroke-linecap="round" stroke-linejoin="round"/>
</g>
<rect x="83.4692" y="111.39" width="100.476" height="130.805" fill="#44B090"/>
<mask id="mask1_102:36" style="mask-type:alpha" maskUnits="userSpaceOnUse" x="83" y="111" width="101" height="132">
<rect x="83.4692" y="111.39" width="100.476" height="130.805" fill="#C4C4C4"/>
</mask>
<g mask="url(#mask1_102:36)">
<ellipse cx="134.79" cy="199.62" rx="25.3523" ry="25.4402" fill="#F4F5F5" stroke="#F4F5F5" stroke-linecap="round" stroke-linejoin="round"/>
<path fill-rule="evenodd" clip-rule="evenodd" d="M93.5191 241.811C93.5123 240.022 93.9109 238.256 94.6848 236.645C97.1131 231.771 103.961 229.188 109.644 228.018C113.742 227.141 117.896 226.555 122.077 226.264C129.817 225.582 137.601 225.582 145.341 226.264C149.521 226.558 153.675 227.144 157.774 228.018C163.456 229.188 170.305 231.527 172.733 236.645C174.289 239.929 174.289 243.741 172.733 247.026C170.305 252.143 163.456 254.482 157.774 255.603C153.681 256.517 149.524 257.12 145.341 257.406C139.041 257.942 132.712 258.04 126.399 257.699C124.942 257.699 123.534 257.699 122.077 257.406C117.909 257.123 113.768 256.52 109.692 255.603C103.961 254.482 97.1617 252.143 94.6848 247.026C93.9149 245.396 93.5167 243.614 93.5191 241.811Z" fill="#F4F5F5" stroke="#F4F5F5" stroke-linecap="round" stroke-linejoin="round"/>
</g>
<rect x="199.715" y="111.39" width="100.476" height="130.805" fill="#F38E00"/>
<mask id="mask2_102:36" style="mask-type:alpha" maskUnits="userSpaceOnUse" x="199" y="111" width="102" height="132">
<rect x="199.715" y="111.39" width="100.476" height="130.805" fill="#C4C4C4"/>
</mask>
<g mask="url(#mask2_102:36)">
<ellipse cx="251.035" cy="199.62" rx="25.3523" ry="25.4402" fill="#F4F5F5" stroke="#F4F5F5" stroke-linecap="round" stroke-linejoin="round"/>
<path fill-rule="evenodd" clip-rule="evenodd" d="M209.765 241.811C209.758 240.022 210.157 238.256 210.93 236.645C213.359 231.771 220.207 229.188 225.889 228.018C229.987 227.141 234.142 226.554 238.322 226.264C246.062 225.582 253.847 225.582 261.586 226.264C265.766 226.558 269.921 227.144 274.02 228.018C279.702 229.188 286.55 231.527 288.979 236.645C290.535 239.929 290.535 243.741 288.979 247.025C286.55 252.143 279.702 254.482 274.02 255.603C269.926 256.517 265.77 257.12 261.586 257.406C255.287 257.942 248.958 258.04 242.645 257.698C241.188 257.698 239.78 257.699 238.322 257.406C234.154 257.123 230.014 256.52 225.938 255.603C220.207 254.482 213.407 252.143 210.93 247.025C210.16 245.396 209.762 243.614 209.765 241.811Z" fill="#F4F5F5" stroke="#F4F5F5" stroke-linecap="round" stroke-linejoin="round"/>
</g>
<rect x="316.054" y="111.39" width="100.476" height="130.805" fill="#44B090"/>
<mask id="mask3_102:36" style="mask-type:alpha" maskUnits="userSpaceOnUse" x="316" y="111" width="101" height="132">
<rect x="316.054" y="111.39" width="100.476" height="130.805" fill="#C4C4C4"/>
</mask>
<g mask="url(#mask3_102:36)">
<ellipse cx="367.378" cy="199.62" rx="25.3523" ry="25.4402" fill="#F4F5F5" stroke="#F4F5F5" stroke-linecap="round" stroke-linejoin="round"/>
<path fill-rule="evenodd" clip-rule="evenodd" d="M326.108 241.811C326.101 240.022 326.499 238.256 327.273 236.645C329.702 231.771 336.55 229.188 342.232 228.018C346.33 227.141 350.485 226.554 354.665 226.264C362.405 225.582 370.189 225.582 377.929 226.264C382.109 226.558 386.264 227.144 390.362 228.018C396.045 229.188 402.893 231.527 405.321 236.645C406.878 239.929 406.878 243.741 405.321 247.025C402.893 252.143 396.045 254.482 390.362 255.603C386.269 256.517 382.113 257.12 377.929 257.406C371.63 257.942 365.301 258.04 358.988 257.698C357.531 257.698 356.122 257.699 354.665 257.406C350.497 257.123 346.357 256.52 342.281 255.603C336.55 254.482 329.75 252.143 327.273 247.025C326.503 245.396 326.105 243.614 326.108 241.811Z" fill="#F4F5F5" stroke="#F4F5F5" stroke-linecap="round" stroke-linejoin="round"/>
</g>
<rect x="199.715" y="257.195" width="100.476" height="130.805" fill="#44B090"/>
<mask id="mask4_102:36" style="mask-type:alpha" maskUnits="userSpaceOnUse" x="199" y="257" width="102" height="132">
<rect x="199.715" y="257.195" width="100.476" height="130.805" fill="#C4C4C4"/>
</mask>
<g mask="url(#mask4_102:36)">
<ellipse cx="251.035" cy="345.428" rx="25.3523" ry="25.4402" fill="#F4F5F5" stroke="#F4F5F5" stroke-linecap="round" stroke-linejoin="round"/>
<path fill-rule="evenodd" clip-rule="evenodd" d="M209.765 387.618C209.758 385.83 210.157 384.063 210.93 382.452C213.359 377.578 220.207 374.995 225.889 373.826C229.987 372.948 234.142 372.362 238.322 372.071C246.062 371.389 253.847 371.389 261.586 372.071C265.766 372.365 269.921 372.951 274.02 373.826C279.702 374.995 286.55 377.335 288.979 382.452C290.535 385.736 290.535 389.549 288.979 392.833C286.55 397.95 279.702 400.289 274.02 401.41C269.926 402.324 265.77 402.927 261.586 403.213C255.287 403.749 248.958 403.847 242.645 403.506C241.188 403.506 239.78 403.506 238.322 403.213C234.154 402.93 230.014 402.328 225.938 401.41C220.207 400.289 213.407 397.95 210.93 392.833C210.16 391.203 209.762 389.421 209.765 387.618Z" fill="#F4F5F5" stroke="#F4F5F5" stroke-linecap="round" stroke-linejoin="round"/>
</g>
<rect x="316.054" y="257.195" width="100.476" height="130.805" fill="#44B090"/>
<mask id="mask5_102:36" style="mask-type:alpha" maskUnits="userSpaceOnUse" x="316" y="257" width="101" height="132">
<rect x="316.054" y="257.195" width="100.476" height="130.805" fill="#C4C4C4"/>
</mask>
<g mask="url(#mask5_102:36)">
<ellipse cx="367.378" cy="345.428" rx="25.3523" ry="25.4402" fill="#F4F5F5" stroke="#F4F5F5" stroke-linecap="round" stroke-linejoin="round"/>
<path fill-rule="evenodd" clip-rule="evenodd" d="M326.108 387.618C326.101 385.83 326.499 384.063 327.273 382.452C329.702 377.578 336.55 374.995 342.232 373.826C346.33 372.948 350.485 372.362 354.665 372.071C362.405 371.389 370.189 371.389 377.929 372.071C382.109 372.365 386.264 372.951 390.362 373.826C396.045 374.995 402.893 377.335 405.321 382.452C406.878 385.736 406.878 389.549 405.321 392.833C402.893 397.95 396.045 400.289 390.362 401.41C386.269 402.324 382.113 402.927 377.929 403.213C371.63 403.749 365.301 403.847 358.988 403.506C357.531 403.506 356.122 403.506 354.665 403.213C350.497 402.93 346.357 402.328 342.281 401.41C336.55 400.289 329.75 397.95 327.273 392.833C326.503 391.203 326.105 389.421 326.108 387.618Z" fill="#F4F5F5" stroke="#F4F5F5" stroke-linecap="round" stroke-linejoin="round"/>
</g>
</svg> -->
<svg width="500" height="500" viewBox="0 0 98 82" fill="none" xmlns="http://www.w3.org/2000/svg">
<rect y="43.5116" width="29.5641" height="38.488" fill="#E62129"/>
<mask id="mask0_407_2139" style="mask-type:alpha" maskUnits="userSpaceOnUse" x="0" y="43" width="30" height="39">
<rect y="43.5116" width="29.5641" height="38.488" fill="#C4C4C4"/>
</mask>
<g mask="url(#mask0_407_2139)">
<ellipse cx="15.1004" cy="69.473" rx="7.45965" ry="7.48552" fill="#F4F5F5" stroke="#F4F5F5" stroke-linecap="round" stroke-linejoin="round"/>
<path fill-rule="evenodd" clip-rule="evenodd" d="M2.95706 81.8871C2.95505 81.3609 3.07233 80.8411 3.30003 80.3671C4.01455 78.9331 6.02952 78.1731 7.70151 77.8289C8.90735 77.5707 10.1298 77.3982 11.3599 77.3127C13.6372 77.1119 15.9277 77.1119 18.205 77.3127C19.435 77.3992 20.6574 77.5717 21.8634 77.8289C23.5354 78.1731 25.5504 78.8614 26.2649 80.3671C26.7228 81.3334 26.7228 82.4552 26.2649 83.4215C25.5504 84.9272 23.5354 85.6156 21.8634 85.9454C20.659 86.2143 19.4361 86.3917 18.205 86.476C16.3515 86.6337 14.4893 86.6624 12.6317 86.562C12.203 86.562 11.7886 86.562 11.3599 86.476C10.1335 86.3927 8.91522 86.2153 7.7158 85.9454C6.02952 85.6156 4.02885 84.9272 3.30003 83.4215C3.0735 82.942 2.95633 82.4178 2.95706 81.8871Z" fill="#F4F5F5" stroke="#F4F5F5" stroke-linecap="round" stroke-linejoin="round"/>
</g>
<rect y="0.610016" width="29.5641" height="38.488" fill="#E62129"/>
<mask id="mask1_407_2139" style="mask-type:alpha" maskUnits="userSpaceOnUse" x="0" y="0" width="30" height="40">
<rect y="0.610016" width="29.5641" height="38.488" fill="#C4C4C4"/>
</mask>
<g mask="url(#mask1_407_2139)">
<ellipse cx="15.1004" cy="26.5708" rx="7.45965" ry="7.48552" fill="#F4F5F5" stroke="#F4F5F5" stroke-linecap="round" stroke-linejoin="round"/>
<path fill-rule="evenodd" clip-rule="evenodd" d="M2.95706 38.985C2.95505 38.4587 3.07233 37.9389 3.30003 37.4649C4.01455 36.0309 6.02952 35.2709 7.70151 34.9267C8.90735 34.6685 10.1298 34.496 11.3599 34.4105C13.6372 34.2097 15.9277 34.2097 18.205 34.4105C19.435 34.497 20.6574 34.6695 21.8634 34.9267C23.5354 35.2709 25.5504 35.9592 26.2649 37.4649C26.7228 38.4312 26.7228 39.553 26.2649 40.5193C25.5504 42.0251 23.5354 42.7134 21.8634 43.0432C20.659 43.3121 19.4361 43.4895 18.205 43.5738C16.3515 43.7315 14.4893 43.7602 12.6317 43.6598C12.203 43.6598 11.7886 43.6598 11.3599 43.5738C10.1335 43.4905 8.91522 43.3131 7.7158 43.0432C6.02952 42.7134 4.02885 42.0251 3.30003 40.5193C3.0735 40.0398 2.95633 39.5156 2.95706 38.985Z" fill="#F4F5F5" stroke="#F4F5F5" stroke-linecap="round" stroke-linejoin="round"/>
</g>
<rect x="34.2041" y="0.609924" width="29.5641" height="38.488" fill="#FF9500"/>
<mask id="mask2_407_2139" style="mask-type:alpha" maskUnits="userSpaceOnUse" x="34" y="0" width="30" height="40">
<rect x="34.2041" y="0.609924" width="29.5641" height="38.488" fill="#C4C4C4"/>
</mask>
<g mask="url(#mask2_407_2139)">
<ellipse cx="49.3045" cy="26.5708" rx="7.45965" ry="7.48552" fill="#F4F5F5" stroke="#F4F5F5" stroke-linecap="round" stroke-linejoin="round"/>
<path fill-rule="evenodd" clip-rule="evenodd" d="M37.1612 38.9849C37.1592 38.4586 37.2764 37.9389 37.5041 37.4648C38.2187 36.0308 40.2336 35.2708 41.9056 34.9266C43.1114 34.6684 44.3339 34.4959 45.564 34.4104C47.8413 34.2096 50.1318 34.2096 52.4091 34.4104C53.6391 34.4969 54.8615 34.6694 56.0675 34.9266C57.7395 35.2708 59.7545 35.9591 60.469 37.4648C60.9269 38.4311 60.9269 39.553 60.469 40.5193C59.7545 42.025 57.7395 42.7133 56.0675 43.0431C54.8631 43.312 53.6402 43.4894 52.4091 43.5737C50.5556 43.7314 48.6934 43.7601 46.8358 43.6597C46.4071 43.6597 45.9927 43.6597 45.564 43.5737C44.3376 43.4904 43.1193 43.313 41.9199 43.0431C40.2336 42.7133 38.2329 42.025 37.5041 40.5193C37.2776 40.0397 37.1604 39.5155 37.1612 38.9849Z" fill="#F4F5F5" stroke="#F4F5F5" stroke-linecap="round" stroke-linejoin="round"/>
</g>
<rect x="68.4357" y="0.609924" width="29.5641" height="38.488" fill="#E62129"/>
<mask id="mask3_407_2139" style="mask-type:alpha" maskUnits="userSpaceOnUse" x="68" y="0" width="30" height="40">
<rect x="68.4357" y="0.609924" width="29.5641" height="38.488" fill="#C4C4C4"/>
</mask>
<g mask="url(#mask3_407_2139)">
<ellipse cx="83.537" cy="26.5708" rx="7.45965" ry="7.48552" fill="#F4F5F5" stroke="#F4F5F5" stroke-linecap="round" stroke-linejoin="round"/>
<path fill-rule="evenodd" clip-rule="evenodd" d="M71.3937 38.9849C71.3917 38.4586 71.509 37.9389 71.7367 37.4648C72.4512 36.0308 74.4662 35.2708 76.1382 34.9266C77.344 34.6684 78.5665 34.4959 79.7965 34.4104C82.0739 34.2096 84.3643 34.2096 86.6417 34.4104C87.8716 34.4969 89.094 34.6694 90.3001 34.9266C91.972 35.2708 93.987 35.9591 94.7015 37.4648C95.1594 38.4311 95.1594 39.553 94.7015 40.5193C93.987 42.025 91.972 42.7133 90.3001 43.0431C89.0956 43.312 87.8727 43.4894 86.6417 43.5737C84.7881 43.7314 82.9259 43.7601 81.0684 43.6597C80.6397 43.6597 80.2252 43.6597 79.7965 43.5737C78.5701 43.4904 77.3519 43.313 76.1524 43.0431C74.4662 42.7133 72.4655 42.025 71.7367 40.5193C71.5101 40.0397 71.393 39.5155 71.3937 38.9849Z" fill="#F4F5F5" stroke="#F4F5F5" stroke-linecap="round" stroke-linejoin="round"/>
</g>
<rect x="34.2041" y="43.5116" width="29.5641" height="38.488" fill="#E62129"/>
<mask id="mask4_407_2139" style="mask-type:alpha" maskUnits="userSpaceOnUse" x="34" y="43" width="30" height="39">
<rect x="34.2041" y="43.5116" width="29.5641" height="38.488" fill="#C4C4C4"/>
</mask>
<g mask="url(#mask4_407_2139)">
<ellipse cx="49.3045" cy="69.473" rx="7.45965" ry="7.48552" fill="#F4F5F5" stroke="#F4F5F5" stroke-linecap="round" stroke-linejoin="round"/>
<path fill-rule="evenodd" clip-rule="evenodd" d="M37.1612 81.8871C37.1592 81.3609 37.2764 80.8411 37.5041 80.3671C38.2187 78.9331 40.2336 78.1731 41.9056 77.8289C43.1114 77.5707 44.3339 77.3982 45.564 77.3127C47.8413 77.1119 50.1318 77.1119 52.4091 77.3127C53.6391 77.3992 54.8615 77.5717 56.0675 77.8289C57.7395 78.1731 59.7545 78.8614 60.469 80.3671C60.9269 81.3334 60.9269 82.4552 60.469 83.4215C59.7545 84.9272 57.7395 85.6156 56.0675 85.9454C54.8631 86.2143 53.6402 86.3917 52.4091 86.476C50.5556 86.6337 48.6934 86.6624 46.8358 86.562C46.4071 86.562 45.9927 86.562 45.564 86.476C44.3376 86.3927 43.1193 86.2153 41.9199 85.9454C40.2336 85.6156 38.2329 84.9272 37.5041 83.4215C37.2776 82.942 37.1604 82.4178 37.1612 81.8871Z" fill="#F4F5F5" stroke="#F4F5F5" stroke-linecap="round" stroke-linejoin="round"/>
</g>
<rect x="68.4357" y="43.5116" width="29.5641" height="38.488" fill="#E62129"/>
<mask id="mask5_407_2139" style="mask-type:alpha" maskUnits="userSpaceOnUse" x="68" y="43" width="30" height="39">
<rect x="68.4357" y="43.5116" width="29.5641" height="38.488" fill="#C4C4C4"/>
</mask>
<g mask="url(#mask5_407_2139)">
<ellipse cx="83.537" cy="69.473" rx="7.45965" ry="7.48552" fill="#F4F5F5" stroke="#F4F5F5" stroke-linecap="round" stroke-linejoin="round"/>
<path fill-rule="evenodd" clip-rule="evenodd" d="M71.3937 81.8871C71.3917 81.3609 71.509 80.8411 71.7367 80.3671C72.4512 78.9331 74.4662 78.1731 76.1382 77.8289C77.344 77.5707 78.5665 77.3982 79.7965 77.3127C82.0739 77.1119 84.3643 77.1119 86.6417 77.3127C87.8716 77.3992 89.094 77.5717 90.3001 77.8289C91.972 78.1731 93.987 78.8614 94.7015 80.3671C95.1594 81.3334 95.1594 82.4552 94.7015 83.4215C93.987 84.9272 91.972 85.6156 90.3001 85.9454C89.0956 86.2143 87.8727 86.3917 86.6417 86.476C84.7881 86.6337 82.9259 86.6624 81.0684 86.562C80.6397 86.562 80.2252 86.562 79.7965 86.476C78.5701 86.3927 77.3519 86.2153 76.1524 85.9454C74.4662 85.6156 72.4655 84.9272 71.7367 83.4215C71.5101 82.942 71.393 82.4178 71.3937 81.8871Z" fill="#F4F5F5" stroke="#F4F5F5" stroke-linecap="round" stroke-linejoin="round"/>
</g>
</svg>
